<svg xmlns="http://www.w3.org/2000/svg" xmlns:xlink="http://www.w3.org/1999/xlink" contentStyleType="text/css" data-diagram-type="CLASS" height="1124px" preserveAspectRatio="none" style="width:1484px;height:1124px;background:#FFFFFF;" version="1.1" viewBox="0 0 1484 1124" width="1484px" zoomAndPan="magnify"><?plantuml 1.2026.4?><defs/><g><g class="title" data-source-line="1"><text fill="#000000" font-family="sans-serif" font-size="14" font-weight="700" lengthAdjust="spacing" textLength="278.2227" x="599.5933" y="24.5332">Diagrama de Classes &#8212; Frota e Opera&#231;&#227;o</text></g><!--class Veiculo--><g class="entity" data-qualified-name="Veiculo" data-source-line="9" id="ent0001"><rect fill="#F1F1F1" height="224.0938" rx="2.5" ry="2.5" style="stroke:#181818;stroke-width:0.5;" width="262.9678" x="654" y="561.6094"/><ellipse cx="758.2754" cy="577.6094" fill="#ADD1B2" rx="11" ry="11" style="stroke:#181818;stroke-width:1;"/><path d="M761.041,573.4844 Q761.1973,573.2656 761.3848,573.1563 Q761.5723,573.0469 761.791,573.0469 Q762.166,573.0469 762.4004,573.3125 Q762.6348,573.5625 762.6348,574.1719 L762.6348,575.625 Q762.6348,576.2344 762.4004,576.5 Q762.166,576.7656 761.791,576.7656 Q761.4473,576.7656 761.2441,576.5625 Q761.041,576.375 760.9316,575.8594 Q760.8848,575.5 760.6973,575.3125 Q760.3691,574.9375 759.7598,574.7188 Q759.1504,574.5 758.5254,574.5 Q757.7598,574.5 757.1191,574.8281 Q756.4941,575.1563 755.9941,575.9063 Q755.5098,576.6563 755.5098,577.6875 L755.5098,578.7813 Q755.5098,580.0156 756.4004,580.8438 Q757.291,581.6563 758.8848,581.6563 Q759.8223,581.6563 760.4785,581.4063 Q760.8691,581.25 761.291,580.8125 Q761.5566,580.5469 761.6973,580.4688 Q761.8535,580.3906 762.0566,580.3906 Q762.3848,580.3906 762.6348,580.6563 Q762.9004,580.9063 762.9004,581.25 Q762.9004,581.5938 762.5566,582 Q762.0566,582.5781 761.2598,582.9063 Q760.1816,583.3594 758.8848,583.3594 Q757.3691,583.3594 756.166,582.7344 Q755.1816,582.2344 754.4941,581.1719 Q753.8066,580.0938 753.8066,578.8125 L753.8066,577.6563 Q753.8066,576.3281 754.416,575.1875 Q755.041,574.0313 756.1348,573.4219 Q757.2285,572.7969 758.4629,572.7969 Q759.1973,572.7969 759.8379,572.9688 Q760.4941,573.125 761.041,573.4844 Z " fill="#000000"/><text fill="#000000" font-family="sans-serif" font-size="14" lengthAdjust="spacing" textLength="45.917" x="778.7754" y="583.3379">Veiculo</text><line style="stroke:#181818;stroke-width:0.5;" x1="655" x2="915.9678" y1="593.6094" y2="593.6094"/><text fill="#000000" font-family="sans-serif" font-size="14" lengthAdjust="spacing" textLength="42.0137" x="660" y="612.1426">-id : int</text><text fill="#000000" font-family="sans-serif" font-size="14" lengthAdjust="spacing" textLength="115.1582" x="660" y="629.752">-codigoQR : String</text><text fill="#000000" font-family="sans-serif" font-size="14" lengthAdjust="spacing" textLength="104.2686" x="660" y="647.3613">-nivelBateria : int</text><text fill="#000000" font-family="sans-serif" font-size="14" lengthAdjust="spacing" textLength="147.8682" x="660" y="664.9707">-estado : EstadoVeiculo</text><line style="stroke:#181818;stroke-width:0.5;" x1="655" x2="915.9678" y1="672.0469" y2="672.0469"/><text fill="#000000" font-family="sans-serif" font-size="14" lengthAdjust="spacing" textLength="106.1963" x="660" y="690.5801">+reservar() : void</text><text fill="#000000" font-family="sans-serif" font-size="14" lengthAdjust="spacing" textLength="131.9131" x="660" y="708.1895">+desbloquear() : void</text><text fill="#000000" font-family="sans-serif" font-size="14" lengthAdjust="spacing" textLength="109.3408" x="660" y="725.7988">+bloquear() : void</text><text fill="#000000" font-family="sans-serif" font-size="14" lengthAdjust="spacing" textLength="250.9678" x="660" y="743.4082">+atualizarPosicao(p : Localizacao) : void</text><text fill="#000000" font-family="sans-serif" font-size="14" lengthAdjust="spacing" textLength="207.375" x="660" y="761.0176">+atualizarBateria(nivel : int) : void</text><text fill="#000000" font-family="sans-serif" font-size="14" lengthAdjust="spacing" textLength="209.7266" x="660" y="778.627">+precisaRecolhimento() : boolean</text></g><!--class ModeloVeiculo--><g class="entity" data-qualified-name="ModeloVeiculo" data-source-line="21" id="ent0002"><rect fill="#F1F1F1" height="110.4375" rx="2.5" ry="2.5" style="stroke:#181818;stroke-width:0.5;" width="204.2061" x="596.5" y="893.6094"/><ellipse cx="648.436" cy="909.6094" fill="#ADD1B2" rx="11" ry="11" style="stroke:#181818;stroke-width:1;"/><path d="M651.2017,905.4844 Q651.3579,905.2656 651.5454,905.1563 Q651.7329,905.0469 651.9517,905.0469 Q652.3267,905.0469 652.561,905.3125 Q652.7954,905.5625 652.7954,906.1719 L652.7954,907.625 Q652.7954,908.2344 652.561,908.5 Q652.3267,908.7656 651.9517,908.7656 Q651.6079,908.7656 651.4048,908.5625 Q651.2017,908.375 651.0923,907.8594 Q651.0454,907.5 650.8579,907.3125 Q650.5298,906.9375 649.9204,906.7188 Q649.311,906.5 648.686,906.5 Q647.9204,906.5 647.2798,906.8281 Q646.6548,907.1563 646.1548,907.9063 Q645.6704,908.6563 645.6704,909.6875 L645.6704,910.7813 Q645.6704,912.0156 646.561,912.8438 Q647.4517,913.6563 649.0454,913.6563 Q649.9829,913.6563 650.6392,913.4063 Q651.0298,913.25 651.4517,912.8125 Q651.7173,912.5469 651.8579,912.4688 Q652.0142,912.3906 652.2173,912.3906 Q652.5454,912.3906 652.7954,912.6563 Q653.061,912.9063 653.061,913.25 Q653.061,913.5938 652.7173,914 Q652.2173,914.5781 651.4204,914.9063 Q650.3423,915.3594 649.0454,915.3594 Q647.5298,915.3594 646.3267,914.7344 Q645.3423,914.2344 644.6548,913.1719 Q643.9673,912.0938 643.9673,910.8125 L643.9673,909.6563 Q643.9673,908.3281 644.5767,907.1875 Q645.2017,906.0313 646.2954,905.4219 Q647.3892,904.7969 648.6235,904.7969 Q649.3579,904.7969 649.9985,904.9688 Q650.6548,905.125 651.2017,905.4844 Z " fill="#000000"/><text fill="#000000" font-family="sans-serif" font-size="14" lengthAdjust="spacing" textLength="91.834" x="668.936" y="915.3379">ModeloVeiculo</text><line style="stroke:#181818;stroke-width:0.5;" x1="597.5" x2="799.7061" y1="925.6094" y2="925.6094"/><text fill="#000000" font-family="sans-serif" font-size="14" lengthAdjust="spacing" textLength="42.0137" x="602.5" y="944.1426">-id : int</text><text fill="#000000" font-family="sans-serif" font-size="14" lengthAdjust="spacing" textLength="87.9238" x="602.5" y="961.752">-nome : String</text><text fill="#000000" font-family="sans-serif" font-size="14" lengthAdjust="spacing" textLength="112.0547" x="602.5" y="979.3613">-tipo : TipoVeiculo</text><text fill="#000000" font-family="sans-serif" font-size="14" lengthAdjust="spacing" textLength="192.2061" x="602.5" y="996.9707">-velocidadeMaximaPadrao : int</text></g><!--class Localizacao--><g class="entity" data-qualified-name="Localizacao" data-source-line="27" id="ent0003"><rect fill="#F1F1F1" height="85.9219" rx="2.5" ry="2.5" style="stroke:#181818;stroke-width:0.5;" width="127.1992" x="1077" y="905.6094"/><ellipse cx="1101.5678" cy="926.9609" fill="#ADD1B2" rx="11" ry="11" style="stroke:#181818;stroke-width:1;"/><path d="M1104.3334,922.8359 Q1104.4896,922.6172 1104.6771,922.5078 Q1104.8646,922.3984 1105.0834,922.3984 Q1105.4584,922.3984 1105.6928,922.6641 Q1105.9271,922.9141 1105.9271,923.5234 L1105.9271,924.9766 Q1105.9271,925.5859 1105.6928,925.8516 Q1105.4584,926.1172 1105.0834,926.1172 Q1104.7396,926.1172 1104.5365,925.9141 Q1104.3334,925.7266 1104.224,925.2109 Q1104.1771,924.8516 1103.9896,924.6641 Q1103.6615,924.2891 1103.0521,924.0703 Q1102.4428,923.8516 1101.8178,923.8516 Q1101.0521,923.8516 1100.4115,924.1797 Q1099.7865,924.5078 1099.2865,925.2578 Q1098.8021,926.0078 1098.8021,927.0391 L1098.8021,928.1328 Q1098.8021,929.3672 1099.6928,930.1953 Q1100.5834,931.0078 1102.1771,931.0078 Q1103.1146,931.0078 1103.7709,930.7578 Q1104.1615,930.6016 1104.5834,930.1641 Q1104.849,929.8984 1104.9896,929.8203 Q1105.1459,929.7422 1105.349,929.7422 Q1105.6771,929.7422 1105.9271,930.0078 Q1106.1928,930.2578 1106.1928,930.6016 Q1106.1928,930.9453 1105.849,931.3516 Q1105.349,931.9297 1104.5521,932.2578 Q1103.474,932.7109 1102.1771,932.7109 Q1100.6615,932.7109 1099.4584,932.0859 Q1098.474,931.5859 1097.7865,930.5234 Q1097.099,929.4453 1097.099,928.1641 L1097.099,927.0078 Q1097.099,925.6797 1097.7084,924.5391 Q1098.3334,923.3828 1099.4271,922.7734 Q1100.5209,922.1484 1101.7553,922.1484 Q1102.4896,922.1484 1103.1303,922.3203 Q1103.7865,922.4766 1104.3334,922.8359 Z " fill="#000000"/><text fill="#000000" font-family="sans-serif" font-size="12" font-style="italic" lengthAdjust="spacing" textLength="42.0352" x="1133.6451" y="923.0664">&#171;value&#187;</text><text fill="#000000" font-family="sans-serif" font-size="14" lengthAdjust="spacing" textLength="73.9375" x="1117.6939" y="940.2363">Localizacao</text><line style="stroke:#181818;stroke-width:0.5;" x1="1078" x2="1203.1992" y1="948.3125" y2="948.3125"/><text fill="#000000" font-family="sans-serif" font-size="14" lengthAdjust="spacing" textLength="103.5166" x="1083" y="966.8457">-latitude : double</text><text fill="#000000" font-family="sans-serif" font-size="14" lengthAdjust="spacing" textLength="115.1992" x="1083" y="984.4551">-longitude : double</text></g><!--class Municipio--><g class="entity" data-qualified-name="Municipio" data-source-line="31" id="ent0004"><rect fill="#F1F1F1" height="92.8281" rx="2.5" ry="2.5" style="stroke:#181818;stroke-width:0.5;" width="99.9238" x="899.5" y="902.1094"/><ellipse cx="918.4538" cy="918.1094" fill="#ADD1B2" rx="11" ry="11" style="stroke:#181818;stroke-width:1;"/><path d="M921.2194,913.9844 Q921.3756,913.7656 921.5631,913.6563 Q921.7506,913.5469 921.9694,913.5469 Q922.3444,913.5469 922.5788,913.8125 Q922.8131,914.0625 922.8131,914.6719 L922.8131,916.125 Q922.8131,916.7344 922.5788,917 Q922.3444,917.2656 921.9694,917.2656 Q921.6256,917.2656 921.4225,917.0625 Q921.2194,916.875 921.11,916.3594 Q921.0631,916 920.8756,915.8125 Q920.5475,915.4375 919.9381,915.2188 Q919.3288,915 918.7038,915 Q917.9381,915 917.2975,915.3281 Q916.6725,915.6563 916.1725,916.4063 Q915.6881,917.1563 915.6881,918.1875 L915.6881,919.2813 Q915.6881,920.5156 916.5788,921.3438 Q917.4694,922.1563 919.0631,922.1563 Q920.0006,922.1563 920.6569,921.9063 Q921.0475,921.75 921.4694,921.3125 Q921.735,921.0469 921.8756,920.9688 Q922.0319,920.8906 922.235,920.8906 Q922.5631,920.8906 922.8131,921.1563 Q923.0788,921.4063 923.0788,921.75 Q923.0788,922.0938 922.735,922.5 Q922.235,923.0781 921.4381,923.4063 Q920.36,923.8594 919.0631,923.8594 Q917.5475,923.8594 916.3444,923.2344 Q915.36,922.7344 914.6725,921.6719 Q913.985,920.5938 913.985,919.3125 L913.985,918.1563 Q913.985,916.8281 914.5944,915.6875 Q915.2194,914.5313 916.3131,913.9219 Q917.4069,913.2969 918.6413,913.2969 Q919.3756,913.2969 920.0163,913.4688 Q920.6725,913.625 921.2194,913.9844 Z " fill="#000000"/><text fill="#000000" font-family="sans-serif" font-size="14" lengthAdjust="spacing" textLength="59.1377" x="933.3324" y="923.8379">Municipio</text><line style="stroke:#181818;stroke-width:0.5;" x1="900.5" x2="998.4238" y1="934.1094" y2="934.1094"/><text fill="#000000" font-family="sans-serif" font-size="14" lengthAdjust="spacing" textLength="42.0137" x="905.5" y="952.6426">-id : int</text><text fill="#000000" font-family="sans-serif" font-size="14" lengthAdjust="spacing" textLength="87.9238" x="905.5" y="970.252">-nome : String</text><text fill="#000000" font-family="sans-serif" font-size="14" lengthAdjust="spacing" textLength="64.5791" x="905.5" y="987.8613">-uf : String</text></g><!--class Zona--><g class="entity" data-qualified-name="Zona" data-source-line="36" id="ent0005"><rect fill="#F1F1F1" height="136.0469" rx="2.5" ry="2.5" style="stroke:#181818;stroke-width:0.5;" width="230.2988" x="993.5" y="605.6094"/><ellipse cx="1088.4443" cy="621.6094" fill="#ADD1B2" rx="11" ry="11" style="stroke:#181818;stroke-width:1;"/><path d="M1091.21,617.4844 Q1091.3662,617.2656 1091.5537,617.1563 Q1091.7412,617.0469 1091.96,617.0469 Q1092.335,617.0469 1092.5693,617.3125 Q1092.8037,617.5625 1092.8037,618.1719 L1092.8037,619.625 Q1092.8037,620.2344 1092.5693,620.5 Q1092.335,620.7656 1091.96,620.7656 Q1091.6162,620.7656 1091.4131,620.5625 Q1091.21,620.375 1091.1006,619.8594 Q1091.0537,619.5 1090.8662,619.3125 Q1090.5381,618.9375 1089.9287,618.7188 Q1089.3193,618.5 1088.6943,618.5 Q1087.9287,618.5 1087.2881,618.8281 Q1086.6631,619.1563 1086.1631,619.9063 Q1085.6787,620.6563 1085.6787,621.6875 L1085.6787,622.7813 Q1085.6787,624.0156 1086.5693,624.8438 Q1087.46,625.6563 1089.0537,625.6563 Q1089.9912,625.6563 1090.6475,625.4063 Q1091.0381,625.25 1091.46,624.8125 Q1091.7256,624.5469 1091.8662,624.4688 Q1092.0225,624.3906 1092.2256,624.3906 Q1092.5537,624.3906 1092.8037,624.6563 Q1093.0693,624.9063 1093.0693,625.25 Q1093.0693,625.5938 1092.7256,626 Q1092.2256,626.5781 1091.4287,626.9063 Q1090.3506,627.3594 1089.0537,627.3594 Q1087.5381,627.3594 1086.335,626.7344 Q1085.3506,626.2344 1084.6631,625.1719 Q1083.9756,624.0938 1083.9756,622.8125 L1083.9756,621.6563 Q1083.9756,620.3281 1084.585,619.1875 Q1085.21,618.0313 1086.3037,617.4219 Q1087.3975,616.7969 1088.6318,616.7969 Q1089.3662,616.7969 1090.0068,616.9688 Q1090.6631,617.125 1091.21,617.4844 Z " fill="#000000"/><text fill="#000000" font-family="sans-serif" font-size="14" lengthAdjust="spacing" textLength="31.9102" x="1108.9443" y="627.3379">Zona</text><line style="stroke:#181818;stroke-width:0.5;" x1="994.5" x2="1222.7988" y1="637.6094" y2="637.6094"/><text fill="#000000" font-family="sans-serif" font-size="14" lengthAdjust="spacing" textLength="42.0137" x="999.5" y="656.1426">-id : int</text><text fill="#000000" font-family="sans-serif" font-size="14" lengthAdjust="spacing" textLength="87.9238" x="999.5" y="673.752">-nome : String</text><text fill="#000000" font-family="sans-serif" font-size="14" lengthAdjust="spacing" textLength="98.0479" x="999.5" y="691.3613">-tipo : TipoZona</text><text fill="#000000" font-family="sans-serif" font-size="14" lengthAdjust="spacing" textLength="147.0615" x="999.5" y="708.9707">-velocidadeMaxima : int</text><line style="stroke:#181818;stroke-width:0.5;" x1="994.5" x2="1222.7988" y1="716.0469" y2="716.0469"/><text fill="#000000" font-family="sans-serif" font-size="14" lengthAdjust="spacing" textLength="218.2988" x="999.5" y="734.5801">+contem(p : Localizacao) : boolean</text></g><!--class ReporteDefeito--><g class="entity" data-qualified-name="ReporteDefeito" data-source-line="43" id="ent0006"><rect fill="#F1F1F1" height="92.8281" rx="2.5" ry="2.5" style="stroke:#181818;stroke-width:0.5;" width="146.6064" x="702" y="72.1094"/><ellipse cx="726.1986" cy="88.1094" fill="#ADD1B2" rx="11" ry="11" style="stroke:#181818;stroke-width:1;"/><path d="M728.9643,83.9844 Q729.1205,83.7656 729.308,83.6563 Q729.4955,83.5469 729.7143,83.5469 Q730.0893,83.5469 730.3236,83.8125 Q730.558,84.0625 730.558,84.6719 L730.558,86.125 Q730.558,86.7344 730.3236,87 Q730.0893,87.2656 729.7143,87.2656 Q729.3705,87.2656 729.1674,87.0625 Q728.9643,86.875 728.8549,86.3594 Q728.808,86 728.6205,85.8125 Q728.2924,85.4375 727.683,85.2188 Q727.0736,85 726.4486,85 Q725.683,85 725.0424,85.3281 Q724.4174,85.6563 723.9174,86.4063 Q723.433,87.1563 723.433,88.1875 L723.433,89.2813 Q723.433,90.5156 724.3236,91.3438 Q725.2143,92.1563 726.808,92.1563 Q727.7455,92.1563 728.4018,91.9063 Q728.7924,91.75 729.2143,91.3125 Q729.4799,91.0469 729.6205,90.9688 Q729.7768,90.8906 729.9799,90.8906 Q730.308,90.8906 730.558,91.1563 Q730.8236,91.4063 730.8236,91.75 Q730.8236,92.0938 730.4799,92.5 Q729.9799,93.0781 729.183,93.4063 Q728.1049,93.8594 726.808,93.8594 Q725.2924,93.8594 724.0893,93.2344 Q723.1049,92.7344 722.4174,91.6719 Q721.7299,90.5938 721.7299,89.3125 L721.7299,88.1563 Q721.7299,86.8281 722.3393,85.6875 Q722.9643,84.5313 724.058,83.9219 Q725.1518,83.2969 726.3861,83.2969 Q727.1205,83.2969 727.7611,83.4688 Q728.4174,83.625 728.9643,83.9844 Z " fill="#000000"/><text fill="#000000" font-family="sans-serif" font-size="14" lengthAdjust="spacing" textLength="94.165" x="742.2428" y="93.8379">ReporteDefeito</text><line style="stroke:#181818;stroke-width:0.5;" x1="703" x2="847.6064" y1="104.1094" y2="104.1094"/><text fill="#000000" font-family="sans-serif" font-size="14" lengthAdjust="spacing" textLength="42.0137" x="708" y="122.6426">-id : int</text><text fill="#000000" font-family="sans-serif" font-size="14" lengthAdjust="spacing" textLength="112.8203" x="708" y="140.252">-descricao : String</text><text fill="#000000" font-family="sans-serif" font-size="14" lengthAdjust="spacing" textLength="134.6064" x="708" y="157.8613">-dataHora : DateTime</text></g><!--class OrdemServico--><g class="entity" data-qualified-name="OrdemServico" data-source-line="48" id="ent0007"><rect fill="#F1F1F1" height="153.6563" rx="2.5" ry="2.5" style="stroke:#181818;stroke-width:0.5;" width="169.958" x="894.5" y="299.6094"/><ellipse cx="931.3202" cy="315.6094" fill="#ADD1B2" rx="11" ry="11" style="stroke:#181818;stroke-width:1;"/><path d="M934.0858,311.4844 Q934.242,311.2656 934.4295,311.1563 Q934.617,311.0469 934.8358,311.0469 Q935.2108,311.0469 935.4452,311.3125 Q935.6795,311.5625 935.6795,312.1719 L935.6795,313.625 Q935.6795,314.2344 935.4452,314.5 Q935.2108,314.7656 934.8358,314.7656 Q934.492,314.7656 934.2889,314.5625 Q934.0858,314.375 933.9764,313.8594 Q933.9295,313.5 933.742,313.3125 Q933.4139,312.9375 932.8045,312.7188 Q932.1952,312.5 931.5702,312.5 Q930.8045,312.5 930.1639,312.8281 Q929.5389,313.1563 929.0389,313.9063 Q928.5545,314.6563 928.5545,315.6875 L928.5545,316.7813 Q928.5545,318.0156 929.4452,318.8438 Q930.3358,319.6563 931.9295,319.6563 Q932.867,319.6563 933.5233,319.4063 Q933.9139,319.25 934.3358,318.8125 Q934.6014,318.5469 934.742,318.4688 Q934.8983,318.3906 935.1014,318.3906 Q935.4295,318.3906 935.6795,318.6563 Q935.9452,318.9063 935.9452,319.25 Q935.9452,319.5938 935.6014,320 Q935.1014,320.5781 934.3045,320.9063 Q933.2264,321.3594 931.9295,321.3594 Q930.4139,321.3594 929.2108,320.7344 Q928.2264,320.2344 927.5389,319.1719 Q926.8514,318.0938 926.8514,316.8125 L926.8514,315.6563 Q926.8514,314.3281 927.4608,313.1875 Q928.0858,312.0313 929.1795,311.4219 Q930.2733,310.7969 931.5077,310.7969 Q932.242,310.7969 932.8827,310.9688 Q933.5389,311.125 934.0858,311.4844 Z " fill="#000000"/><text fill="#000000" font-family="sans-serif" font-size="14" lengthAdjust="spacing" textLength="89.4688" x="950.1691" y="321.3379">OrdemServico</text><line style="stroke:#181818;stroke-width:0.5;" x1="895.5" x2="1063.458" y1="331.6094" y2="331.6094"/><text fill="#000000" font-family="sans-serif" font-size="14" lengthAdjust="spacing" textLength="42.0137" x="900.5" y="350.1426">-id : int</text><text fill="#000000" font-family="sans-serif" font-size="14" lengthAdjust="spacing" textLength="157.958" x="900.5" y="367.752">-dataAbertura : DateTime</text><text fill="#000000" font-family="sans-serif" font-size="14" lengthAdjust="spacing" textLength="155.6064" x="900.5" y="385.3613">-tipo : TipoOrdemServico</text><text fill="#000000" font-family="sans-serif" font-size="14" lengthAdjust="spacing" textLength="94.1377" x="900.5" y="402.9707">-motivo : String</text><text fill="#000000" font-family="sans-serif" font-size="14" lengthAdjust="spacing" textLength="136.1582" x="900.5" y="420.5801">-status : StatusOrdem</text><line style="stroke:#181818;stroke-width:0.5;" x1="895.5" x2="1063.458" y1="427.6563" y2="427.6563"/><text fill="#000000" font-family="sans-serif" font-size="14" lengthAdjust="spacing" textLength="103.0928" x="900.5" y="446.1895">+concluir() : void</text></g><!--class EquipeOperacional--><g class="entity" data-qualified-name="EquipeOperacional" data-source-line="56" id="ent0008"><rect fill="#F1F1F1" height="118.4375" rx="2.5" ry="2.5" style="stroke:#181818;stroke-width:0.5;" width="304.9199" x="904" y="59.6094"/><ellipse cx="992.6689" cy="75.6094" fill="#ADD1B2" rx="11" ry="11" style="stroke:#181818;stroke-width:1;"/><path d="M995.4346,71.4844 Q995.5908,71.2656 995.7783,71.1563 Q995.9658,71.0469 996.1846,71.0469 Q996.5596,71.0469 996.7939,71.3125 Q997.0283,71.5625 997.0283,72.1719 L997.0283,73.625 Q997.0283,74.2344 996.7939,74.5 Q996.5596,74.7656 996.1846,74.7656 Q995.8408,74.7656 995.6377,74.5625 Q995.4346,74.375 995.3252,73.8594 Q995.2783,73.5 995.0908,73.3125 Q994.7627,72.9375 994.1533,72.7188 Q993.5439,72.5 992.9189,72.5 Q992.1533,72.5 991.5127,72.8281 Q990.8877,73.1563 990.3877,73.9063 Q989.9033,74.6563 989.9033,75.6875 L989.9033,76.7813 Q989.9033,78.0156 990.7939,78.8438 Q991.6846,79.6563 993.2783,79.6563 Q994.2158,79.6563 994.8721,79.4063 Q995.2627,79.25 995.6846,78.8125 Q995.9502,78.5469 996.0908,78.4688 Q996.2471,78.3906 996.4502,78.3906 Q996.7783,78.3906 997.0283,78.6563 Q997.2939,78.9063 997.2939,79.25 Q997.2939,79.5938 996.9502,80 Q996.4502,80.5781 995.6533,80.9063 Q994.5752,81.3594 993.2783,81.3594 Q991.7627,81.3594 990.5596,80.7344 Q989.5752,80.2344 988.8877,79.1719 Q988.2002,78.0938 988.2002,76.8125 L988.2002,75.6563 Q988.2002,74.3281 988.8096,73.1875 Q989.4346,72.0313 990.5283,71.4219 Q991.6221,70.7969 992.8564,70.7969 Q993.5908,70.7969 994.2314,70.9688 Q994.8877,71.125 995.4346,71.4844 Z " fill="#000000"/><text fill="#000000" font-family="sans-serif" font-size="14" lengthAdjust="spacing" textLength="119.082" x="1013.1689" y="81.3379">EquipeOperacional</text><line style="stroke:#181818;stroke-width:0.5;" x1="905" x2="1207.9199" y1="91.6094" y2="91.6094"/><text fill="#000000" font-family="sans-serif" font-size="14" lengthAdjust="spacing" textLength="42.0137" x="910" y="110.1426">-id : int</text><text fill="#000000" font-family="sans-serif" font-size="14" lengthAdjust="spacing" textLength="87.9238" x="910" y="127.752">-nome : String</text><line style="stroke:#181818;stroke-width:0.5;" x1="905" x2="1207.9199" y1="134.8281" y2="134.8281"/><text fill="#000000" font-family="sans-serif" font-size="14" lengthAdjust="spacing" textLength="146.6582" x="910" y="153.3613">+monitorarFrota() : void</text><text fill="#000000" font-family="sans-serif" font-size="14" lengthAdjust="spacing" textLength="292.9199" x="910" y="170.9707">+tratarOrdemServico(os : OrdemServico) : void</text></g><!--class Administrador--><g class="entity" data-qualified-name="Administrador" data-source-line="62" id="ent0009"><rect fill="#F1F1F1" height="153.6563" rx="2.5" ry="2.5" style="stroke:#181818;stroke-width:0.5;" width="303.4092" x="1166" y="299.6094"/><ellipse cx="1270.272" cy="315.6094" fill="#ADD1B2" rx="11" ry="11" style="stroke:#181818;stroke-width:1;"/><path d="M1273.0376,311.4844 Q1273.1938,311.2656 1273.3813,311.1563 Q1273.5688,311.0469 1273.7876,311.0469 Q1274.1626,311.0469 1274.397,311.3125 Q1274.6313,311.5625 1274.6313,312.1719 L1274.6313,313.625 Q1274.6313,314.2344 1274.397,314.5 Q1274.1626,314.7656 1273.7876,314.7656 Q1273.4438,314.7656 1273.2407,314.5625 Q1273.0376,314.375 1272.9282,313.8594 Q1272.8813,313.5 1272.6938,313.3125 Q1272.3657,312.9375 1271.7563,312.7188 Q1271.147,312.5 1270.522,312.5 Q1269.7563,312.5 1269.1157,312.8281 Q1268.4907,313.1563 1267.9907,313.9063 Q1267.5063,314.6563 1267.5063,315.6875 L1267.5063,316.7813 Q1267.5063,318.0156 1268.397,318.8438 Q1269.2876,319.6563 1270.8813,319.6563 Q1271.8188,319.6563 1272.4751,319.4063 Q1272.8657,319.25 1273.2876,318.8125 Q1273.5532,318.5469 1273.6938,318.4688 Q1273.8501,318.3906 1274.0532,318.3906 Q1274.3813,318.3906 1274.6313,318.6563 Q1274.897,318.9063 1274.897,319.25 Q1274.897,319.5938 1274.5532,320 Q1274.0532,320.5781 1273.2563,320.9063 Q1272.1782,321.3594 1270.8813,321.3594 Q1269.3657,321.3594 1268.1626,320.7344 Q1267.1782,320.2344 1266.4907,319.1719 Q1265.8032,318.0938 1265.8032,316.8125 L1265.8032,315.6563 Q1265.8032,314.3281 1266.4126,313.1875 Q1267.0376,312.0313 1268.1313,311.4219 Q1269.2251,310.7969 1270.4595,310.7969 Q1271.1938,310.7969 1271.8345,310.9688 Q1272.4907,311.125 1273.0376,311.4844 Z " fill="#000000"/><text fill="#000000" font-family="sans-serif" font-size="14" lengthAdjust="spacing" textLength="86.3652" x="1290.772" y="321.3379">Administrador</text><line style="stroke:#181818;stroke-width:0.5;" x1="1167" x2="1468.4092" y1="331.6094" y2="331.6094"/><text fill="#000000" font-family="sans-serif" font-size="14" lengthAdjust="spacing" textLength="42.0137" x="1172" y="350.1426">-id : int</text><text fill="#000000" font-family="sans-serif" font-size="14" lengthAdjust="spacing" textLength="87.9238" x="1172" y="367.752">-nome : String</text><line style="stroke:#181818;stroke-width:0.5;" x1="1167" x2="1468.4092" y1="374.8281" y2="374.8281"/><text fill="#000000" font-family="sans-serif" font-size="14" lengthAdjust="spacing" textLength="145.8926" x="1172" y="393.3613">+gerenciarFrota() : void</text><text fill="#000000" font-family="sans-serif" font-size="14" lengthAdjust="spacing" textLength="200.3477" x="1172" y="410.9707">+gerenciarTarifa(t : Tarifa) : void</text><text fill="#000000" font-family="sans-serif" font-size="14" lengthAdjust="spacing" textLength="195.7061" x="1172" y="428.5801">+gerenciarZona(z : Zona) : void</text><text fill="#000000" font-family="sans-serif" font-size="14" lengthAdjust="spacing" textLength="291.4092" x="1172" y="446.1895">+gerarRelatorio(tipo : TipoRelatorio) : Relatorio</text></g><!--class Relatorio--><g class="entity" data-qualified-name="Relatorio" data-source-line="70" id="ent0010"><rect fill="#F1F1F1" height="118.4375" rx="2.5" ry="2.5" style="stroke:#181818;stroke-width:0.5;" width="169.958" x="1278.5" y="614.6094"/><ellipse cx="1331.2153" cy="630.6094" fill="#ADD1B2" rx="11" ry="11" style="stroke:#181818;stroke-width:1;"/><path d="M1333.981,626.4844 Q1334.1372,626.2656 1334.3247,626.1563 Q1334.5122,626.0469 1334.731,626.0469 Q1335.106,626.0469 1335.3403,626.3125 Q1335.5747,626.5625 1335.5747,627.1719 L1335.5747,628.625 Q1335.5747,629.2344 1335.3403,629.5 Q1335.106,629.7656 1334.731,629.7656 Q1334.3872,629.7656 1334.1841,629.5625 Q1333.981,629.375 1333.8716,628.8594 Q1333.8247,628.5 1333.6372,628.3125 Q1333.3091,627.9375 1332.6997,627.7188 Q1332.0903,627.5 1331.4653,627.5 Q1330.6997,627.5 1330.0591,627.8281 Q1329.4341,628.1563 1328.9341,628.9063 Q1328.4497,629.6563 1328.4497,630.6875 L1328.4497,631.7813 Q1328.4497,633.0156 1329.3403,633.8438 Q1330.231,634.6563 1331.8247,634.6563 Q1332.7622,634.6563 1333.4185,634.4063 Q1333.8091,634.25 1334.231,633.8125 Q1334.4966,633.5469 1334.6372,633.4688 Q1334.7935,633.3906 1334.9966,633.3906 Q1335.3247,633.3906 1335.5747,633.6563 Q1335.8403,633.9063 1335.8403,634.25 Q1335.8403,634.5938 1335.4966,635 Q1334.9966,635.5781 1334.1997,635.9063 Q1333.1216,636.3594 1331.8247,636.3594 Q1330.3091,636.3594 1329.106,635.7344 Q1328.1216,635.2344 1327.4341,634.1719 Q1326.7466,633.0938 1326.7466,631.8125 L1326.7466,630.6563 Q1326.7466,629.3281 1327.356,628.1875 Q1327.981,627.0313 1329.0747,626.4219 Q1330.1685,625.7969 1331.4028,625.7969 Q1332.1372,625.7969 1332.7778,625.9688 Q1333.4341,626.125 1333.981,626.4844 Z " fill="#000000"/><text fill="#000000" font-family="sans-serif" font-size="14" lengthAdjust="spacing" textLength="56.0273" x="1351.7153" y="636.3379">Relatorio</text><line style="stroke:#181818;stroke-width:0.5;" x1="1279.5" x2="1447.458" y1="646.6094" y2="646.6094"/><text fill="#000000" font-family="sans-serif" font-size="14" lengthAdjust="spacing" textLength="122.165" x="1284.5" y="665.1426">-tipo : TipoRelatorio</text><text fill="#000000" font-family="sans-serif" font-size="14" lengthAdjust="spacing" textLength="157.958" x="1284.5" y="682.752">-dataGeracao : DateTime</text><text fill="#000000" font-family="sans-serif" font-size="14" lengthAdjust="spacing" textLength="99.6064" x="1284.5" y="700.3613">-periodo : String</text><line style="stroke:#181818;stroke-width:0.5;" x1="1279.5" x2="1447.458" y1="707.4375" y2="707.4375"/><text fill="#000000" font-family="sans-serif" font-size="14" lengthAdjust="spacing" textLength="87.5342" x="1284.5" y="725.9707">+gerar() : void</text></g><!--class EstadoVeiculo--><g class="entity" data-qualified-name="EstadoVeiculo" data-source-line="77" id="ent0011"><rect fill="#F1F1F1" height="145.6563" rx="2.5" ry="2.5" style="stroke:#181818;stroke-width:0.5;" width="135.6895" x="13.5" y="45.6094"/><ellipse cx="34.8839" cy="61.6094" fill="#EB937F" rx="11" ry="11" style="stroke:#181818;stroke-width:1;"/><path d="M33.7433,62.4063 L33.7433,64.9063 L38.0714,64.9063 L38.0714,63.9844 Q38.0714,63.375 38.3058,63.1094 Q38.5558,62.8438 38.9308,62.8438 Q39.3058,62.8438 39.5402,63.1094 Q39.7746,63.375 39.7746,63.9844 L39.7746,66.6094 L31.7746,66.6094 Q31.1496,66.6094 30.8839,66.375 Q30.6339,66.1406 30.6339,65.75 Q30.6339,65.375 30.8996,65.1406 Q31.1652,64.9063 31.7746,64.9063 L32.0402,64.9063 L32.0402,58.25 L31.7746,58.25 Q31.1496,58.25 30.8839,58.0156 Q30.6339,57.7813 30.6339,57.3906 Q30.6339,57.0156 30.8839,56.7813 Q31.1496,56.5469 31.7746,56.5469 L39.3996,56.5469 L39.3996,59.1406 Q39.3996,59.75 39.1652,60.0156 Q38.9464,60.2656 38.5558,60.2656 Q38.1808,60.2656 37.9464,60.0156 Q37.7121,59.75 37.7121,59.1406 L37.7121,58.25 L33.7433,58.25 L33.7433,60.7031 L35.2277,60.7031 Q35.2277,60.0469 35.3527,59.8594 Q35.6183,59.4531 36.0871,59.4531 Q36.4621,59.4531 36.6964,59.7188 Q36.9308,59.9688 36.9308,60.5781 L36.9308,62.5469 Q36.9308,63.0938 36.8058,63.2813 Q36.5402,63.6719 36.0871,63.6719 Q35.6183,63.6719 35.3527,63.2656 Q35.2277,63.0781 35.2277,62.4063 L33.7433,62.4063 Z " fill="#000000"/><text fill="#000000" font-family="sans-serif" font-size="14" lengthAdjust="spacing" textLength="89.5029" x="50.3026" y="67.3379">EstadoVeiculo</text><line style="stroke:#181818;stroke-width:0.5;" x1="14.5" x2="148.1895" y1="77.6094" y2="77.6094"/><text fill="#000000" font-family="sans-serif" font-size="14" lengthAdjust="spacing" textLength="84.0273" x="19.5" y="96.1426">DISPONIVEL</text><text fill="#000000" font-family="sans-serif" font-size="14" lengthAdjust="spacing" textLength="87.9102" x="19.5" y="113.752">RESERVADO</text><text fill="#000000" font-family="sans-serif" font-size="14" lengthAdjust="spacing" textLength="59.124" x="19.5" y="131.3613">EM_USO</text><text fill="#000000" font-family="sans-serif" font-size="14" lengthAdjust="spacing" textLength="99.5586" x="19.5" y="148.9707">MANUTENCAO</text><text fill="#000000" font-family="sans-serif" font-size="14" lengthAdjust="spacing" textLength="123.6895" x="19.5" y="166.5801">BATERIA_CRITICA</text><text fill="#000000" font-family="sans-serif" font-size="14" lengthAdjust="spacing" textLength="83.2344" x="19.5" y="184.1895">RECOLHIDO</text></g><!--class TipoVeiculo--><g class="entity" data-qualified-name="TipoVeiculo" data-source-line="85" id="ent0012"><rect fill="#F1F1F1" height="75.2188" rx="2.5" ry="2.5" style="stroke:#181818;stroke-width:0.5;" width="158.2549" x="204.5" y="81.1094"/><ellipse cx="243.3966" cy="97.1094" fill="#EB937F" rx="11" ry="11" style="stroke:#181818;stroke-width:1;"/><path d="M242.256,97.9063 L242.256,100.4063 L246.5841,100.4063 L246.5841,99.4844 Q246.5841,98.875 246.8185,98.6094 Q247.0685,98.3438 247.4435,98.3438 Q247.8185,98.3438 248.0528,98.6094 Q248.2872,98.875 248.2872,99.4844 L248.2872,102.1094 L240.2872,102.1094 Q239.6622,102.1094 239.3966,101.875 Q239.1466,101.6406 239.1466,101.25 Q239.1466,100.875 239.4122,100.6406 Q239.6778,100.4063 240.2872,100.4063 L240.5528,100.4063 L240.5528,93.75 L240.2872,93.75 Q239.6622,93.75 239.3966,93.5156 Q239.1466,93.2813 239.1466,92.8906 Q239.1466,92.5156 239.3966,92.2813 Q239.6622,92.0469 240.2872,92.0469 L247.9122,92.0469 L247.9122,94.6406 Q247.9122,95.25 247.6778,95.5156 Q247.4591,95.7656 247.0685,95.7656 Q246.6935,95.7656 246.4591,95.5156 Q246.2247,95.25 246.2247,94.6406 L246.2247,93.75 L242.256,93.75 L242.256,96.2031 L243.7403,96.2031 Q243.7403,95.5469 243.8653,95.3594 Q244.131,94.9531 244.5997,94.9531 Q244.9747,94.9531 245.2091,95.2188 Q245.4435,95.4688 245.4435,96.0781 L245.4435,98.0469 Q245.4435,98.5938 245.3185,98.7813 Q245.0528,99.1719 244.5997,99.1719 Q244.131,99.1719 243.8653,98.7656 Q243.7403,98.5781 243.7403,97.9063 L242.256,97.9063 Z " fill="#000000"/><text fill="#000000" font-family="sans-serif" font-size="14" lengthAdjust="spacing" textLength="73.1514" x="262.7069" y="102.8379">TipoVeiculo</text><line style="stroke:#181818;stroke-width:0.5;" x1="205.5" x2="361.7549" y1="113.1094" y2="113.1094"/><text fill="#000000" font-family="sans-serif" font-size="14" lengthAdjust="spacing" textLength="72.3516" x="210.5" y="131.6426">BICICLETA</text><text fill="#000000" font-family="sans-serif" font-size="14" lengthAdjust="spacing" textLength="146.2549" x="210.5" y="149.252">PATINETE_ELETRICO</text></g><!--class TipoZona--><g class="entity" data-qualified-name="TipoZona" data-source-line="89" id="ent0013"><rect fill="#F1F1F1" height="110.4375" rx="2.5" ry="2.5" style="stroke:#181818;stroke-width:0.5;" width="229.0205" x="418" y="63.6094"/><ellipse cx="498.688" cy="79.6094" fill="#EB937F" rx="11" ry="11" style="stroke:#181818;stroke-width:1;"/><path d="M497.5474,80.4063 L497.5474,82.9063 L501.8755,82.9063 L501.8755,81.9844 Q501.8755,81.375 502.1099,81.1094 Q502.3599,80.8438 502.7349,80.8438 Q503.1099,80.8438 503.3442,81.1094 Q503.5786,81.375 503.5786,81.9844 L503.5786,84.6094 L495.5786,84.6094 Q494.9536,84.6094 494.688,84.375 Q494.438,84.1406 494.438,83.75 Q494.438,83.375 494.7036,83.1406 Q494.9692,82.9063 495.5786,82.9063 L495.8442,82.9063 L495.8442,76.25 L495.5786,76.25 Q494.9536,76.25 494.688,76.0156 Q494.438,75.7813 494.438,75.3906 Q494.438,75.0156 494.688,74.7813 Q494.9536,74.5469 495.5786,74.5469 L503.2036,74.5469 L503.2036,77.1406 Q503.2036,77.75 502.9692,78.0156 Q502.7505,78.2656 502.3599,78.2656 Q501.9849,78.2656 501.7505,78.0156 Q501.5161,77.75 501.5161,77.1406 L501.5161,76.25 L497.5474,76.25 L497.5474,78.7031 L499.0317,78.7031 Q499.0317,78.0469 499.1567,77.8594 Q499.4224,77.4531 499.8911,77.4531 Q500.2661,77.4531 500.5005,77.7188 Q500.7349,77.9688 500.7349,78.5781 L500.7349,80.5469 Q500.7349,81.0938 500.6099,81.2813 Q500.3442,81.6719 499.8911,81.6719 Q499.4224,81.6719 499.1567,81.2656 Q499.0317,81.0781 499.0317,80.4063 L497.5474,80.4063 Z " fill="#000000"/><text fill="#000000" font-family="sans-serif" font-size="14" lengthAdjust="spacing" textLength="59.1445" x="519.188" y="85.3379">TipoZona</text><line style="stroke:#181818;stroke-width:0.5;" x1="419" x2="646.0205" y1="95.6094" y2="95.6094"/><text fill="#000000" font-family="sans-serif" font-size="14" lengthAdjust="spacing" textLength="217.0205" x="424" y="114.1426">ESTACIONAMENTO_PERMITIDO</text><text fill="#000000" font-family="sans-serif" font-size="14" lengthAdjust="spacing" textLength="112.8135" x="424" y="131.752">AREA_PROIBIDA</text><text fill="#000000" font-family="sans-serif" font-size="14" lengthAdjust="spacing" textLength="112.8066" x="424" y="149.3613">ALTA_DEMANDA</text><text fill="#000000" font-family="sans-serif" font-size="14" lengthAdjust="spacing" textLength="169.5928" x="424" y="166.9707">VELOCIDADE_REDUZIDA</text></g><!--class TipoOrdemServico--><g class="entity" data-qualified-name="TipoOrdemServico" data-source-line="95" id="ent0014"><rect fill="#F1F1F1" height="75.2188" rx="2.5" ry="2.5" style="stroke:#181818;stroke-width:0.5;" width="148.7031" x="7" y="339.1094"/><ellipse cx="22" cy="355.1094" fill="#EB937F" rx="11" ry="11" style="stroke:#181818;stroke-width:1;"/><path d="M20.8594,355.9063 L20.8594,358.4063 L25.1875,358.4063 L25.1875,357.4844 Q25.1875,356.875 25.4219,356.6094 Q25.6719,356.3438 26.0469,356.3438 Q26.4219,356.3438 26.6563,356.6094 Q26.8906,356.875 26.8906,357.4844 L26.8906,360.1094 L18.8906,360.1094 Q18.2656,360.1094 18,359.875 Q17.75,359.6406 17.75,359.25 Q17.75,358.875 18.0156,358.6406 Q18.2813,358.4063 18.8906,358.4063 L19.1563,358.4063 L19.1563,351.75 L18.8906,351.75 Q18.2656,351.75 18,351.5156 Q17.75,351.2813 17.75,350.8906 Q17.75,350.5156 18,350.2813 Q18.2656,350.0469 18.8906,350.0469 L26.5156,350.0469 L26.5156,352.6406 Q26.5156,353.25 26.2813,353.5156 Q26.0625,353.7656 25.6719,353.7656 Q25.2969,353.7656 25.0625,353.5156 Q24.8281,353.25 24.8281,352.6406 L24.8281,351.75 L20.8594,351.75 L20.8594,354.2031 L22.3438,354.2031 Q22.3438,353.5469 22.4688,353.3594 Q22.7344,352.9531 23.2031,352.9531 Q23.5781,352.9531 23.8125,353.2188 Q24.0469,353.4688 24.0469,354.0781 L24.0469,356.0469 Q24.0469,356.5938 23.9219,356.7813 Q23.6563,357.1719 23.2031,357.1719 Q22.7344,357.1719 22.4688,356.7656 Q22.3438,356.5781 22.3438,355.9063 L20.8594,355.9063 Z " fill="#000000"/><text fill="#000000" font-family="sans-serif" font-size="14" lengthAdjust="spacing" textLength="116.7031" x="36" y="360.8379">TipoOrdemServico</text><line style="stroke:#181818;stroke-width:0.5;" x1="8" x2="154.7031" y1="371.1094" y2="371.1094"/><text fill="#000000" font-family="sans-serif" font-size="14" lengthAdjust="spacing" textLength="112.7861" x="13" y="389.6426">RECOLHIMENTO</text><text fill="#000000" font-family="sans-serif" font-size="14" lengthAdjust="spacing" textLength="99.5586" x="13" y="407.252">MANUTENCAO</text></g><!--class StatusOrdem--><g class="entity" data-qualified-name="StatusOrdem" data-source-line="99" id="ent0015"><rect fill="#F1F1F1" height="92.8281" rx="2.5" ry="2.5" style="stroke:#181818;stroke-width:0.5;" width="130.2344" x="211.5" y="330.1094"/><ellipse cx="233.5915" cy="346.1094" fill="#EB937F" rx="11" ry="11" style="stroke:#181818;stroke-width:1;"/><path d="M232.4508,346.9063 L232.4508,349.4063 L236.779,349.4063 L236.779,348.4844 Q236.779,347.875 237.0133,347.6094 Q237.2633,347.3438 237.6383,347.3438 Q238.0133,347.3438 238.2477,347.6094 Q238.4821,347.875 238.4821,348.4844 L238.4821,351.1094 L230.4821,351.1094 Q229.8571,351.1094 229.5915,350.875 Q229.3415,350.6406 229.3415,350.25 Q229.3415,349.875 229.6071,349.6406 Q229.8727,349.4063 230.4821,349.4063 L230.7477,349.4063 L230.7477,342.75 L230.4821,342.75 Q229.8571,342.75 229.5915,342.5156 Q229.3415,342.2813 229.3415,341.8906 Q229.3415,341.5156 229.5915,341.2813 Q229.8571,341.0469 230.4821,341.0469 L238.1071,341.0469 L238.1071,343.6406 Q238.1071,344.25 237.8727,344.5156 Q237.654,344.7656 237.2633,344.7656 Q236.8883,344.7656 236.654,344.5156 Q236.4196,344.25 236.4196,343.6406 L236.4196,342.75 L232.4508,342.75 L232.4508,345.2031 L233.9352,345.2031 Q233.9352,344.5469 234.0602,344.3594 Q234.3258,343.9531 234.7946,343.9531 Q235.1696,343.9531 235.404,344.2188 Q235.6383,344.4688 235.6383,345.0781 L235.6383,347.0469 Q235.6383,347.5938 235.5133,347.7813 Q235.2477,348.1719 234.7946,348.1719 Q234.3258,348.1719 234.0602,347.7656 Q233.9352,347.5781 233.9352,346.9063 L232.4508,346.9063 Z " fill="#000000"/><text fill="#000000" font-family="sans-serif" font-size="14" lengthAdjust="spacing" textLength="82.4756" x="249.1673" y="351.8379">StatusOrdem</text><line style="stroke:#181818;stroke-width:0.5;" x1="212.5" x2="340.7344" y1="362.1094" y2="362.1094"/><text fill="#000000" font-family="sans-serif" font-size="14" lengthAdjust="spacing" textLength="56.0137" x="217.5" y="380.6426">ABERTA</text><text fill="#000000" font-family="sans-serif" font-size="14" lengthAdjust="spacing" textLength="118.2344" x="217.5" y="398.252">EM_ANDAMENTO</text><text fill="#000000" font-family="sans-serif" font-size="14" lengthAdjust="spacing" textLength="82.4551" x="217.5" y="415.8613">CONCLUIDA</text></g><!--class TipoRelatorio--><g class="entity" data-qualified-name="TipoRelatorio" data-source-line="104" id="ent0016"><rect fill="#F1F1F1" height="92.8281" rx="2.5" ry="2.5" style="stroke:#181818;stroke-width:0.5;" width="194.8203" x="397" y="330.1094"/><ellipse cx="448.5293" cy="346.1094" fill="#EB937F" rx="11" ry="11" style="stroke:#181818;stroke-width:1;"/><path d="M447.3887,346.9063 L447.3887,349.4063 L451.7168,349.4063 L451.7168,348.4844 Q451.7168,347.875 451.9512,347.6094 Q452.2012,347.3438 452.5762,347.3438 Q452.9512,347.3438 453.1855,347.6094 Q453.4199,347.875 453.4199,348.4844 L453.4199,351.1094 L445.4199,351.1094 Q444.7949,351.1094 444.5293,350.875 Q444.2793,350.6406 444.2793,350.25 Q444.2793,349.875 444.5449,349.6406 Q444.8105,349.4063 445.4199,349.4063 L445.6855,349.4063 L445.6855,342.75 L445.4199,342.75 Q444.7949,342.75 444.5293,342.5156 Q444.2793,342.2813 444.2793,341.8906 Q444.2793,341.5156 444.5293,341.2813 Q444.7949,341.0469 445.4199,341.0469 L453.0449,341.0469 L453.0449,343.6406 Q453.0449,344.25 452.8105,344.5156 Q452.5918,344.7656 452.2012,344.7656 Q451.8262,344.7656 451.5918,344.5156 Q451.3574,344.25 451.3574,343.6406 L451.3574,342.75 L447.3887,342.75 L447.3887,345.2031 L448.873,345.2031 Q448.873,344.5469 448.998,344.3594 Q449.2637,343.9531 449.7324,343.9531 Q450.1074,343.9531 450.3418,344.2188 Q450.5762,344.4688 450.5762,345.0781 L450.5762,347.0469 Q450.5762,347.5938 450.4512,347.7813 Q450.1855,348.1719 449.7324,348.1719 Q449.2637,348.1719 448.998,347.7656 Q448.873,347.5781 448.873,346.9063 L447.3887,346.9063 Z " fill="#000000"/><text fill="#000000" font-family="sans-serif" font-size="14" lengthAdjust="spacing" textLength="83.2617" x="469.0293" y="351.8379">TipoRelatorio</text><line style="stroke:#181818;stroke-width:0.5;" x1="398" x2="590.8203" y1="362.1094" y2="362.1094"/><text fill="#000000" font-family="sans-serif" font-size="14" lengthAdjust="spacing" textLength="182.8203" x="403" y="380.6426">UTILIZACAO_POR_REGIAO</text><text fill="#000000" font-family="sans-serif" font-size="14" lengthAdjust="spacing" textLength="162.5654" x="403" y="398.252">FATURAMENTO_DIARIO</text><text fill="#000000" font-family="sans-serif" font-size="14" lengthAdjust="spacing" textLength="178.165" x="403" y="415.8613">ALERTAS_OPERACIONAIS</text></g><!--link Veiculo to ModeloVeiculo--><g class="link" data-entity-1="ent0001" data-entity-2="ent0002" data-link-type="dependency" data-source-line="110" id="lnk17"><path codeLine="110" d="M708.06,785.8694 C700.89,800.3994 694.74,815.4994 690.5,830.6094 C684.86,850.6994 684.4703,868.4897 686.6903,888.5597" fill="none" id="Veiculo-to-ModeloVeiculo" style="stroke:#181818;stroke-width:1;"/><polygon fill="#181818" points="687.24,893.5294,690.2263,884.1442,686.6903,888.5597,682.2748,885.0237,687.24,893.5294" style="stroke:#181818;stroke-width:1;stroke-linejoin:miter;stroke-miterlimit:10;"/><text fill="#000000" font-family="sans-serif" font-size="13" lengthAdjust="spacing" textLength="25.3018" x="691.5" y="845.1045">e do</text><text fill="#000000" font-family="sans-serif" font-size="13" lengthAdjust="spacing" textLength="5.0591" x="697.9418" y="807.0769">*</text><text fill="#000000" font-family="sans-serif" font-size="13" lengthAdjust="spacing" textLength="7.23" x="678.3504" y="882.9369">1</text></g><!--link Veiculo to Municipio--><g class="link" data-entity-1="ent0001" data-entity-2="ent0004" data-link-type="dependency" data-source-line="111" id="lnk18"><path codeLine="111" d="M762.15,785.8494 C762.47,807.7494 766.6,829.7594 777.5,848.6094 C791.13,872.1694 848.9135,902.2569 894.6335,923.4469" fill="none" id="Veiculo-to-Municipio" style="stroke:#181818;stroke-width:1;"/><polygon fill="#181818" points="899.17,925.5494,892.6864,918.1357,894.6335,923.4469,889.3224,925.394,899.17,925.5494" style="stroke:#181818;stroke-width:1;stroke-linejoin:miter;stroke-miterlimit:10;"/><text fill="#000000" font-family="sans-serif" font-size="13" lengthAdjust="spacing" textLength="54.9199" x="778.5" y="845.1045">opera em</text><text fill="#000000" font-family="sans-serif" font-size="13" lengthAdjust="spacing" textLength="5.0591" x="755.4969" y="807.0556">*</text><text fill="#000000" font-family="sans-serif" font-size="13" lengthAdjust="spacing" textLength="7.23" x="884.2862" y="918.521">1</text></g><!--reverse link Veiculo to Localizacao--><g class="link" data-entity-1="ent0001" data-entity-2="ent0003" data-link-type="composition" data-source-line="112" id="lnk19"><path codeLine="112" d="M864.9144,795.2953 C883.1944,818.0553 896.69,831.0394 919.5,848.6094 C960.37,880.0894 979.4,872.5594 1026.5,893.6094 C1042.9,900.9394 1060.48,909.1094 1076.82,916.8394" fill="none" id="Veiculo-backto-Localizacao" style="stroke:#181818;stroke-width:1;"/><polygon fill="#181818" points="857.4,785.9394,858.0385,793.1222,864.9144,795.2953,864.2758,788.1126,857.4,785.9394" style="stroke:#181818;stroke-width:1;stroke-linejoin:miter;stroke-miterlimit:10;"/><text fill="#000000" font-family="sans-serif" font-size="13" lengthAdjust="spacing" textLength="76.6099" x="920.5" y="845.1045">posicao atual</text><text fill="#000000" font-family="sans-serif" font-size="13" lengthAdjust="spacing" textLength="7.23" x="854.7903" y="807.1514">1</text><text fill="#000000" font-family="sans-serif" font-size="13" lengthAdjust="spacing" textLength="7.23" x="1061.6343" y="909.5137">1</text></g><!--link Zona to Municipio--><g class="link" data-entity-1="ent0005" data-entity-2="ent0004" data-link-type="dependency" data-source-line="113" id="lnk20"><path codeLine="113" d="M1069.4,741.7394 C1040.44,791.4694 1004.2465,853.6188 978.7465,897.3988" fill="none" id="Zona-to-Municipio" style="stroke:#181818;stroke-width:1;"/><polygon fill="#181818" points="976.23,901.7194,984.2162,895.9556,978.7465,897.3988,977.3033,891.9292,976.23,901.7194" style="stroke:#181818;stroke-width:1;stroke-linejoin:miter;stroke-miterlimit:10;"/><text fill="#000000" font-family="sans-serif" font-size="13" lengthAdjust="spacing" textLength="61.4326" x="1016.5" y="845.1045">pertence a</text><text fill="#000000" font-family="sans-serif" font-size="13" lengthAdjust="spacing" textLength="5.0591" x="1060.0976" y="763.1011">*</text><text fill="#000000" font-family="sans-serif" font-size="13" lengthAdjust="spacing" textLength="7.23" x="972.6644" y="891.191">1</text></g><!--reverse link Zona to Localizacao--><g class="link" data-entity-1="ent0005" data-entity-2="ent0003" data-link-type="composition" data-source-line="114" id="lnk21"><path codeLine="114" d="M1117.7657,753.6579 C1123.7557,804.8079 1130.44,861.7494 1135.55,905.4094" fill="none" id="Zona-backto-Localizacao" style="stroke:#181818;stroke-width:1;"/><polygon fill="#181818" points="1116.37,741.7394,1113.095,748.1639,1117.7657,753.6579,1121.0407,747.2334,1116.37,741.7394" style="stroke:#181818;stroke-width:1;stroke-linejoin:miter;stroke-miterlimit:10;"/><text fill="#000000" font-family="sans-serif" font-size="13" lengthAdjust="spacing" textLength="81.6563" x="1128.5" y="845.1045">delimitada por</text><text fill="#000000" font-family="sans-serif" font-size="13" lengthAdjust="spacing" textLength="7.23" x="1109.8171" y="763.1011">1</text><text fill="#000000" font-family="sans-serif" font-size="13" lengthAdjust="spacing" textLength="5.0591" x="1129.3515" y="894.7787">*</text></g><!--link ReporteDefeito to Veiculo--><g class="link" data-entity-1="ent0006" data-entity-2="ent0001" data-link-type="dependency" data-source-line="115" id="lnk22"><path codeLine="115" d="M776.33,165.3294 C777.89,251.5094 781.2098,435.1702 783.3998,556.5502" fill="none" id="ReporteDefeito-to-Veiculo" style="stroke:#181818;stroke-width:1;"/><polygon fill="#181818" points="783.49,561.5494,787.327,552.4787,783.3998,556.5502,779.3283,552.623,783.49,561.5494" style="stroke:#181818;stroke-width:1;stroke-linejoin:miter;stroke-miterlimit:10;"/><text fill="#000000" font-family="sans-serif" font-size="13" lengthAdjust="spacing" textLength="62.8608" x="782.5" y="382.1045">refere-se a</text><text fill="#000000" font-family="sans-serif" font-size="13" lengthAdjust="spacing" textLength="5.0591" x="771.127" y="186.5563">*</text><text fill="#000000" font-family="sans-serif" font-size="13" lengthAdjust="spacing" textLength="7.23" x="776.1118" y="550.6118">1</text></g><!--link OrdemServico to Veiculo--><g class="link" data-entity-1="ent0007" data-entity-2="ent0001" data-link-type="dependency" data-source-line="116" id="lnk23"><path codeLine="116" d="M929.29,453.9594 C907.73,486.7394 884.8668,521.5015 861.2768,557.3815" fill="none" id="OrdemServico-to-Veiculo" style="stroke:#181818;stroke-width:1;"/><polygon fill="#181818" points="858.53,561.5594,866.8166,556.2366,861.2768,557.3815,860.132,551.8417,858.53,561.5594" style="stroke:#181818;stroke-width:1;stroke-linejoin:miter;stroke-miterlimit:10;"/><text fill="#000000" font-family="sans-serif" font-size="13" lengthAdjust="spacing" textLength="78.0571" x="901.5" y="513.1045">direcionada a</text><text fill="#000000" font-family="sans-serif" font-size="13" lengthAdjust="spacing" textLength="5.0591" x="919.7646" y="474.8191">*</text><text fill="#000000" font-family="sans-serif" font-size="13" lengthAdjust="spacing" textLength="7.23" x="856.428" y="550.6225">1</text></g><!--link ReporteDefeito to OrdemServico--><g class="link" data-entity-1="ent0006" data-entity-2="ent0007" data-link-type="dependency" data-source-line="117" id="lnk24"><path codeLine="117" d="M811.97,165.3794 C841.6,202.5494 880.8938,251.8693 915.6338,295.4593" fill="none" id="ReporteDefeito-to-OrdemServico" style="stroke:#181818;stroke-width:1;stroke-dasharray:7,7;"/><polygon fill="#181818" points="918.75,299.3694,916.2688,289.8382,915.6338,295.4593,910.0127,294.8242,918.75,299.3694" style="stroke:#181818;stroke-width:1;stroke-linejoin:miter;stroke-miterlimit:10;"/><text fill="#000000" font-family="sans-serif" font-size="13" lengthAdjust="spacing" textLength="26.019" x="878.5" y="251.1045">gera</text></g><!--link EquipeOperacional to OrdemServico--><g class="link" data-entity-1="ent0008" data-entity-2="ent0007" data-link-type="dependency" data-source-line="118" id="lnk25"><path codeLine="118" d="M1039.03,177.6994 C1028.2,213.6994 1015.6092,255.541 1003.8992,294.501" fill="none" id="EquipeOperacional-to-OrdemServico" style="stroke:#181818;stroke-width:1;"/><polygon fill="#181818" points="1002.46,299.2894,1008.8813,291.8217,1003.8992,294.501,1001.2199,289.5189,1002.46,299.2894" style="stroke:#181818;stroke-width:1;stroke-linejoin:miter;stroke-miterlimit:10;"/><text fill="#000000" font-family="sans-serif" font-size="13" lengthAdjust="spacing" textLength="45.5317" x="1021.5" y="251.1045">executa</text><text fill="#000000" font-family="sans-serif" font-size="13" lengthAdjust="spacing" textLength="7.23" x="1029.4932" y="199.3658">1</text><text fill="#000000" font-family="sans-serif" font-size="13" lengthAdjust="spacing" textLength="5.0591" x="999.4149" y="288.6856">*</text></g><!--link Administrador to Zona--><g class="link" data-entity-1="ent0009" data-entity-2="ent0005" data-link-type="dependency" data-source-line="119" id="lnk26"><path codeLine="119" d="M1263.41,453.9594 C1230.27,500.7394 1191.1207,555.9897 1159.2007,601.0397" fill="none" id="Administrador-to-Zona" style="stroke:#181818;stroke-width:1;stroke-dasharray:7,7;"/><polygon fill="#181818" points="1156.31,605.1194,1164.777,600.0884,1159.2007,601.0397,1158.2494,595.4634,1156.31,605.1194" style="stroke:#181818;stroke-width:1;stroke-linejoin:miter;stroke-miterlimit:10;"/><text fill="#000000" font-family="sans-serif" font-size="13" lengthAdjust="spacing" textLength="49.8672" x="1232.5" y="513.1045">gerencia</text></g><!--link Administrador to Relatorio--><g class="link" data-entity-1="ent0009" data-entity-2="ent0010" data-link-type="dependency" data-source-line="120" id="lnk27"><path codeLine="120" d="M1329.41,453.9594 C1337.21,503.9794 1346.4697,563.4191 1353.6297,609.3391" fill="none" id="Administrador-to-Relatorio" style="stroke:#181818;stroke-width:1;stroke-dasharray:7,7;"/><polygon fill="#181818" points="1354.4,614.2794,1356.9657,604.7706,1353.6297,609.3391,1349.0612,606.0031,1354.4,614.2794" style="stroke:#181818;stroke-width:1;stroke-linejoin:miter;stroke-miterlimit:10;"/><text fill="#000000" font-family="sans-serif" font-size="13" lengthAdjust="spacing" textLength="26.019" x="1339.5" y="513.1045">gera</text></g><g class="legend" data-source-line="122"><rect fill="#DDDDDD" height="80.4375" rx="7.5" ry="7.5" style="stroke:#000000;stroke-width:1;" width="315.7852" x="12" y="1025.0469"/><text fill="#000000" font-family="sans-serif" font-size="14" lengthAdjust="spacing" textLength="305.7852" x="17" y="1044.5801">Relacoes com outros dom&#237;nios (ver Vis&#227;o Geral):</text><text fill="#000000" font-family="sans-serif" font-size="14" lengthAdjust="spacing" textLength="186.3613" x="17" y="1062.1895">Reserva e Viagem --&gt; Veiculo</text><text fill="#000000" font-family="sans-serif" font-size="14" lengthAdjust="spacing" textLength="194.8857" x="17" y="1079.7988">Tarifa --&gt; Municipio (vigora em)</text><text fill="#000000" font-family="sans-serif" font-size="14" lengthAdjust="spacing" textLength="212.8027" x="17" y="1097.4082">Administrador ..&gt; Tarifa (gerencia)</text></g><?plantuml-src bLRDZgD64Bxp5AqvCJFoQdFOGwpLI1ZONIJRE1ZxC1Uh3JNUqWBDDesrcMYbVOYyGGuvvIdcJV8agMvZ39X4anFTrLLVVVNJrIXK6J0F-K7odBCKc9lngeAA_VtZT_P12iKPiB04oL_-VFb3M5Rr1OkIapOhH0eLbEpTkuvGykAB5lxyjgkQQ517AOdxMa6GY6ADpy3UMf-HN49UgbzP3laUP6LPHfbj0PCw4-mtYx49mvHD6HRAR1AHua7y4f5eJP35mKWBF48sumeayeuoL8gdWWI-MJImT7JF9D6NHoxjMpe-2aoDb8BQP-9h3SE3SIbNDS_mcSkLg33XmYxfT2uI8wJzk7B3qpQaJsnxYgM412iUGIAopvX3eOHnknSY0rvOtviiBQW6cVYFN1KYXtwU59Ow7J5zBicOCE8X4anv2Wl-3NE-ugdaea4wk-l4nTw_F_AiXeU7nct65QewrTvIKUypE4b5SHY8M-vrWGcM-4hUzTDbVuPu50N_tr5hez6GMu1xQh52GJvMos458YY5LE314w0Q3OKQAf6wDVgCKgxu9o6rLu-w8QOgjw2XJ25VKtDYCWv9jWxT5bNtxGUHTc7CMIuK7WSyw5gekZ8olJ0svnmaMOsTVZ_Jyx_MM8AP2WbIDhFNrE2Ul1UK8icbcIlzQwGaXIIxX6sXINKbLpoSDCS2Ax9DXNmTXmD8A18SvT2UnLpY4xULJgDPZglfHhAVwKWlXYfSHa1NGaWKTgSahL3hjvjEDpMI9fenoxO3FkhycxRgDG2L1KKghkBclKfQKDHvVoWQdrwmNeNBOElFQHFvQp_QEbv8Qt-nswprOk4iDx6_T1szcJcn7mNEpes2E70TO-E6yqy1sNm_-UXC6kDX5hY1E_TZhRnouc3fn_xE9q4Kk3sZzdRxwzXnWt3fBFnb7EvMVhGWRuQL4_dERXM5mIpmDA0pZvsTvnD7iwKmGfTEF7yN-TxcKIjrF5pTiuQyyTCFjR7gN19ZuCpyo4H2wT4-pvPkk7Jdcu6xVdKtSJ0F7Xq2twt2YFXz34nAFpZn9cf2zG8d2aoSS-rdlGif-5CkWhMkuZcnDtStR39vO3S_tGmUXIazuAaOLsmdy9G9VPlfARueaiBTP6A-tRa_PUNffJkzPfQfqh-X4gYYomACDtfdqBiXA5767AaREU5BQp1Mk_YNm2ITIfXK6hvNod7r5FMhIZJ81nzwUFFceJzsf-REMDUpJeCQS78oi81laDIAM_t1fA5DzDDsTeneN9gZyMnbS80YPHaywMccpnD1VsQ9o9cebQJvc8hyvQy2QMKVGR8jLlIFnlHSo6wdniRyuL07REaNZrfMyxwy-gVXPeINejb7-haohN2h--wAPsDadqEvjKuaDLVh7m00?></g></svg>