<svg xmlns="http://www.w3.org/2000/svg" xmlns:xlink="http://www.w3.org/1999/xlink" contentStyleType="text/css" data-diagram-type="CLASS" height="1071px" preserveAspectRatio="none" style="width:1168px;height:1071px;background:#FFFFFF;" version="1.1" viewBox="0 0 1168 1071" width="1168px" zoomAndPan="magnify"><?plantuml 1.2026.4?><defs/><g><g class="title" data-source-line="1"><text fill="#000000" font-family="sans-serif" font-size="14" font-weight="700" lengthAdjust="spacing" textLength="303.8984" x="428.9927" y="24.5332">Diagrama de Classes &#8212; Viagem e Pagamento</text></g><!--class Reserva--><g class="entity" data-qualified-name="Reserva" data-source-line="9" id="ent0001"><rect fill="#F1F1F1" height="171.2656" rx="2.5" ry="2.5" style="stroke:#181818;stroke-width:0.5;" width="215.4648" x="205" y="395.6094"/><ellipse cx="282.417" cy="411.6094" fill="#ADD1B2" rx="11" ry="11" style="stroke:#181818;stroke-width:1;"/><path d="M285.1826,407.4844 Q285.3389,407.2656 285.5264,407.1563 Q285.7139,407.0469 285.9326,407.0469 Q286.3076,407.0469 286.542,407.3125 Q286.7764,407.5625 286.7764,408.1719 L286.7764,409.625 Q286.7764,410.2344 286.542,410.5 Q286.3076,410.7656 285.9326,410.7656 Q285.5889,410.7656 285.3857,410.5625 Q285.1826,410.375 285.0732,409.8594 Q285.0264,409.5 284.8389,409.3125 Q284.5107,408.9375 283.9014,408.7188 Q283.292,408.5 282.667,408.5 Q281.9014,408.5 281.2607,408.8281 Q280.6357,409.1563 280.1357,409.9063 Q279.6514,410.6563 279.6514,411.6875 L279.6514,412.7813 Q279.6514,414.0156 280.542,414.8438 Q281.4326,415.6563 283.0264,415.6563 Q283.9639,415.6563 284.6201,415.4063 Q285.0107,415.25 285.4326,414.8125 Q285.6982,414.5469 285.8389,414.4688 Q285.9951,414.3906 286.1982,414.3906 Q286.5264,414.3906 286.7764,414.6563 Q287.042,414.9063 287.042,415.25 Q287.042,415.5938 286.6982,416 Q286.1982,416.5781 285.4014,416.9063 Q284.3232,417.3594 283.0264,417.3594 Q281.5107,417.3594 280.3076,416.7344 Q279.3232,416.2344 278.6357,415.1719 Q277.9482,414.0938 277.9482,412.8125 L277.9482,411.6563 Q277.9482,410.3281 278.5576,409.1875 Q279.1826,408.0313 280.2764,407.4219 Q281.3701,406.7969 282.6045,406.7969 Q283.3389,406.7969 283.9795,406.9688 Q284.6357,407.125 285.1826,407.4844 Z " fill="#000000"/><text fill="#000000" font-family="sans-serif" font-size="14" lengthAdjust="spacing" textLength="52.1309" x="302.917" y="417.3379">Reserva</text><line style="stroke:#181818;stroke-width:0.5;" x1="206" x2="419.4648" y1="427.6094" y2="427.6094"/><text fill="#000000" font-family="sans-serif" font-size="14" lengthAdjust="spacing" textLength="42.0137" x="211" y="446.1426">-id : int</text><text fill="#000000" font-family="sans-serif" font-size="14" lengthAdjust="spacing" textLength="167.2891" x="211" y="463.752">-dataHoraInicio : DateTime</text><text fill="#000000" font-family="sans-serif" font-size="14" lengthAdjust="spacing" textLength="196.8613" x="211" y="481.3613">-dataHoraExpiracao : DateTime</text><text fill="#000000" font-family="sans-serif" font-size="14" lengthAdjust="spacing" textLength="145.5029" x="211" y="498.9707">-status : StatusReserva</text><line style="stroke:#181818;stroke-width:0.5;" x1="206" x2="419.4648" y1="506.0469" y2="506.0469"/><text fill="#000000" font-family="sans-serif" font-size="14" lengthAdjust="spacing" textLength="124.9131" x="211" y="524.5801">+expirou() : boolean</text><text fill="#000000" font-family="sans-serif" font-size="14" lengthAdjust="spacing" textLength="107.7686" x="211" y="542.1895">+cancelar() : void</text><text fill="#000000" font-family="sans-serif" font-size="14" lengthAdjust="spacing" textLength="203.4648" x="211" y="559.7988">+converterEmViagem() : Viagem</text></g><!--class Viagem--><g class="entity" data-qualified-name="Viagem" data-source-line="18" id="ent0002"><rect fill="#F1F1F1" height="241.7031" rx="2.5" ry="2.5" style="stroke:#181818;stroke-width:0.5;" width="286.2988" x="500.5" y="45.6094"/><ellipse cx="615.665" cy="61.6094" fill="#ADD1B2" rx="11" ry="11" style="stroke:#181818;stroke-width:1;"/><path d="M618.4307,57.4844 Q618.5869,57.2656 618.7744,57.1563 Q618.9619,57.0469 619.1807,57.0469 Q619.5557,57.0469 619.79,57.3125 Q620.0244,57.5625 620.0244,58.1719 L620.0244,59.625 Q620.0244,60.2344 619.79,60.5 Q619.5557,60.7656 619.1807,60.7656 Q618.8369,60.7656 618.6338,60.5625 Q618.4307,60.375 618.3213,59.8594 Q618.2744,59.5 618.0869,59.3125 Q617.7588,58.9375 617.1494,58.7188 Q616.54,58.5 615.915,58.5 Q615.1494,58.5 614.5088,58.8281 Q613.8838,59.1563 613.3838,59.9063 Q612.8994,60.6563 612.8994,61.6875 L612.8994,62.7813 Q612.8994,64.0156 613.79,64.8438 Q614.6807,65.6563 616.2744,65.6563 Q617.2119,65.6563 617.8682,65.4063 Q618.2588,65.25 618.6807,64.8125 Q618.9463,64.5469 619.0869,64.4688 Q619.2432,64.3906 619.4463,64.3906 Q619.7744,64.3906 620.0244,64.6563 Q620.29,64.9063 620.29,65.25 Q620.29,65.5938 619.9463,66 Q619.4463,66.5781 618.6494,66.9063 Q617.5713,67.3594 616.2744,67.3594 Q614.7588,67.3594 613.5557,66.7344 Q612.5713,66.2344 611.8838,65.1719 Q611.1963,64.0938 611.1963,62.8125 L611.1963,61.6563 Q611.1963,60.3281 611.8057,59.1875 Q612.4307,58.0313 613.5244,57.4219 Q614.6182,56.7969 615.8525,56.7969 Q616.5869,56.7969 617.2275,56.9688 Q617.8838,57.125 618.4307,57.4844 Z " fill="#000000"/><text fill="#000000" font-family="sans-serif" font-size="14" lengthAdjust="spacing" textLength="47.4688" x="636.165" y="67.3379">Viagem</text><line style="stroke:#181818;stroke-width:0.5;" x1="501.5" x2="785.7988" y1="77.6094" y2="77.6094"/><text fill="#000000" font-family="sans-serif" font-size="14" lengthAdjust="spacing" textLength="42.0137" x="506.5" y="96.1426">-id : int</text><text fill="#000000" font-family="sans-serif" font-size="14" lengthAdjust="spacing" textLength="167.2891" x="506.5" y="113.752">-dataHoraInicio : DateTime</text><text fill="#000000" font-family="sans-serif" font-size="14" lengthAdjust="spacing" textLength="157.9307" x="506.5" y="131.3613">-dataHoraFim : DateTime</text><text fill="#000000" font-family="sans-serif" font-size="14" lengthAdjust="spacing" textLength="120.627" x="506.5" y="148.9707">-valorBase : double</text><text fill="#000000" font-family="sans-serif" font-size="14" lengthAdjust="spacing" textLength="119.0615" x="506.5" y="166.5801">-valorFinal : double</text><text fill="#000000" font-family="sans-serif" font-size="14" lengthAdjust="spacing" textLength="140.8408" x="506.5" y="184.1895">-status : StatusViagem</text><line style="stroke:#181818;stroke-width:0.5;" x1="501.5" x2="785.7988" y1="191.2656" y2="191.2656"/><text fill="#000000" font-family="sans-serif" font-size="14" lengthAdjust="spacing" textLength="145.1133" x="506.5" y="209.7988">+calcularDuracao() : int</text><text fill="#000000" font-family="sans-serif" font-size="14" lengthAdjust="spacing" textLength="274.2988" x="506.5" y="227.4082">+calcularValor(t : Tarifa, p : Pacote) : double</text><text fill="#000000" font-family="sans-serif" font-size="14" lengthAdjust="spacing" textLength="249.3955" x="506.5" y="245.0176">+registrarPosicao(p : Localizacao) : void</text><text fill="#000000" font-family="sans-serif" font-size="14" lengthAdjust="spacing" textLength="103.0928" x="506.5" y="262.627">+finalizar() : void</text><text fill="#000000" font-family="sans-serif" font-size="14" lengthAdjust="spacing" textLength="229.9609" x="506.5" y="280.2363">+marcarPagamentoPendente() : void</text></g><!--class RegistroGPS--><g class="entity" data-qualified-name="RegistroGPS" data-source-line="31" id="ent0003"><rect fill="#F1F1F1" height="57.6094" rx="2.5" ry="2.5" style="stroke:#181818;stroke-width:0.5;" width="146.6064" x="475" y="452.1094"/><ellipse cx="504.8096" cy="468.1094" fill="#ADD1B2" rx="11" ry="11" style="stroke:#181818;stroke-width:1;"/><path d="M507.5752,463.9844 Q507.7314,463.7656 507.9189,463.6563 Q508.1064,463.5469 508.3252,463.5469 Q508.7002,463.5469 508.9346,463.8125 Q509.1689,464.0625 509.1689,464.6719 L509.1689,466.125 Q509.1689,466.7344 508.9346,467 Q508.7002,467.2656 508.3252,467.2656 Q507.9814,467.2656 507.7783,467.0625 Q507.5752,466.875 507.4658,466.3594 Q507.4189,466 507.2314,465.8125 Q506.9033,465.4375 506.2939,465.2188 Q505.6846,465 505.0596,465 Q504.2939,465 503.6533,465.3281 Q503.0283,465.6563 502.5283,466.4063 Q502.0439,467.1563 502.0439,468.1875 L502.0439,469.2813 Q502.0439,470.5156 502.9346,471.3438 Q503.8252,472.1563 505.4189,472.1563 Q506.3564,472.1563 507.0127,471.9063 Q507.4033,471.75 507.8252,471.3125 Q508.0908,471.0469 508.2314,470.9688 Q508.3877,470.8906 508.5908,470.8906 Q508.9189,470.8906 509.1689,471.1563 Q509.4346,471.4063 509.4346,471.75 Q509.4346,472.0938 509.0908,472.5 Q508.5908,473.0781 507.7939,473.4063 Q506.7158,473.8594 505.4189,473.8594 Q503.9033,473.8594 502.7002,473.2344 Q501.7158,472.7344 501.0283,471.6719 Q500.3408,470.5938 500.3408,469.3125 L500.3408,468.1563 Q500.3408,466.8281 500.9502,465.6875 Q501.5752,464.5313 502.6689,463.9219 Q503.7627,463.2969 504.9971,463.2969 Q505.7314,463.2969 506.3721,463.4688 Q507.0283,463.625 507.5752,463.9844 Z " fill="#000000"/><text fill="#000000" font-family="sans-serif" font-size="14" lengthAdjust="spacing" textLength="81.6963" x="522.1006" y="473.8379">RegistroGPS</text><line style="stroke:#181818;stroke-width:0.5;" x1="476" x2="620.6064" y1="484.1094" y2="484.1094"/><text fill="#000000" font-family="sans-serif" font-size="14" lengthAdjust="spacing" textLength="134.6064" x="481" y="502.6426">-dataHora : DateTime</text></g><!--class Pagamento--><g class="entity" data-qualified-name="Pagamento" data-source-line="34" id="ent0004"><rect fill="#F1F1F1" height="171.2656" rx="2.5" ry="2.5" style="stroke:#181818;stroke-width:0.5;" width="176.9785" x="677" y="395.6094"/><ellipse cx="725.436" cy="411.6094" fill="#ADD1B2" rx="11" ry="11" style="stroke:#181818;stroke-width:1;"/><path d="M728.2017,407.4844 Q728.3579,407.2656 728.5454,407.1563 Q728.7329,407.0469 728.9517,407.0469 Q729.3267,407.0469 729.561,407.3125 Q729.7954,407.5625 729.7954,408.1719 L729.7954,409.625 Q729.7954,410.2344 729.561,410.5 Q729.3267,410.7656 728.9517,410.7656 Q728.6079,410.7656 728.4048,410.5625 Q728.2017,410.375 728.0923,409.8594 Q728.0454,409.5 727.8579,409.3125 Q727.5298,408.9375 726.9204,408.7188 Q726.311,408.5 725.686,408.5 Q724.9204,408.5 724.2798,408.8281 Q723.6548,409.1563 723.1548,409.9063 Q722.6704,410.6563 722.6704,411.6875 L722.6704,412.7813 Q722.6704,414.0156 723.561,414.8438 Q724.4517,415.6563 726.0454,415.6563 Q726.9829,415.6563 727.6392,415.4063 Q728.0298,415.25 728.4517,414.8125 Q728.7173,414.5469 728.8579,414.4688 Q729.0142,414.3906 729.2173,414.3906 Q729.5454,414.3906 729.7954,414.6563 Q730.061,414.9063 730.061,415.25 Q730.061,415.5938 729.7173,416 Q729.2173,416.5781 728.4204,416.9063 Q727.3423,417.3594 726.0454,417.3594 Q724.5298,417.3594 723.3267,416.7344 Q722.3423,416.2344 721.6548,415.1719 Q720.9673,414.0938 720.9673,412.8125 L720.9673,411.6563 Q720.9673,410.3281 721.5767,409.1875 Q722.2017,408.0313 723.2954,407.4219 Q724.3892,406.7969 725.6235,406.7969 Q726.3579,406.7969 726.9985,406.9688 Q727.6548,407.125 728.2017,407.4844 Z " fill="#000000"/><text fill="#000000" font-family="sans-serif" font-size="14" lengthAdjust="spacing" textLength="71.6064" x="745.936" y="417.3379">Pagamento</text><line style="stroke:#181818;stroke-width:0.5;" x1="678" x2="852.9785" y1="427.6094" y2="427.6094"/><text fill="#000000" font-family="sans-serif" font-size="14" lengthAdjust="spacing" textLength="42.0137" x="683" y="446.1426">-id : int</text><text fill="#000000" font-family="sans-serif" font-size="14" lengthAdjust="spacing" textLength="88.7168" x="683" y="463.752">-valor : double</text><text fill="#000000" font-family="sans-serif" font-size="14" lengthAdjust="spacing" textLength="134.6064" x="683" y="481.3613">-dataHora : DateTime</text><text fill="#000000" font-family="sans-serif" font-size="14" lengthAdjust="spacing" textLength="164.9785" x="683" y="498.9707">-status : StatusPagamento</text><line style="stroke:#181818;stroke-width:0.5;" x1="678" x2="852.9785" y1="506.0469" y2="506.0469"/><text fill="#000000" font-family="sans-serif" font-size="14" lengthAdjust="spacing" textLength="116.3203" x="683" y="524.5801">+processar() : void</text><text fill="#000000" font-family="sans-serif" font-size="14" lengthAdjust="spacing" textLength="113.1963" x="683" y="542.1895">+confirmar() : void</text><text fill="#000000" font-family="sans-serif" font-size="14" lengthAdjust="spacing" textLength="101.5342" x="683" y="559.7988">+recusar() : void</text></g><!--class FormaPagamento--><g class="entity" data-qualified-name="FormaPagamento" data-source-line="43" id="ent0005"><rect fill="#F1F1F1" height="75.2188" rx="2.5" ry="2.5" style="stroke:#181818;stroke-width:0.5;" width="144.0547" x="417.5" y="674.6094"/><ellipse cx="432.5" cy="690.6094" fill="#A9DCDF" rx="11" ry="11" style="stroke:#181818;stroke-width:1;"/><path d="M434.6875,692.375 L430.5469,692.375 L430.125,693.4063 L430.5469,693.4063 Q431.1563,693.4063 431.4219,693.6406 Q431.6875,693.875 431.6875,694.2656 Q431.6875,694.6406 431.4219,694.875 Q431.1563,695.1094 430.5469,695.1094 L428.25,695.1094 Q427.6406,695.1094 427.3906,694.875 Q427.125,694.6406 427.125,694.25 Q427.125,693.875 427.4063,693.6406 Q427.6719,693.3906 428.2969,693.4063 L430.9688,686.75 L429.8594,686.75 Q429.25,686.75 428.9844,686.5156 Q428.7188,686.2813 428.7188,685.8906 Q428.7188,685.5156 428.9844,685.2813 Q429.25,685.0469 429.8594,685.0469 L433.5313,685.0469 L436.9219,693.4063 Q437.5156,693.4063 437.7031,693.5469 Q438.0938,693.8125 438.0938,694.2656 Q438.0938,694.6406 437.8281,694.875 Q437.5781,695.1094 436.9688,695.1094 L434.6719,695.1094 Q434.0625,695.1094 433.7969,694.875 Q433.5313,694.6406 433.5313,694.25 Q433.5313,693.875 433.7969,693.6406 Q434.0625,693.4063 434.6719,693.4063 L435.0938,693.4063 L434.6875,692.375 Z M433.9688,690.6719 L432.6094,687.2969 L431.2344,690.6719 L433.9688,690.6719 Z " fill="#000000"/><text fill="#000000" font-family="sans-serif" font-size="14" font-style="italic" lengthAdjust="spacing" textLength="112.0547" x="446.5" y="696.3379">FormaPagamento</text><line style="stroke:#181818;stroke-width:0.5;" x1="418.5" x2="560.5547" y1="706.6094" y2="706.6094"/><text fill="#000000" font-family="sans-serif" font-size="14" lengthAdjust="spacing" textLength="42.0137" x="423.5" y="725.1426">-id : int</text><text fill="#000000" font-family="sans-serif" font-size="14" lengthAdjust="spacing" textLength="112.8203" x="423.5" y="742.752">-descricao : String</text></g><!--class CartaoCredito--><g class="entity" data-qualified-name="CartaoCredito" data-source-line="47" id="ent0006"><rect fill="#F1F1F1" height="75.2188" rx="2.5" ry="2.5" style="stroke:#181818;stroke-width:0.5;" width="119.3926" x="343" y="840.6094"/><ellipse cx="358.1085" cy="856.6094" fill="#ADD1B2" rx="11" ry="11" style="stroke:#181818;stroke-width:1;"/><path d="M360.8742,852.4844 Q361.0304,852.2656 361.2179,852.1563 Q361.4054,852.0469 361.6242,852.0469 Q361.9992,852.0469 362.2335,852.3125 Q362.4679,852.5625 362.4679,853.1719 L362.4679,854.625 Q362.4679,855.2344 362.2335,855.5 Q361.9992,855.7656 361.6242,855.7656 Q361.2804,855.7656 361.0773,855.5625 Q360.8742,855.375 360.7648,854.8594 Q360.7179,854.5 360.5304,854.3125 Q360.2023,853.9375 359.5929,853.7188 Q358.9835,853.5 358.3585,853.5 Q357.5929,853.5 356.9523,853.8281 Q356.3273,854.1563 355.8273,854.9063 Q355.3429,855.6563 355.3429,856.6875 L355.3429,857.7813 Q355.3429,859.0156 356.2335,859.8438 Q357.1242,860.6563 358.7179,860.6563 Q359.6554,860.6563 360.3117,860.4063 Q360.7023,860.25 361.1242,859.8125 Q361.3898,859.5469 361.5304,859.4688 Q361.6867,859.3906 361.8898,859.3906 Q362.2179,859.3906 362.4679,859.6563 Q362.7335,859.9063 362.7335,860.25 Q362.7335,860.5938 362.3898,861 Q361.8898,861.5781 361.0929,861.9063 Q360.0148,862.3594 358.7179,862.3594 Q357.2023,862.3594 355.9992,861.7344 Q355.0148,861.2344 354.3273,860.1719 Q353.6398,859.0938 353.6398,857.8125 L353.6398,856.6563 Q353.6398,855.3281 354.2492,854.1875 Q354.8742,853.0313 355.9679,852.4219 Q357.0617,851.7969 358.296,851.7969 Q359.0304,851.7969 359.671,851.9688 Q360.3273,852.125 360.8742,852.4844 Z " fill="#000000"/><text fill="#000000" font-family="sans-serif" font-size="14" lengthAdjust="spacing" textLength="87.1514" x="372.1327" y="862.3379">CartaoCredito</text><line style="stroke:#181818;stroke-width:0.5;" x1="344" x2="461.3926" y1="872.6094" y2="872.6094"/><text fill="#000000" font-family="sans-serif" font-size="14" lengthAdjust="spacing" textLength="107.3926" x="349" y="891.1426">-bandeira : String</text><text fill="#000000" font-family="sans-serif" font-size="14" lengthAdjust="spacing" textLength="105.0547" x="349" y="908.752">-validade : String</text></g><!--class CarteiraDigital--><g class="entity" data-qualified-name="CarteiraDigital" data-source-line="51" id="ent0007"><rect fill="#F1F1F1" height="57.6094" rx="2.5" ry="2.5" style="stroke:#181818;stroke-width:0.5;" width="120.6963" x="517" y="849.1094"/><ellipse cx="532" cy="865.1094" fill="#ADD1B2" rx="11" ry="11" style="stroke:#181818;stroke-width:1;"/><path d="M534.7656,860.9844 Q534.9219,860.7656 535.1094,860.6563 Q535.2969,860.5469 535.5156,860.5469 Q535.8906,860.5469 536.125,860.8125 Q536.3594,861.0625 536.3594,861.6719 L536.3594,863.125 Q536.3594,863.7344 536.125,864 Q535.8906,864.2656 535.5156,864.2656 Q535.1719,864.2656 534.9688,864.0625 Q534.7656,863.875 534.6563,863.3594 Q534.6094,863 534.4219,862.8125 Q534.0938,862.4375 533.4844,862.2188 Q532.875,862 532.25,862 Q531.4844,862 530.8438,862.3281 Q530.2188,862.6563 529.7188,863.4063 Q529.2344,864.1563 529.2344,865.1875 L529.2344,866.2813 Q529.2344,867.5156 530.125,868.3438 Q531.0156,869.1563 532.6094,869.1563 Q533.5469,869.1563 534.2031,868.9063 Q534.5938,868.75 535.0156,868.3125 Q535.2813,868.0469 535.4219,867.9688 Q535.5781,867.8906 535.7813,867.8906 Q536.1094,867.8906 536.3594,868.1563 Q536.625,868.4063 536.625,868.75 Q536.625,869.0938 536.2813,869.5 Q535.7813,870.0781 534.9844,870.4063 Q533.9063,870.8594 532.6094,870.8594 Q531.0938,870.8594 529.8906,870.2344 Q528.9063,869.7344 528.2188,868.6719 Q527.5313,867.5938 527.5313,866.3125 L527.5313,865.1563 Q527.5313,863.8281 528.1406,862.6875 Q528.7656,861.5313 529.8594,860.9219 Q530.9531,860.2969 532.1875,860.2969 Q532.9219,860.2969 533.5625,860.4688 Q534.2188,860.625 534.7656,860.9844 Z " fill="#000000"/><text fill="#000000" font-family="sans-serif" font-size="14" lengthAdjust="spacing" textLength="88.6963" x="546" y="870.8379">CarteiraDigital</text><line style="stroke:#181818;stroke-width:0.5;" x1="518" x2="636.6963" y1="881.1094" y2="881.1094"/><text fill="#000000" font-family="sans-serif" font-size="14" lengthAdjust="spacing" textLength="108.1582" x="523" y="899.6426">-provedor : String</text></g><!--class GatewayPagamento--><g class="entity" data-qualified-name="GatewayPagamento" data-source-line="54" id="ent0008"><rect fill="#F1F1F1" height="57.6094" rx="2.5" ry="2.5" style="stroke:#181818;stroke-width:0.5;" width="536.8838" x="617" y="683.1094"/><ellipse cx="817.7646" cy="699.1094" fill="#B4A7E5" rx="11" ry="11" style="stroke:#181818;stroke-width:1;"/><path d="M818.7178,695.75 L818.7178,702.4063 L820.4365,702.4063 Q821.0459,702.4063 821.3115,702.6406 Q821.5771,702.875 821.5771,703.2656 Q821.5771,703.6406 821.3115,703.875 Q821.0459,704.1094 820.4365,704.1094 L815.2959,704.1094 Q814.6865,704.1094 814.4209,703.875 Q814.1553,703.6406 814.1553,703.25 Q814.1553,702.875 814.4209,702.6406 Q814.6865,702.4063 815.2959,702.4063 L817.0146,702.4063 L817.0146,695.75 L815.2959,695.75 Q814.6865,695.75 814.4209,695.5156 Q814.1553,695.2813 814.1553,694.8906 Q814.1553,694.5156 814.4209,694.2813 Q814.6865,694.0469 815.2959,694.0469 L820.4365,694.0469 Q821.0459,694.0469 821.3115,694.2813 Q821.5771,694.5156 821.5771,694.8906 Q821.5771,695.2813 821.3115,695.5156 Q821.0459,695.75 820.4365,695.75 L818.7178,695.75 Z " fill="#000000"/><text fill="#000000" font-family="sans-serif" font-size="14" font-style="italic" lengthAdjust="spacing" textLength="126.8545" x="838.2646" y="704.8379">GatewayPagamento</text><line style="stroke:#181818;stroke-width:0.5;" x1="618" x2="1152.8838" y1="715.1094" y2="715.1094"/><text fill="#000000" font-family="sans-serif" font-size="14" lengthAdjust="spacing" textLength="524.8838" x="623" y="733.6426">+processarPagamento(valor : double, forma : FormaPagamento) : StatusPagamento</text></g><!--class Tarifa--><g class="entity" data-qualified-name="Tarifa" data-source-line="57" id="ent0009"><rect fill="#F1F1F1" height="128.0469" rx="2.5" ry="2.5" style="stroke:#181818;stroke-width:0.5;" width="174.668" x="909" y="417.1094"/><ellipse cx="974.1909" cy="433.1094" fill="#ADD1B2" rx="11" ry="11" style="stroke:#181818;stroke-width:1;"/><path d="M976.9565,428.9844 Q977.1128,428.7656 977.3003,428.6563 Q977.4878,428.5469 977.7065,428.5469 Q978.0815,428.5469 978.3159,428.8125 Q978.5503,429.0625 978.5503,429.6719 L978.5503,431.125 Q978.5503,431.7344 978.3159,432 Q978.0815,432.2656 977.7065,432.2656 Q977.3628,432.2656 977.1597,432.0625 Q976.9565,431.875 976.8472,431.3594 Q976.8003,431 976.6128,430.8125 Q976.2847,430.4375 975.6753,430.2188 Q975.0659,430 974.4409,430 Q973.6753,430 973.0347,430.3281 Q972.4097,430.6563 971.9097,431.4063 Q971.4253,432.1563 971.4253,433.1875 L971.4253,434.2813 Q971.4253,435.5156 972.3159,436.3438 Q973.2065,437.1563 974.8003,437.1563 Q975.7378,437.1563 976.394,436.9063 Q976.7847,436.75 977.2065,436.3125 Q977.4722,436.0469 977.6128,435.9688 Q977.769,435.8906 977.9722,435.8906 Q978.3003,435.8906 978.5503,436.1563 Q978.8159,436.4063 978.8159,436.75 Q978.8159,437.0938 978.4722,437.5 Q977.9722,438.0781 977.1753,438.4063 Q976.0972,438.8594 974.8003,438.8594 Q973.2847,438.8594 972.0815,438.2344 Q971.0972,437.7344 970.4097,436.6719 Q969.7222,435.5938 969.7222,434.3125 L969.7222,433.1563 Q969.7222,431.8281 970.3315,430.6875 Q970.9565,429.5313 972.0503,428.9219 Q973.144,428.2969 974.3784,428.2969 Q975.1128,428.2969 975.7534,428.4688 Q976.4097,428.625 976.9565,428.9844 Z " fill="#000000"/><text fill="#000000" font-family="sans-serif" font-size="14" lengthAdjust="spacing" textLength="35.7861" x="994.6909" y="438.8379">Tarifa</text><line style="stroke:#181818;stroke-width:0.5;" x1="910" x2="1082.668" y1="449.1094" y2="449.1094"/><text fill="#000000" font-family="sans-serif" font-size="14" lengthAdjust="spacing" textLength="42.0137" x="915" y="467.6426">-id : int</text><text fill="#000000" font-family="sans-serif" font-size="14" lengthAdjust="spacing" textLength="157.9717" x="915" y="485.252">-tipoVeiculo : TipoVeiculo</text><text fill="#000000" font-family="sans-serif" font-size="14" lengthAdjust="spacing" textLength="162.668" x="915" y="502.8613">-taxaDesbloqueio : double</text><text fill="#000000" font-family="sans-serif" font-size="14" lengthAdjust="spacing" textLength="152.5234" x="915" y="520.4707">-valorPorMinuto : double</text><text fill="#000000" font-family="sans-serif" font-size="14" lengthAdjust="spacing" textLength="95.7305" x="915" y="538.0801">-ativa : boolean</text></g><!--class StatusReserva--><g class="entity" data-qualified-name="StatusReserva" data-source-line="65" id="ent0010"><rect fill="#F1F1F1" height="110.4375" rx="2.5" ry="2.5" style="stroke:#181818;stroke-width:0.5;" width="123.8203" x="16.5" y="111.6094"/><ellipse cx="31.5" cy="127.6094" fill="#EB937F" rx="11" ry="11" style="stroke:#181818;stroke-width:1;"/><path d="M30.3594,128.4063 L30.3594,130.9063 L34.6875,130.9063 L34.6875,129.9844 Q34.6875,129.375 34.9219,129.1094 Q35.1719,128.8438 35.5469,128.8438 Q35.9219,128.8438 36.1563,129.1094 Q36.3906,129.375 36.3906,129.9844 L36.3906,132.6094 L28.3906,132.6094 Q27.7656,132.6094 27.5,132.375 Q27.25,132.1406 27.25,131.75 Q27.25,131.375 27.5156,131.1406 Q27.7813,130.9063 28.3906,130.9063 L28.6563,130.9063 L28.6563,124.25 L28.3906,124.25 Q27.7656,124.25 27.5,124.0156 Q27.25,123.7813 27.25,123.3906 Q27.25,123.0156 27.5,122.7813 Q27.7656,122.5469 28.3906,122.5469 L36.0156,122.5469 L36.0156,125.1406 Q36.0156,125.75 35.7813,126.0156 Q35.5625,126.2656 35.1719,126.2656 Q34.7969,126.2656 34.5625,126.0156 Q34.3281,125.75 34.3281,125.1406 L34.3281,124.25 L30.3594,124.25 L30.3594,126.7031 L31.8438,126.7031 Q31.8438,126.0469 31.9688,125.8594 Q32.2344,125.4531 32.7031,125.4531 Q33.0781,125.4531 33.3125,125.7188 Q33.5469,125.9688 33.5469,126.5781 L33.5469,128.5469 Q33.5469,129.0938 33.4219,129.2813 Q33.1563,129.6719 32.7031,129.6719 Q32.2344,129.6719 31.9688,129.2656 Q31.8438,129.0781 31.8438,128.4063 L30.3594,128.4063 Z " fill="#000000"/><text fill="#000000" font-family="sans-serif" font-size="14" lengthAdjust="spacing" textLength="91.8203" x="45.5" y="133.3379">StatusReserva</text><line style="stroke:#181818;stroke-width:0.5;" x1="17.5" x2="139.3203" y1="143.6094" y2="143.6094"/><text fill="#000000" font-family="sans-serif" font-size="14" lengthAdjust="spacing" textLength="40.4551" x="22.5" y="162.1426">ATIVA</text><text fill="#000000" font-family="sans-serif" font-size="14" lengthAdjust="spacing" textLength="91.7861" x="22.5" y="179.752">CONVERTIDA</text><text fill="#000000" font-family="sans-serif" font-size="14" lengthAdjust="spacing" textLength="70.7998" x="22.5" y="197.3613">EXPIRADA</text><text fill="#000000" font-family="sans-serif" font-size="14" lengthAdjust="spacing" textLength="85.5791" x="22.5" y="214.9707">CANCELADA</text></g><!--class StatusViagem--><g class="entity" data-qualified-name="StatusViagem" data-source-line="71" id="ent0011"><rect fill="#F1F1F1" height="92.8281" rx="2.5" ry="2.5" style="stroke:#181818;stroke-width:0.5;" width="185.4756" x="196" y="120.1094"/><ellipse cx="240.9087" cy="136.1094" fill="#EB937F" rx="11" ry="11" style="stroke:#181818;stroke-width:1;"/><path d="M239.7681,136.9063 L239.7681,139.4063 L244.0962,139.4063 L244.0962,138.4844 Q244.0962,137.875 244.3306,137.6094 Q244.5806,137.3438 244.9556,137.3438 Q245.3306,137.3438 245.5649,137.6094 Q245.7993,137.875 245.7993,138.4844 L245.7993,141.1094 L237.7993,141.1094 Q237.1743,141.1094 236.9087,140.875 Q236.6587,140.6406 236.6587,140.25 Q236.6587,139.875 236.9243,139.6406 Q237.1899,139.4063 237.7993,139.4063 L238.0649,139.4063 L238.0649,132.75 L237.7993,132.75 Q237.1743,132.75 236.9087,132.5156 Q236.6587,132.2813 236.6587,131.8906 Q236.6587,131.5156 236.9087,131.2813 Q237.1743,131.0469 237.7993,131.0469 L245.4243,131.0469 L245.4243,133.6406 Q245.4243,134.25 245.1899,134.5156 Q244.9712,134.7656 244.5806,134.7656 Q244.2056,134.7656 243.9712,134.5156 Q243.7368,134.25 243.7368,133.6406 L243.7368,132.75 L239.7681,132.75 L239.7681,135.2031 L241.2524,135.2031 Q241.2524,134.5469 241.3774,134.3594 Q241.6431,133.9531 242.1118,133.9531 Q242.4868,133.9531 242.7212,134.2188 Q242.9556,134.4688 242.9556,135.0781 L242.9556,137.0469 Q242.9556,137.5938 242.8306,137.7813 Q242.5649,138.1719 242.1118,138.1719 Q241.6431,138.1719 241.3774,137.7656 Q241.2524,137.5781 241.2524,136.9063 L239.7681,136.9063 Z " fill="#000000"/><text fill="#000000" font-family="sans-serif" font-size="14" lengthAdjust="spacing" textLength="87.1582" x="261.4087" y="141.8379">StatusViagem</text><line style="stroke:#181818;stroke-width:0.5;" x1="197" x2="380.4756" y1="152.1094" y2="152.1094"/><text fill="#000000" font-family="sans-serif" font-size="14" lengthAdjust="spacing" textLength="118.2344" x="202" y="170.6426">EM_ANDAMENTO</text><text fill="#000000" font-family="sans-serif" font-size="14" lengthAdjust="spacing" textLength="173.4756" x="202" y="188.252">PENDENTE_PAGAMENTO</text><text fill="#000000" font-family="sans-serif" font-size="14" lengthAdjust="spacing" textLength="80.9033" x="202" y="205.8613">FINALIZADA</text></g><!--class StatusPagamento--><g class="entity" data-qualified-name="StatusPagamento" data-source-line="76" id="ent0012"><rect fill="#F1F1F1" height="92.8281" rx="2.5" ry="2.5" style="stroke:#181818;stroke-width:0.5;" width="143.2959" x="7" y="434.6094"/><ellipse cx="22" cy="450.6094" fill="#EB937F" rx="11" ry="11" style="stroke:#181818;stroke-width:1;"/><path d="M20.8594,451.4063 L20.8594,453.9063 L25.1875,453.9063 L25.1875,452.9844 Q25.1875,452.375 25.4219,452.1094 Q25.6719,451.8438 26.0469,451.8438 Q26.4219,451.8438 26.6563,452.1094 Q26.8906,452.375 26.8906,452.9844 L26.8906,455.6094 L18.8906,455.6094 Q18.2656,455.6094 18,455.375 Q17.75,455.1406 17.75,454.75 Q17.75,454.375 18.0156,454.1406 Q18.2813,453.9063 18.8906,453.9063 L19.1563,453.9063 L19.1563,447.25 L18.8906,447.25 Q18.2656,447.25 18,447.0156 Q17.75,446.7813 17.75,446.3906 Q17.75,446.0156 18,445.7813 Q18.2656,445.5469 18.8906,445.5469 L26.5156,445.5469 L26.5156,448.1406 Q26.5156,448.75 26.2813,449.0156 Q26.0625,449.2656 25.6719,449.2656 Q25.2969,449.2656 25.0625,449.0156 Q24.8281,448.75 24.8281,448.1406 L24.8281,447.25 L20.8594,447.25 L20.8594,449.7031 L22.3438,449.7031 Q22.3438,449.0469 22.4688,448.8594 Q22.7344,448.4531 23.2031,448.4531 Q23.5781,448.4531 23.8125,448.7188 Q24.0469,448.9688 24.0469,449.5781 L24.0469,451.5469 Q24.0469,452.0938 23.9219,452.2813 Q23.6563,452.6719 23.2031,452.6719 Q22.7344,452.6719 22.4688,452.2656 Q22.3438,452.0781 22.3438,451.4063 L20.8594,451.4063 Z " fill="#000000"/><text fill="#000000" font-family="sans-serif" font-size="14" lengthAdjust="spacing" textLength="111.2959" x="36" y="456.3379">StatusPagamento</text><line style="stroke:#181818;stroke-width:0.5;" x1="8" x2="149.2959" y1="466.6094" y2="466.6094"/><text fill="#000000" font-family="sans-serif" font-size="14" lengthAdjust="spacing" textLength="76.2344" x="13" y="485.1426">PENDENTE</text><text fill="#000000" font-family="sans-serif" font-size="14" lengthAdjust="spacing" textLength="79.3516" x="13" y="502.752">APROVADO</text><text fill="#000000" font-family="sans-serif" font-size="14" lengthAdjust="spacing" textLength="79.3447" x="13" y="520.3613">RECUSADO</text></g><!--link Viagem to Reserva--><g class="link" data-entity-1="ent0002" data-entity-2="ent0001" data-link-type="dependency" data-source-line="82" id="lnk13"><path codeLine="82" d="M516,287.9794 C478.03,323.8294 440.8758,358.9171 405.8558,391.9771" fill="none" id="Viagem-to-Reserva" style="stroke:#181818;stroke-width:1;"/><polygon fill="#181818" points="402.22,395.4094,411.5103,392.1398,405.8558,391.9771,406.0186,386.3225,402.22,395.4094" style="stroke:#181818;stroke-width:1;stroke-linejoin:miter;stroke-miterlimit:10;"/><text fill="#000000" font-family="sans-serif" font-size="13" lengthAdjust="spacing" textLength="75.1563" x="469.5" y="347.1045">origina-se de</text><text fill="#000000" font-family="sans-serif" font-size="13" lengthAdjust="spacing" textLength="7.23" x="501.4246" y="308.9724">1</text><text fill="#000000" font-family="sans-serif" font-size="13" lengthAdjust="spacing" textLength="21.6836" x="388.0374" y="384.8558">0..1</text></g><!--reverse link Viagem to RegistroGPS--><g class="link" data-entity-1="ent0002" data-entity-2="ent0003" data-link-type="composition" data-source-line="83" id="lnk14"><path codeLine="83" d="M603.42,299.4606 C585.23,359.3006 568.27,415.0694 557.04,452.0194" fill="none" id="Viagem-backto-RegistroGPS" style="stroke:#181818;stroke-width:1;"/><polygon fill="#181818" points="606.91,287.9794,601.3379,292.5567,603.42,299.4606,608.9921,294.8834,606.91,287.9794" style="stroke:#181818;stroke-width:1;stroke-linejoin:miter;stroke-miterlimit:10;"/><text fill="#000000" font-family="sans-serif" font-size="13" lengthAdjust="spacing" textLength="36.1309" x="594.5" y="347.1045">trajeto</text><text fill="#000000" font-family="sans-serif" font-size="13" lengthAdjust="spacing" textLength="7.23" x="597.5903" y="308.9724">1</text><text fill="#000000" font-family="sans-serif" font-size="13" lengthAdjust="spacing" textLength="5.0591" x="553.4108" y="441.4822">*</text></g><!--link Viagem to Pagamento--><g class="link" data-entity-1="ent0002" data-entity-2="ent0004" data-link-type="dependency" data-source-line="84" id="lnk15"><path codeLine="84" d="M690.49,287.9794 C704.46,323.7494 717.6313,357.5019 730.5213,390.5119" fill="none" id="Viagem-to-Pagamento" style="stroke:#181818;stroke-width:1;"/><polygon fill="#181818" points="732.34,395.1694,732.7923,385.3309,730.5213,390.5119,725.3403,388.2408,732.34,395.1694" style="stroke:#181818;stroke-width:1;stroke-linejoin:miter;stroke-miterlimit:10;"/><text fill="#000000" font-family="sans-serif" font-size="13" lengthAdjust="spacing" textLength="26.019" x="713.5" y="347.1045">gera</text><text fill="#000000" font-family="sans-serif" font-size="13" lengthAdjust="spacing" textLength="7.23" x="686.0023" y="308.9724">1</text><text fill="#000000" font-family="sans-serif" font-size="13" lengthAdjust="spacing" textLength="7.23" x="722.3145" y="384.8886">1</text></g><!--link Viagem to Tarifa--><g class="link" data-entity-1="ent0002" data-entity-2="ent0009" data-link-type="dependency" data-source-line="85" id="lnk16"><path codeLine="85" d="M779.22,287.7594 C828.97,331.7994 879.5465,376.5749 921.4265,413.6549" fill="none" id="Viagem-to-Tarifa" style="stroke:#181818;stroke-width:1;stroke-dasharray:7,7;"/><polygon fill="#181818" points="925.17,416.9694,921.0832,408.0085,921.4265,413.6549,915.78,413.9981,925.17,416.9694" style="stroke:#181818;stroke-width:1;stroke-linejoin:miter;stroke-miterlimit:10;"/><text fill="#000000" font-family="sans-serif" font-size="13" lengthAdjust="spacing" textLength="20.96" x="842.5" y="347.1045">usa</text></g><!--link Pagamento to FormaPagamento--><g class="link" data-entity-1="ent0004" data-entity-2="ent0005" data-link-type="dependency" data-source-line="86" id="lnk17"><path codeLine="86" d="M676.65,555.8294 C628.9,595.4394 575.978,639.3567 537.578,671.2167" fill="none" id="Pagamento-to-FormaPagamento" style="stroke:#181818;stroke-width:1;"/><polygon fill="#181818" points="533.73,674.4094,543.2105,671.741,537.578,671.2167,538.1023,665.5842,533.73,674.4094" style="stroke:#181818;stroke-width:1;stroke-linejoin:miter;stroke-miterlimit:10;"/><text fill="#000000" font-family="sans-serif" font-size="13" lengthAdjust="spacing" textLength="20.96" x="604.5" y="626.1045">usa</text><text fill="#000000" font-family="sans-serif" font-size="13" lengthAdjust="spacing" textLength="5.0591" x="663.8031" y="559.0619">*</text><text fill="#000000" font-family="sans-serif" font-size="13" lengthAdjust="spacing" textLength="7.23" x="534.0006" y="663.776">1</text></g><!--reverse link FormaPagamento to CartaoCredito--><g class="link" data-entity-1="ent0005" data-entity-2="ent0006" data-link-type="extension" data-source-line="87" id="lnk18"><path codeLine="87" d="M461.544,765.8101 C447.214,792.8201 436.27,813.4494 421.96,840.4294" fill="none" id="FormaPagamento-backto-CartaoCredito" style="stroke:#181818;stroke-width:1;"/><polygon fill="none" points="469.98,749.9094,456.2437,762.9981,466.8442,768.6221,469.98,749.9094" style="stroke:#181818;stroke-width:1;stroke-linejoin:miter;stroke-miterlimit:10;"/></g><!--reverse link FormaPagamento to CarteiraDigital--><g class="link" data-entity-1="ent0005" data-entity-2="ent0007" data-link-type="extension" data-source-line="88" id="lnk19"><path codeLine="88" d="M517.757,765.7722 C533.867,795.8122 547.79,821.7394 562.47,849.0994" fill="none" id="FormaPagamento-backto-CarteiraDigital" style="stroke:#181818;stroke-width:1;"/><polygon fill="none" points="509.25,749.9094,512.4694,768.6079,523.0446,762.9366,509.25,749.9094" style="stroke:#181818;stroke-width:1;stroke-linejoin:miter;stroke-miterlimit:10;"/></g><!--link Pagamento to GatewayPagamento--><g class="link" data-entity-1="ent0004" data-entity-2="ent0008" data-link-type="dependency" data-source-line="89" id="lnk20"><path codeLine="89" d="M809.84,566.7294 C831.27,607.6294 853.2485,649.571 868.3985,678.471" fill="none" id="Pagamento-to-GatewayPagamento" style="stroke:#181818;stroke-width:1;stroke-dasharray:7,7;"/><polygon fill="#181818" points="870.72,682.8994,870.0841,673.0711,868.3985,678.471,862.9986,676.7854,870.72,682.8994" style="stroke:#181818;stroke-width:1;stroke-linejoin:miter;stroke-miterlimit:10;"/><text fill="#000000" font-family="sans-serif" font-size="13" lengthAdjust="spacing" textLength="72.979" x="841.5" y="626.1045">processa via</text></g><g class="legend" data-source-line="91"><rect fill="#DDDDDD" height="115.6563" rx="7.5" ry="7.5" style="stroke:#000000;stroke-width:1;" width="315.7852" x="12" y="936.8281"/><text fill="#000000" font-family="sans-serif" font-size="14" lengthAdjust="spacing" textLength="305.7852" x="17" y="956.3613">Relacoes com outros dom&#237;nios (ver Vis&#227;o Geral):</text><text fill="#000000" font-family="sans-serif" font-size="14" lengthAdjust="spacing" textLength="186.3613" x="17" y="973.9707">Reserva e Viagem --&gt; Veiculo</text><text fill="#000000" font-family="sans-serif" font-size="14" lengthAdjust="spacing" textLength="180.9131" x="17" y="991.5801">RegistroGPS --&gt; Localizacao</text><text fill="#000000" font-family="sans-serif" font-size="14" lengthAdjust="spacing" textLength="194.8857" x="17" y="1009.1895">Tarifa --&gt; Municipio (vigora em)</text><text fill="#000000" font-family="sans-serif" font-size="14" lengthAdjust="spacing" textLength="300.7334" x="17" y="1026.7988">Usuario --&gt; Reserva, Viagem, FormaPagamento</text><text fill="#000000" font-family="sans-serif" font-size="14" lengthAdjust="spacing" textLength="225.292" x="17" y="1044.4082">Viagem ..&gt; Pacote (aplica desconto)</text></g><?plantuml-src dLNDZjis4BxhAGO-sSbwiJtaKAC8e5hQhO5Ths0xHj5BC9R6BXk9L4dAJT8Qw4Fq3NhkK-HD-YGTKf8jQTqUUj9mvkFyV9ePMc5pWaZWGME1a17CSpI63Fpz-n-mPJqLG93W0GkILWM1-I1aYOm6gJ8oLCARDnsbHld1AR--wq9JvpIqLejTPMcHAhaMdmdkWXy5XwIYj9-We697sWI11yEAVUiZmgy1m1H41ZCGqlf3XXQ_KneNKgH2iI52InjHKCyQVoo5nXHV08n5MndMhhtG16BJQo1tHrNZ2LjtIkM4qkjJb2dbgBtXg4HMQvKyahQauw9cofjhCJWrTJGS_kyoxaKnD1qnL_fRDCI6J5MxlAE-5nBpldvGRvDVNLQULbnML7cYVFfrTXVRrdaTMxPiK8izta39SeAfiZJf1deDcWx2M8qwKKOuVmxvgDYJ-EpyzyZRkqHPF-2qG9soWxRV4f8PV-a2EftxmmTJ3ycw8RTbh4jNYpuxlFOZF75zpgxvkiBbPIvSxgLMAHbpfKtsGXT3jQQqwc5F0UuSVQcjvmNk5T_wpynv05CjwXvVytJ9mxdYEMgBQguf4-UxEsGsXQ-gGJVbYmmpkkx3uIDn49RRglR2PHufyuoTyPmGwJsc10zCro_ugPzsXvkpOTod_GRshbm-zykUN26xpQ_ko6l4M56gBGdkO4VDvdAghVWH8pAxNFrSaH-zuHWbIZy9MTc13QquOcStd8A0P5NqDudF9zmijY5_vy_BRRpQB29tYBzF5glGY_DmEOyVdNpgkkXiY_ZfVRYCmgTukNdcOn8l8nRZzqduS5RUBvRXu-A75sxwxBTNNLh9wdaRHkxkAfw_MpkHYsZ2ZhuQmNJw5aPtjxSijlNCG6dk08bJNZaPTT6lfbCOlHhrfd46tCG_4V-deLl-NZARmO4qjfZRsxVjxvm1pqLm0Jh_xVN1IDJGWVARtpYfNll_AwBJt9s0BfSNRJmxjp0S1GP1JWVUJP3JtdNSYb-7LF6pcQe2LCLC6EwRuijVKh0qvcU27mBpvKy53rnqFfdvEpMzrBuHhiXBctOfTPRE8cLhmvKpF5Nk0IcvZyT7SN1BYue9GzwPYa7AOvfODqsecm6HZExyXtgvmnZBd7UBNpBAJM9G5-pg3lu1?></g></svg>