<svg xmlns="http://www.w3.org/2000/svg" xmlns:xlink="http://www.w3.org/1999/xlink" contentStyleType="text/css" data-diagram-type="CLASS" height="800px" preserveAspectRatio="none" style="width:1994px;height:800px;background:#FFFFFF;" version="1.1" viewBox="0 0 1994 800" width="1994px" zoomAndPan="magnify"><?plantuml 1.2026.4?><defs/><g><g class="title" data-source-line="1"><text fill="#000000" font-family="sans-serif" font-size="14" font-weight="700" lengthAdjust="spacing" textLength="292.2432" x="847.4771" y="24.5332">Diagrama de Classes &#8212; Usu&#225;rios e Pacotes</text></g><!--class Usuario--><g class="entity" data-qualified-name="Usuario" data-source-line="9" id="ent0001"><rect fill="#F1F1F1" height="241.7031" rx="2.5" ry="2.5" style="stroke:#181818;stroke-width:0.5;" width="409.2363" x="257" y="45.6094"/><ellipse cx="433.2476" cy="61.6094" fill="#ADD1B2" rx="11" ry="11" style="stroke:#181818;stroke-width:1;"/><path d="M436.0132,57.4844 Q436.1694,57.2656 436.3569,57.1563 Q436.5444,57.0469 436.7632,57.0469 Q437.1382,57.0469 437.3726,57.3125 Q437.6069,57.5625 437.6069,58.1719 L437.6069,59.625 Q437.6069,60.2344 437.3726,60.5 Q437.1382,60.7656 436.7632,60.7656 Q436.4194,60.7656 436.2163,60.5625 Q436.0132,60.375 435.9038,59.8594 Q435.8569,59.5 435.6694,59.3125 Q435.3413,58.9375 434.7319,58.7188 Q434.1226,58.5 433.4976,58.5 Q432.7319,58.5 432.0913,58.8281 Q431.4663,59.1563 430.9663,59.9063 Q430.4819,60.6563 430.4819,61.6875 L430.4819,62.7813 Q430.4819,64.0156 431.3726,64.8438 Q432.2632,65.6563 433.8569,65.6563 Q434.7944,65.6563 435.4507,65.4063 Q435.8413,65.25 436.2632,64.8125 Q436.5288,64.5469 436.6694,64.4688 Q436.8257,64.3906 437.0288,64.3906 Q437.3569,64.3906 437.6069,64.6563 Q437.8726,64.9063 437.8726,65.25 Q437.8726,65.5938 437.5288,66 Q437.0288,66.5781 436.2319,66.9063 Q435.1538,67.3594 433.8569,67.3594 Q432.3413,67.3594 431.1382,66.7344 Q430.1538,66.2344 429.4663,65.1719 Q428.7788,64.0938 428.7788,62.8125 L428.7788,61.6563 Q428.7788,60.3281 429.3882,59.1875 Q430.0132,58.0313 431.1069,57.4219 Q432.2007,56.7969 433.4351,56.7969 Q434.1694,56.7969 434.8101,56.9688 Q435.4663,57.125 436.0132,57.4844 Z " fill="#000000"/><text fill="#000000" font-family="sans-serif" font-size="14" lengthAdjust="spacing" textLength="48.2412" x="453.7476" y="67.3379">Usuario</text><line style="stroke:#181818;stroke-width:0.5;" x1="258" x2="665.2363" y1="77.6094" y2="77.6094"/><text fill="#000000" font-family="sans-serif" font-size="14" lengthAdjust="spacing" textLength="42.0137" x="263" y="96.1426">-id : int</text><text fill="#000000" font-family="sans-serif" font-size="14" lengthAdjust="spacing" textLength="87.9238" x="263" y="113.752">-nome : String</text><text fill="#000000" font-family="sans-serif" font-size="14" lengthAdjust="spacing" textLength="86.3584" x="263" y="131.3613">-email : String</text><text fill="#000000" font-family="sans-serif" font-size="14" lengthAdjust="spacing" textLength="102.7236" x="263" y="148.9707">-telefone : String</text><text fill="#000000" font-family="sans-serif" font-size="14" lengthAdjust="spacing" textLength="143.9717" x="263" y="166.5801">-saldoCreditos : double</text><line style="stroke:#181818;stroke-width:0.5;" x1="258" x2="665.2363" y1="173.6563" y2="173.6563"/><text fill="#000000" font-family="sans-serif" font-size="14" lengthAdjust="spacing" textLength="222.9473" x="263" y="192.1895">+consultarVeiculos() : List&lt;Veiculo&gt;</text><text fill="#000000" font-family="sans-serif" font-size="14" lengthAdjust="spacing" textLength="243.1475" x="263" y="209.7988">+reservarVeiculo(v : Veiculo) : Reserva</text><text fill="#000000" font-family="sans-serif" font-size="14" lengthAdjust="spacing" textLength="271.168" x="263" y="227.4082">+iniciarViagem(codigoQR : String) : Viagem</text><text fill="#000000" font-family="sans-serif" font-size="14" lengthAdjust="spacing" textLength="254.8301" x="263" y="245.0176">+finalizarViagem(viagem : Viagem) : void</text><text fill="#000000" font-family="sans-serif" font-size="14" lengthAdjust="spacing" textLength="397.2363" x="263" y="262.627">+reportarDefeito(v : Veiculo, descricao : String) : ReporteDefeito</text><text fill="#000000" font-family="sans-serif" font-size="14" lengthAdjust="spacing" textLength="247.8506" x="263" y="280.2363">+adicionarCreditos(valor : double) : void</text></g><!--class UsuarioAcademico--><g class="entity" data-qualified-name="UsuarioAcademico" data-source-line="23" id="ent0002"><rect fill="#F1F1F1" height="75.2188" rx="2.5" ry="2.5" style="stroke:#181818;stroke-width:0.5;" width="343.8848" x="38.5" y="399.6094"/><ellipse cx="147.4443" cy="415.6094" fill="#ADD1B2" rx="11" ry="11" style="stroke:#181818;stroke-width:1;"/><path d="M150.21,411.4844 Q150.3662,411.2656 150.5537,411.1563 Q150.7412,411.0469 150.96,411.0469 Q151.335,411.0469 151.5693,411.3125 Q151.8037,411.5625 151.8037,412.1719 L151.8037,413.625 Q151.8037,414.2344 151.5693,414.5 Q151.335,414.7656 150.96,414.7656 Q150.6162,414.7656 150.4131,414.5625 Q150.21,414.375 150.1006,413.8594 Q150.0537,413.5 149.8662,413.3125 Q149.5381,412.9375 148.9287,412.7188 Q148.3193,412.5 147.6943,412.5 Q146.9287,412.5 146.2881,412.8281 Q145.6631,413.1563 145.1631,413.9063 Q144.6787,414.6563 144.6787,415.6875 L144.6787,416.7813 Q144.6787,418.0156 145.5693,418.8438 Q146.46,419.6563 148.0537,419.6563 Q148.9912,419.6563 149.6475,419.4063 Q150.0381,419.25 150.46,418.8125 Q150.7256,418.5469 150.8662,418.4688 Q151.0225,418.3906 151.2256,418.3906 Q151.5537,418.3906 151.8037,418.6563 Q152.0693,418.9063 152.0693,419.25 Q152.0693,419.5938 151.7256,420 Q151.2256,420.5781 150.4287,420.9063 Q149.3506,421.3594 148.0537,421.3594 Q146.5381,421.3594 145.335,420.7344 Q144.3506,420.2344 143.6631,419.1719 Q142.9756,418.0938 142.9756,416.8125 L142.9756,415.6563 Q142.9756,414.3281 143.585,413.1875 Q144.21,412.0313 145.3037,411.4219 Q146.3975,410.7969 147.6318,410.7969 Q148.3662,410.7969 149.0068,410.9688 Q149.6631,411.125 150.21,411.4844 Z " fill="#000000"/><text fill="#000000" font-family="sans-serif" font-size="14" lengthAdjust="spacing" textLength="117.4961" x="167.9443" y="421.3379">UsuarioAcademico</text><line style="stroke:#181818;stroke-width:0.5;" x1="39.5" x2="381.3848" y1="431.6094" y2="431.6094"/><text fill="#000000" font-family="sans-serif" font-size="14" lengthAdjust="spacing" textLength="331.8848" x="44.5" y="450.1426">+comprovarVinculo(dados : VinculoAcademico) : void</text><text fill="#000000" font-family="sans-serif" font-size="14" lengthAdjust="spacing" textLength="247.8643" x="44.5" y="467.752">+possuiDescontoAcademico() : boolean</text></g><!--class VinculoAcademico--><g class="entity" data-qualified-name="VinculoAcademico" data-source-line="28" id="ent0003"><rect fill="#F1F1F1" height="128.0469" rx="2.5" ry="2.5" style="stroke:#181818;stroke-width:0.5;" width="151.2891" x="7" y="569.6094"/><ellipse cx="23.8527" cy="585.6094" fill="#ADD1B2" rx="11" ry="11" style="stroke:#181818;stroke-width:1;"/><path d="M26.6184,581.4844 Q26.7746,581.2656 26.9621,581.1563 Q27.1496,581.0469 27.3684,581.0469 Q27.7434,581.0469 27.9777,581.3125 Q28.2121,581.5625 28.2121,582.1719 L28.2121,583.625 Q28.2121,584.2344 27.9777,584.5 Q27.7434,584.7656 27.3684,584.7656 Q27.0246,584.7656 26.8215,584.5625 Q26.6184,584.375 26.509,583.8594 Q26.4621,583.5 26.2746,583.3125 Q25.9465,582.9375 25.3371,582.7188 Q24.7277,582.5 24.1027,582.5 Q23.3371,582.5 22.6965,582.8281 Q22.0715,583.1563 21.5715,583.9063 Q21.0871,584.6563 21.0871,585.6875 L21.0871,586.7813 Q21.0871,588.0156 21.9777,588.8438 Q22.8684,589.6563 24.4621,589.6563 Q25.3996,589.6563 26.0559,589.4063 Q26.4465,589.25 26.8684,588.8125 Q27.134,588.5469 27.2746,588.4688 Q27.4309,588.3906 27.634,588.3906 Q27.9621,588.3906 28.2121,588.6563 Q28.4777,588.9063 28.4777,589.25 Q28.4777,589.5938 28.134,590 Q27.634,590.5781 26.8371,590.9063 Q25.759,591.3594 24.4621,591.3594 Q22.9465,591.3594 21.7434,590.7344 Q20.759,590.2344 20.0715,589.1719 Q19.384,588.0938 19.384,586.8125 L19.384,585.6563 Q19.384,584.3281 19.9934,583.1875 Q20.6184,582.0313 21.7121,581.4219 Q22.8059,580.7969 24.0402,580.7969 Q24.7746,580.7969 25.4152,580.9688 Q26.0715,581.125 26.6184,581.4844 Z " fill="#000000"/><text fill="#000000" font-family="sans-serif" font-size="14" lengthAdjust="spacing" textLength="115.1719" x="38.2645" y="591.3379">VinculoAcademico</text><line style="stroke:#181818;stroke-width:0.5;" x1="8" x2="157.2891" y1="601.6094" y2="601.6094"/><text fill="#000000" font-family="sans-serif" font-size="14" lengthAdjust="spacing" textLength="115.1582" x="13" y="620.1426">-instituicao : String</text><text fill="#000000" font-family="sans-serif" font-size="14" lengthAdjust="spacing" textLength="109.6963" x="13" y="637.752">-matricula : String</text><text fill="#000000" font-family="sans-serif" font-size="14" lengthAdjust="spacing" textLength="122.1719" x="13" y="655.3613">-documento : String</text><text fill="#000000" font-family="sans-serif" font-size="14" lengthAdjust="spacing" textLength="112.0547" x="13" y="672.9707">-tipo : TipoVinculo</text><text fill="#000000" font-family="sans-serif" font-size="14" lengthAdjust="spacing" textLength="139.2891" x="13" y="690.5801">-status : StatusVinculo</text></g><!--class Pacote--><g class="entity" data-qualified-name="Pacote" data-source-line="36" id="ent0004"><rect fill="#F1F1F1" height="83.2188" rx="2.5" ry="2.5" style="stroke:#181818;stroke-width:0.5;" width="551.6973" x="692.5" y="395.6094"/><ellipse cx="942.3057" cy="411.6094" fill="#A9DCDF" rx="11" ry="11" style="stroke:#181818;stroke-width:1;"/><path d="M944.4932,413.375 L940.3525,413.375 L939.9307,414.4063 L940.3525,414.4063 Q940.9619,414.4063 941.2275,414.6406 Q941.4932,414.875 941.4932,415.2656 Q941.4932,415.6406 941.2275,415.875 Q940.9619,416.1094 940.3525,416.1094 L938.0557,416.1094 Q937.4463,416.1094 937.1963,415.875 Q936.9307,415.6406 936.9307,415.25 Q936.9307,414.875 937.2119,414.6406 Q937.4775,414.3906 938.1025,414.4063 L940.7744,407.75 L939.665,407.75 Q939.0557,407.75 938.79,407.5156 Q938.5244,407.2813 938.5244,406.8906 Q938.5244,406.5156 938.79,406.2813 Q939.0557,406.0469 939.665,406.0469 L943.3369,406.0469 L946.7275,414.4063 Q947.3213,414.4063 947.5088,414.5469 Q947.8994,414.8125 947.8994,415.2656 Q947.8994,415.6406 947.6338,415.875 Q947.3838,416.1094 946.7744,416.1094 L944.4775,416.1094 Q943.8682,416.1094 943.6025,415.875 Q943.3369,415.6406 943.3369,415.25 Q943.3369,414.875 943.6025,414.6406 Q943.8682,414.4063 944.4775,414.4063 L944.8994,414.4063 L944.4932,413.375 Z M943.7744,411.6719 L942.415,408.2969 L941.04,411.6719 L943.7744,411.6719 Z " fill="#000000"/><text fill="#000000" font-family="sans-serif" font-size="14" font-style="italic" lengthAdjust="spacing" textLength="43.5859" x="962.8057" y="417.3379">Pacote</text><line style="stroke:#181818;stroke-width:0.5;" x1="693.5" x2="1243.1973" y1="427.6094" y2="427.6094"/><text fill="#000000" font-family="sans-serif" font-size="14" lengthAdjust="spacing" textLength="87.9238" x="698.5" y="446.1426">-nome : String</text><line style="stroke:#181818;stroke-width:0.5;" x1="693.5" x2="1243.1973" y1="453.2188" y2="453.2188"/><text fill="#000000" font-family="sans-serif" font-size="14" font-style="italic" lengthAdjust="spacing" textLength="539.6973" x="698.5" y="471.752">+calcularValorComDesconto(taxaDesbloqueio : double, valorMinutos : double) : double</text></g><!--class PacoteBronze--><g class="entity" data-qualified-name="PacoteBronze" data-source-line="40" id="ent0005"><rect fill="#F1F1F1" height="57.6094" rx="2.5" ry="2.5" style="stroke:#181818;stroke-width:0.5;" width="551.6973" x="213.5" y="604.6094"/><ellipse cx="441.1265" cy="620.6094" fill="#ADD1B2" rx="11" ry="11" style="stroke:#181818;stroke-width:1;"/><path d="M443.8921,616.4844 Q444.0483,616.2656 444.2358,616.1563 Q444.4233,616.0469 444.6421,616.0469 Q445.0171,616.0469 445.2515,616.3125 Q445.4858,616.5625 445.4858,617.1719 L445.4858,618.625 Q445.4858,619.2344 445.2515,619.5 Q445.0171,619.7656 444.6421,619.7656 Q444.2983,619.7656 444.0952,619.5625 Q443.8921,619.375 443.7827,618.8594 Q443.7358,618.5 443.5483,618.3125 Q443.2202,617.9375 442.6108,617.7188 Q442.0015,617.5 441.3765,617.5 Q440.6108,617.5 439.9702,617.8281 Q439.3452,618.1563 438.8452,618.9063 Q438.3608,619.6563 438.3608,620.6875 L438.3608,621.7813 Q438.3608,623.0156 439.2515,623.8438 Q440.1421,624.6563 441.7358,624.6563 Q442.6733,624.6563 443.3296,624.4063 Q443.7202,624.25 444.1421,623.8125 Q444.4077,623.5469 444.5483,623.4688 Q444.7046,623.3906 444.9077,623.3906 Q445.2358,623.3906 445.4858,623.6563 Q445.7515,623.9063 445.7515,624.25 Q445.7515,624.5938 445.4077,625 Q444.9077,625.5781 444.1108,625.9063 Q443.0327,626.3594 441.7358,626.3594 Q440.2202,626.3594 439.0171,625.7344 Q438.0327,625.2344 437.3452,624.1719 Q436.6577,623.0938 436.6577,621.8125 L436.6577,620.6563 Q436.6577,619.3281 437.2671,618.1875 Q437.8921,617.0313 438.9858,616.4219 Q440.0796,615.7969 441.314,615.7969 Q442.0483,615.7969 442.689,615.9688 Q443.3452,616.125 443.8921,616.4844 Z " fill="#000000"/><text fill="#000000" font-family="sans-serif" font-size="14" lengthAdjust="spacing" textLength="87.9443" x="461.6265" y="626.3379">PacoteBronze</text><line style="stroke:#181818;stroke-width:0.5;" x1="214.5" x2="764.1973" y1="636.6094" y2="636.6094"/><text fill="#000000" font-family="sans-serif" font-size="14" lengthAdjust="spacing" textLength="539.6973" x="219.5" y="655.1426">+calcularValorComDesconto(taxaDesbloqueio : double, valorMinutos : double) : double</text></g><!--class PacotePrata--><g class="entity" data-qualified-name="PacotePrata" data-source-line="43" id="ent0006"><rect fill="#F1F1F1" height="57.6094" rx="2.5" ry="2.5" style="stroke:#181818;stroke-width:0.5;" width="551.6973" x="820.5" y="604.6094"/><ellipse cx="1053.5747" cy="620.6094" fill="#ADD1B2" rx="11" ry="11" style="stroke:#181818;stroke-width:1;"/><path d="M1056.3403,616.4844 Q1056.4966,616.2656 1056.6841,616.1563 Q1056.8716,616.0469 1057.0903,616.0469 Q1057.4653,616.0469 1057.6997,616.3125 Q1057.9341,616.5625 1057.9341,617.1719 L1057.9341,618.625 Q1057.9341,619.2344 1057.6997,619.5 Q1057.4653,619.7656 1057.0903,619.7656 Q1056.7466,619.7656 1056.5435,619.5625 Q1056.3403,619.375 1056.231,618.8594 Q1056.1841,618.5 1055.9966,618.3125 Q1055.6685,617.9375 1055.0591,617.7188 Q1054.4497,617.5 1053.8247,617.5 Q1053.0591,617.5 1052.4185,617.8281 Q1051.7935,618.1563 1051.2935,618.9063 Q1050.8091,619.6563 1050.8091,620.6875 L1050.8091,621.7813 Q1050.8091,623.0156 1051.6997,623.8438 Q1052.5903,624.6563 1054.1841,624.6563 Q1055.1216,624.6563 1055.7778,624.4063 Q1056.1685,624.25 1056.5903,623.8125 Q1056.856,623.5469 1056.9966,623.4688 Q1057.1528,623.3906 1057.356,623.3906 Q1057.6841,623.3906 1057.9341,623.6563 Q1058.1997,623.9063 1058.1997,624.25 Q1058.1997,624.5938 1057.856,625 Q1057.356,625.5781 1056.5591,625.9063 Q1055.481,626.3594 1054.1841,626.3594 Q1052.6685,626.3594 1051.4653,625.7344 Q1050.481,625.2344 1049.7935,624.1719 Q1049.106,623.0938 1049.106,621.8125 L1049.106,620.6563 Q1049.106,619.3281 1049.7153,618.1875 Q1050.3403,617.0313 1051.4341,616.4219 Q1052.5278,615.7969 1053.7622,615.7969 Q1054.4966,615.7969 1055.1372,615.9688 Q1055.7935,616.125 1056.3403,616.4844 Z " fill="#000000"/><text fill="#000000" font-family="sans-serif" font-size="14" lengthAdjust="spacing" textLength="77.0479" x="1074.0747" y="626.3379">PacotePrata</text><line style="stroke:#181818;stroke-width:0.5;" x1="821.5" x2="1371.1973" y1="636.6094" y2="636.6094"/><text fill="#000000" font-family="sans-serif" font-size="14" lengthAdjust="spacing" textLength="539.6973" x="826.5" y="655.1426">+calcularValorComDesconto(taxaDesbloqueio : double, valorMinutos : double) : double</text></g><!--class PacoteOuro--><g class="entity" data-qualified-name="PacoteOuro" data-source-line="46" id="ent0007"><rect fill="#F1F1F1" height="57.6094" rx="2.5" ry="2.5" style="stroke:#181818;stroke-width:0.5;" width="551.6973" x="1427.5" y="604.6094"/><ellipse cx="1661.7437" cy="620.6094" fill="#ADD1B2" rx="11" ry="11" style="stroke:#181818;stroke-width:1;"/><path d="M1664.5093,616.4844 Q1664.6655,616.2656 1664.853,616.1563 Q1665.0405,616.0469 1665.2593,616.0469 Q1665.6343,616.0469 1665.8687,616.3125 Q1666.103,616.5625 1666.103,617.1719 L1666.103,618.625 Q1666.103,619.2344 1665.8687,619.5 Q1665.6343,619.7656 1665.2593,619.7656 Q1664.9155,619.7656 1664.7124,619.5625 Q1664.5093,619.375 1664.3999,618.8594 Q1664.353,618.5 1664.1655,618.3125 Q1663.8374,617.9375 1663.228,617.7188 Q1662.6187,617.5 1661.9937,617.5 Q1661.228,617.5 1660.5874,617.8281 Q1659.9624,618.1563 1659.4624,618.9063 Q1658.978,619.6563 1658.978,620.6875 L1658.978,621.7813 Q1658.978,623.0156 1659.8687,623.8438 Q1660.7593,624.6563 1662.353,624.6563 Q1663.2905,624.6563 1663.9468,624.4063 Q1664.3374,624.25 1664.7593,623.8125 Q1665.0249,623.5469 1665.1655,623.4688 Q1665.3218,623.3906 1665.5249,623.3906 Q1665.853,623.3906 1666.103,623.6563 Q1666.3687,623.9063 1666.3687,624.25 Q1666.3687,624.5938 1666.0249,625 Q1665.5249,625.5781 1664.728,625.9063 Q1663.6499,626.3594 1662.353,626.3594 Q1660.8374,626.3594 1659.6343,625.7344 Q1658.6499,625.2344 1657.9624,624.1719 Q1657.2749,623.0938 1657.2749,621.8125 L1657.2749,620.6563 Q1657.2749,619.3281 1657.8843,618.1875 Q1658.5093,617.0313 1659.603,616.4219 Q1660.6968,615.7969 1661.9312,615.7969 Q1662.6655,615.7969 1663.3062,615.9688 Q1663.9624,616.125 1664.5093,616.4844 Z " fill="#000000"/><text fill="#000000" font-family="sans-serif" font-size="14" lengthAdjust="spacing" textLength="74.71" x="1682.2437" y="626.3379">PacoteOuro</text><line style="stroke:#181818;stroke-width:0.5;" x1="1428.5" x2="1978.1973" y1="636.6094" y2="636.6094"/><text fill="#000000" font-family="sans-serif" font-size="14" lengthAdjust="spacing" textLength="539.6973" x="1433.5" y="655.1426">+calcularValorComDesconto(taxaDesbloqueio : double, valorMinutos : double) : double</text></g><!--class TipoVinculo--><g class="entity" data-qualified-name="TipoVinculo" data-source-line="50" id="ent0008"><rect fill="#F1F1F1" height="75.2188" rx="2.5" ry="2.5" style="stroke:#181818;stroke-width:0.5;" width="105.1514" x="721" y="129.1094"/><ellipse cx="736" cy="145.1094" fill="#EB937F" rx="11" ry="11" style="stroke:#181818;stroke-width:1;"/><path d="M734.8594,145.9063 L734.8594,148.4063 L739.1875,148.4063 L739.1875,147.4844 Q739.1875,146.875 739.4219,146.6094 Q739.6719,146.3438 740.0469,146.3438 Q740.4219,146.3438 740.6563,146.6094 Q740.8906,146.875 740.8906,147.4844 L740.8906,150.1094 L732.8906,150.1094 Q732.2656,150.1094 732,149.875 Q731.75,149.6406 731.75,149.25 Q731.75,148.875 732.0156,148.6406 Q732.2813,148.4063 732.8906,148.4063 L733.1563,148.4063 L733.1563,141.75 L732.8906,141.75 Q732.2656,141.75 732,141.5156 Q731.75,141.2813 731.75,140.8906 Q731.75,140.5156 732,140.2813 Q732.2656,140.0469 732.8906,140.0469 L740.5156,140.0469 L740.5156,142.6406 Q740.5156,143.25 740.2813,143.5156 Q740.0625,143.7656 739.6719,143.7656 Q739.2969,143.7656 739.0625,143.5156 Q738.8281,143.25 738.8281,142.6406 L738.8281,141.75 L734.8594,141.75 L734.8594,144.2031 L736.3438,144.2031 Q736.3438,143.5469 736.4688,143.3594 Q736.7344,142.9531 737.2031,142.9531 Q737.5781,142.9531 737.8125,143.2188 Q738.0469,143.4688 738.0469,144.0781 L738.0469,146.0469 Q738.0469,146.5938 737.9219,146.7813 Q737.6563,147.1719 737.2031,147.1719 Q736.7344,147.1719 736.4688,146.7656 Q736.3438,146.5781 736.3438,145.9063 L734.8594,145.9063 Z " fill="#000000"/><text fill="#000000" font-family="sans-serif" font-size="14" lengthAdjust="spacing" textLength="73.1514" x="750" y="150.8379">TipoVinculo</text><line style="stroke:#181818;stroke-width:0.5;" x1="722" x2="825.1514" y1="161.1094" y2="161.1094"/><text fill="#000000" font-family="sans-serif" font-size="14" lengthAdjust="spacing" textLength="84.7861" x="727" y="179.6426">ESTUDANTE</text><text fill="#000000" font-family="sans-serif" font-size="14" lengthAdjust="spacing" textLength="87.9033" x="727" y="197.252">PROFESSOR</text></g><!--class StatusVinculo--><g class="entity" data-qualified-name="StatusVinculo" data-source-line="54" id="ent0009"><rect fill="#F1F1F1" height="92.8281" rx="2.5" ry="2.5" style="stroke:#181818;stroke-width:0.5;" width="117.6064" x="881.5" y="120.1094"/><ellipse cx="896.5" cy="136.1094" fill="#EB937F" rx="11" ry="11" style="stroke:#181818;stroke-width:1;"/><path d="M895.3594,136.9063 L895.3594,139.4063 L899.6875,139.4063 L899.6875,138.4844 Q899.6875,137.875 899.9219,137.6094 Q900.1719,137.3438 900.5469,137.3438 Q900.9219,137.3438 901.1563,137.6094 Q901.3906,137.875 901.3906,138.4844 L901.3906,141.1094 L893.3906,141.1094 Q892.7656,141.1094 892.5,140.875 Q892.25,140.6406 892.25,140.25 Q892.25,139.875 892.5156,139.6406 Q892.7813,139.4063 893.3906,139.4063 L893.6563,139.4063 L893.6563,132.75 L893.3906,132.75 Q892.7656,132.75 892.5,132.5156 Q892.25,132.2813 892.25,131.8906 Q892.25,131.5156 892.5,131.2813 Q892.7656,131.0469 893.3906,131.0469 L901.0156,131.0469 L901.0156,133.6406 Q901.0156,134.25 900.7813,134.5156 Q900.5625,134.7656 900.1719,134.7656 Q899.7969,134.7656 899.5625,134.5156 Q899.3281,134.25 899.3281,133.6406 L899.3281,132.75 L895.3594,132.75 L895.3594,135.2031 L896.8438,135.2031 Q896.8438,134.5469 896.9688,134.3594 Q897.2344,133.9531 897.7031,133.9531 Q898.0781,133.9531 898.3125,134.2188 Q898.5469,134.4688 898.5469,135.0781 L898.5469,137.0469 Q898.5469,137.5938 898.4219,137.7813 Q898.1563,138.1719 897.7031,138.1719 Q897.2344,138.1719 896.9688,137.7656 Q896.8438,137.5781 896.8438,136.9063 L895.3594,136.9063 Z " fill="#000000"/><text fill="#000000" font-family="sans-serif" font-size="14" lengthAdjust="spacing" textLength="85.6064" x="910.5" y="141.8379">StatusVinculo</text><line style="stroke:#181818;stroke-width:0.5;" x1="882.5" x2="998.1064" y1="152.1094" y2="152.1094"/><text fill="#000000" font-family="sans-serif" font-size="14" lengthAdjust="spacing" textLength="76.2344" x="887.5" y="170.6426">PENDENTE</text><text fill="#000000" font-family="sans-serif" font-size="14" lengthAdjust="spacing" textLength="79.3516" x="887.5" y="188.252">APROVADO</text><text fill="#000000" font-family="sans-serif" font-size="14" lengthAdjust="spacing" textLength="79.3447" x="887.5" y="205.8613">RECUSADO</text></g><!--reverse link Usuario to UsuarioAcademico--><g class="link" data-entity-1="ent0001" data-entity-2="ent0002" data-link-type="extension" data-source-line="60" id="lnk10"><path codeLine="60" d="M336.9196,300.8703 C299.0696,341.3703 271.89,370.4394 244.77,399.4494" fill="none" id="Usuario-backto-UsuarioAcademico" style="stroke:#181818;stroke-width:1;"/><polygon fill="none" points="349.21,287.7194,332.536,296.7735,341.3032,304.9671,349.21,287.7194" style="stroke:#181818;stroke-width:1;stroke-linejoin:miter;stroke-miterlimit:10;"/></g><!--reverse link UsuarioAcademico to VinculoAcademico--><g class="link" data-entity-1="ent0002" data-entity-2="ent0003" data-link-type="composition" data-source-line="61" id="lnk11"><path codeLine="61" d="M179.8245,484.7143 C162.3045,511.3443 144.72,538.0594 124.1,569.3994" fill="none" id="UsuarioAcademico-backto-VinculoAcademico" style="stroke:#181818;stroke-width:1;"/><polygon fill="#181818" points="186.42,474.6894,179.7806,477.5034,179.8245,484.7143,186.4639,481.9003,186.42,474.6894" style="stroke:#181818;stroke-width:1;stroke-linejoin:miter;stroke-miterlimit:10;"/><text fill="#000000" font-family="sans-serif" font-size="13" lengthAdjust="spacing" textLength="7.23" x="174.5381" y="496.3153">1</text><text fill="#000000" font-family="sans-serif" font-size="13" lengthAdjust="spacing" textLength="21.6836" x="106.7187" y="558.5628">0..1</text></g><!--link Usuario to Pacote--><g class="link" data-entity-1="ent0001" data-entity-2="ent0004" data-link-type="dependency" data-source-line="62" id="lnk12"><path codeLine="62" d="M666.25,276.0494 C745.82,318.1794 827.6215,361.4992 887.5315,393.2292" fill="none" id="Usuario-to-Pacote" style="stroke:#181818;stroke-width:1;"/><polygon fill="#181818" points="891.95,395.5694,885.8688,387.8222,887.5315,393.2292,882.1245,394.8919,891.95,395.5694" style="stroke:#181818;stroke-width:1;stroke-linejoin:miter;stroke-miterlimit:10;"/><text fill="#000000" font-family="sans-serif" font-size="13" lengthAdjust="spacing" textLength="37.5781" x="806.5" y="347.1045">possui</text><text fill="#000000" font-family="sans-serif" font-size="13" lengthAdjust="spacing" textLength="7.23" x="674.3846" y="277.5197">1</text><text fill="#000000" font-family="sans-serif" font-size="13" lengthAdjust="spacing" textLength="7.23" x="871.7358" y="384.8704">1</text></g><!--reverse link Pacote to PacoteBronze--><g class="link" data-entity-1="ent0004" data-entity-2="ent0005" data-link-type="extension" data-source-line="63" id="lnk13"><path codeLine="63" d="M851.9921,485.4205 C759.1821,523.1005 640.03,571.4794 558.64,604.5394" fill="none" id="Pacote-backto-PacoteBronze" style="stroke:#181818;stroke-width:1;"/><polygon fill="none" points="868.67,478.6494,849.7351,479.8611,854.2491,490.9798,868.67,478.6494" style="stroke:#181818;stroke-width:1;stroke-linejoin:miter;stroke-miterlimit:10;"/></g><!--reverse link Pacote to PacotePrata--><g class="link" data-entity-1="ent0004" data-entity-2="ent0006" data-link-type="extension" data-source-line="64" id="lnk14"><path codeLine="64" d="M1005.226,493.915 C1030.006,531.565 1056.26,571.4694 1077.97,604.4594" fill="none" id="Pacote-backto-PacotePrata" style="stroke:#181818;stroke-width:1;"/><polygon fill="none" points="995.33,478.8794,1000.2141,497.2137,1010.2378,490.6163,995.33,478.8794" style="stroke:#181818;stroke-width:1;stroke-linejoin:miter;stroke-miterlimit:10;"/></g><!--reverse link Pacote to PacoteOuro--><g class="link" data-entity-1="ent0004" data-entity-2="ent0007" data-link-type="extension" data-source-line="65" id="lnk15"><path codeLine="65" d="M1139.0911,483.2539 C1281.6011,520.9639 1472.82,571.5694 1597.69,604.6094" fill="none" id="Pacote-backto-PacoteOuro" style="stroke:#181818;stroke-width:1;"/><polygon fill="none" points="1121.69,478.6494,1137.5562,489.0543,1140.6259,477.4536,1121.69,478.6494" style="stroke:#181818;stroke-width:1;stroke-linejoin:miter;stroke-miterlimit:10;"/></g><g class="legend" data-source-line="67"><rect fill="#DDDDDD" height="62.8281" rx="7.5" ry="7.5" style="stroke:#000000;stroke-width:1;" width="412.6777" x="12" y="718.6563"/><text fill="#000000" font-family="sans-serif" font-size="14" lengthAdjust="spacing" textLength="305.7852" x="17" y="738.1895">Relacoes com outros dom&#237;nios (ver Vis&#227;o Geral):</text><text fill="#000000" font-family="sans-serif" font-size="14" lengthAdjust="spacing" textLength="402.6777" x="17" y="755.7988">Usuario --&gt; Reserva, Viagem, ReporteDefeito, FormaPagamento</text><text fill="#000000" font-family="sans-serif" font-size="14" lengthAdjust="spacing" textLength="225.292" x="17" y="773.4082">Viagem ..&gt; Pacote (aplica desconto)</text></g><?plantuml-src lLNDRXCn4BxlKrWz9JI9og47egfII5A414r8sjudwscmQdiMsnj1IoKUWXT0d7cAlWbFmjZxqoJjjPnsFFFPtpVZyMnGGQEOA5WxC20aYh46xz6Blpz-YajVFlnoYhn0COUS0leiypVA5i1mOKcYnq8S7syv7TYRw7npj0tDuwcZ49nQbG7VvsINwXR5KVPPCIUQ8dmJ1iqA7JCaS2G7vXPtcH1zeQGO2cL3MbWooCib7sVNoOC6bDvr1THuJNOFw45B6ZkKAd1QGo6fN6daqA5WKRxK0TmLghpKv3jT1dnGFfpKdjE4SvoqsxImpePHjHqtBAfmWYghSiL8hY-QJavIhUdJebKKuLKieQ-L1QrkM_mcVLfCH6z8oLf4GOwrJl0QEPLj4Js-HfyxbGFjC2tI5gntf5D0iZwou9gAT3QWoRLrQIdlzsvbb8D4e_BgUcBjJE4e5aNPL1G9CjMtNhVudIGAyhvK4rPBDZnYKjrNH1h1FZBldzGqXlL1XN8dsnGmm3RlW5stfBmqo7HxtQAAwBdWJqrKjKk0KFe4ZKOJOb6myi517ghMhfz7hMc_Fm_5NGE_5pdegCfTnKgFoJJfTm9y1LwiD7qfKL5x2JsHBkMZikLsptOVk_S-snRnrf6znUPYNffjxY30_oARbOvUaYj3Mvhj9aXaq-N5vMHqVZ5bUxwOdKsNozc2qGcyqnW9Ff-UJwOLUiJmgz5ankPYEhvSHfDPcj5syhtVV_AYiYTFxE3rWNZ5o8EZmO3D_OVG7XTn_Vvf-jRzEApVM5Ql4-DscpmJI3VwZ3yMFyiqhj5AmRCrpk85Qexnxu87WA0oEAwi9FFmnyQ_HcU3ZkNwXzyatg43tHtodaPkb5eForuzudfxGwedpiWPcCCQqflbtHLG30QdJOuTA3G__pJrOWTqiqfWr9dz0m00?></g></svg>