<svg xmlns="http://www.w3.org/2000/svg" xmlns:xlink="http://www.w3.org/1999/xlink" contentStyleType="text/css" data-diagram-type="CLASS" height="828px" preserveAspectRatio="none" style="width:682px;height:828px;background:#FFFFFF;" version="1.1" viewBox="0 0 682 828" width="682px" zoomAndPan="magnify"><?plantuml 1.2026.4?><defs/><g><g class="title" data-source-line="2"><text fill="#000000" font-family="sans-serif" font-size="14" font-weight="700" lengthAdjust="spacing" textLength="461.8086" x="106.5957" y="24.5332">Diagrama de Classes &#8212; Vis&#227;o Geral (mapa simplificado de dom&#237;nios)</text></g><!--cluster Usu?rios e Pacotes--><g class="cluster" data-qualified-name="Usu.rios e Pacotes" data-source-line="10" id="ent0001"><rect fill="none" height="140" rx="2.5" ry="2.5" style="stroke:#000000;stroke-width:1.5;" width="340.5" x="7" y="45.6094"/><text fill="#000000" font-family="sans-serif" font-size="14" font-weight="700" lengthAdjust="spacing" textLength="129.1719" x="112.6641" y="62.1426">Usu&#225;rios e Pacotes</text></g><!--cluster Frota e Opera??o--><g class="cluster" data-qualified-name="Frota e Opera..o" data-source-line="15" id="ent0004"><rect fill="none" height="233" rx="2.5" ry="2.5" style="stroke:#000000;stroke-width:1.5;" width="438" x="217" y="581.6094"/><text fill="#000000" font-family="sans-serif" font-size="14" font-weight="700" lengthAdjust="spacing" textLength="115.1514" x="378.4243" y="598.1426">Frota e Opera&#231;&#227;o</text></g><!--cluster Viagem e Pagamento--><g class="cluster" data-qualified-name="Viagem e Pagamento" data-source-line="21" id="ent0008"><rect fill="none" height="233" rx="2.5" ry="2.5" style="stroke:#000000;stroke-width:1.5;" width="432.5" x="235.5" y="209.6094"/><text fill="#000000" font-family="sans-serif" font-size="14" font-weight="700" lengthAdjust="spacing" textLength="140.8271" x="381.3364" y="226.1426">Viagem e Pagamento</text></g><!--class Usuario--><g class="entity" data-qualified-name="Usu.rios e Pacotes.Usuario" data-source-line="11" id="ent0002"><rect fill="#F1F1F1" height="32" rx="2.5" ry="2.5" style="stroke:#181818;stroke-width:0.5;" width="80.2412" x="23" y="137.6094"/><ellipse cx="38" cy="153.6094" fill="#ADD1B2" rx="11" ry="11" style="stroke:#181818;stroke-width:1;"/><path d="M40.7656,149.4844 Q40.9219,149.2656 41.1094,149.1563 Q41.2969,149.0469 41.5156,149.0469 Q41.8906,149.0469 42.125,149.3125 Q42.3594,149.5625 42.3594,150.1719 L42.3594,151.625 Q42.3594,152.2344 42.125,152.5 Q41.8906,152.7656 41.5156,152.7656 Q41.1719,152.7656 40.9688,152.5625 Q40.7656,152.375 40.6563,151.8594 Q40.6094,151.5 40.4219,151.3125 Q40.0938,150.9375 39.4844,150.7188 Q38.875,150.5 38.25,150.5 Q37.4844,150.5 36.8438,150.8281 Q36.2188,151.1563 35.7188,151.9063 Q35.2344,152.6563 35.2344,153.6875 L35.2344,154.7813 Q35.2344,156.0156 36.125,156.8438 Q37.0156,157.6563 38.6094,157.6563 Q39.5469,157.6563 40.2031,157.4063 Q40.5938,157.25 41.0156,156.8125 Q41.2813,156.5469 41.4219,156.4688 Q41.5781,156.3906 41.7813,156.3906 Q42.1094,156.3906 42.3594,156.6563 Q42.625,156.9063 42.625,157.25 Q42.625,157.5938 42.2813,158 Q41.7813,158.5781 40.9844,158.9063 Q39.9063,159.3594 38.6094,159.3594 Q37.0938,159.3594 35.8906,158.7344 Q34.9063,158.2344 34.2188,157.1719 Q33.5313,156.0938 33.5313,154.8125 L33.5313,153.6563 Q33.5313,152.3281 34.1406,151.1875 Q34.7656,150.0313 35.8594,149.4219 Q36.9531,148.7969 38.1875,148.7969 Q38.9219,148.7969 39.5625,148.9688 Q40.2188,149.125 40.7656,149.4844 Z " fill="#000000"/><text fill="#000000" font-family="sans-serif" font-size="14" lengthAdjust="spacing" textLength="48.2412" x="52" y="159.3379">Usuario</text></g><!--class Pacote--><g class="entity" data-qualified-name="Usu.rios e Pacotes.Pacote" data-source-line="12" id="ent0003"><rect fill="#F1F1F1" height="32" rx="2.5" ry="2.5" style="stroke:#181818;stroke-width:0.5;" width="75.5859" x="255.5" y="83.6094"/><ellipse cx="270.5" cy="99.6094" fill="#A9DCDF" rx="11" ry="11" style="stroke:#181818;stroke-width:1;"/><path d="M272.6875,101.375 L268.5469,101.375 L268.125,102.4063 L268.5469,102.4063 Q269.1563,102.4063 269.4219,102.6406 Q269.6875,102.875 269.6875,103.2656 Q269.6875,103.6406 269.4219,103.875 Q269.1563,104.1094 268.5469,104.1094 L266.25,104.1094 Q265.6406,104.1094 265.3906,103.875 Q265.125,103.6406 265.125,103.25 Q265.125,102.875 265.4063,102.6406 Q265.6719,102.3906 266.2969,102.4063 L268.9688,95.75 L267.8594,95.75 Q267.25,95.75 266.9844,95.5156 Q266.7188,95.2813 266.7188,94.8906 Q266.7188,94.5156 266.9844,94.2813 Q267.25,94.0469 267.8594,94.0469 L271.5313,94.0469 L274.9219,102.4063 Q275.5156,102.4063 275.7031,102.5469 Q276.0938,102.8125 276.0938,103.2656 Q276.0938,103.6406 275.8281,103.875 Q275.5781,104.1094 274.9688,104.1094 L272.6719,104.1094 Q272.0625,104.1094 271.7969,103.875 Q271.5313,103.6406 271.5313,103.25 Q271.5313,102.875 271.7969,102.6406 Q272.0625,102.4063 272.6719,102.4063 L273.0938,102.4063 L272.6875,101.375 Z M271.9688,99.6719 L270.6094,96.2969 L269.2344,99.6719 L271.9688,99.6719 Z " fill="#000000"/><text fill="#000000" font-family="sans-serif" font-size="14" font-style="italic" lengthAdjust="spacing" textLength="43.5859" x="284.5" y="105.3379">Pacote</text></g><!--class Veiculo--><g class="entity" data-qualified-name="Frota e Opera..o.Veiculo" data-source-line="16" id="ent0005"><rect fill="#F1F1F1" height="32" rx="2.5" ry="2.5" style="stroke:#181818;stroke-width:0.5;" width="77.917" x="561" y="618.6094"/><ellipse cx="576" cy="634.6094" fill="#ADD1B2" rx="11" ry="11" style="stroke:#181818;stroke-width:1;"/><path d="M578.7656,630.4844 Q578.9219,630.2656 579.1094,630.1563 Q579.2969,630.0469 579.5156,630.0469 Q579.8906,630.0469 580.125,630.3125 Q580.3594,630.5625 580.3594,631.1719 L580.3594,632.625 Q580.3594,633.2344 580.125,633.5 Q579.8906,633.7656 579.5156,633.7656 Q579.1719,633.7656 578.9688,633.5625 Q578.7656,633.375 578.6563,632.8594 Q578.6094,632.5 578.4219,632.3125 Q578.0938,631.9375 577.4844,631.7188 Q576.875,631.5 576.25,631.5 Q575.4844,631.5 574.8438,631.8281 Q574.2188,632.1563 573.7188,632.9063 Q573.2344,633.6563 573.2344,634.6875 L573.2344,635.7813 Q573.2344,637.0156 574.125,637.8438 Q575.0156,638.6563 576.6094,638.6563 Q577.5469,638.6563 578.2031,638.4063 Q578.5938,638.25 579.0156,637.8125 Q579.2813,637.5469 579.4219,637.4688 Q579.5781,637.3906 579.7813,637.3906 Q580.1094,637.3906 580.3594,637.6563 Q580.625,637.9063 580.625,638.25 Q580.625,638.5938 580.2813,639 Q579.7813,639.5781 578.9844,639.9063 Q577.9063,640.3594 576.6094,640.3594 Q575.0938,640.3594 573.8906,639.7344 Q572.9063,639.2344 572.2188,638.1719 Q571.5313,637.0938 571.5313,635.8125 L571.5313,634.6563 Q571.5313,633.3281 572.1406,632.1875 Q572.7656,631.0313 573.8594,630.4219 Q574.9531,629.7969 576.1875,629.7969 Q576.9219,629.7969 577.5625,629.9688 Q578.2188,630.125 578.7656,630.4844 Z " fill="#000000"/><text fill="#000000" font-family="sans-serif" font-size="14" lengthAdjust="spacing" textLength="45.917" x="590" y="640.3379">Veiculo</text></g><!--class Zona--><g class="entity" data-qualified-name="Frota e Opera..o.Zona" data-source-line="17" id="ent0006"><rect fill="#F1F1F1" height="32" rx="2.5" ry="2.5" style="stroke:#181818;stroke-width:0.5;" width="63.9102" x="261.5" y="618.6094"/><ellipse cx="276.5" cy="634.6094" fill="#ADD1B2" rx="11" ry="11" style="stroke:#181818;stroke-width:1;"/><path d="M279.2656,630.4844 Q279.4219,630.2656 279.6094,630.1563 Q279.7969,630.0469 280.0156,630.0469 Q280.3906,630.0469 280.625,630.3125 Q280.8594,630.5625 280.8594,631.1719 L280.8594,632.625 Q280.8594,633.2344 280.625,633.5 Q280.3906,633.7656 280.0156,633.7656 Q279.6719,633.7656 279.4688,633.5625 Q279.2656,633.375 279.1563,632.8594 Q279.1094,632.5 278.9219,632.3125 Q278.5938,631.9375 277.9844,631.7188 Q277.375,631.5 276.75,631.5 Q275.9844,631.5 275.3438,631.8281 Q274.7188,632.1563 274.2188,632.9063 Q273.7344,633.6563 273.7344,634.6875 L273.7344,635.7813 Q273.7344,637.0156 274.625,637.8438 Q275.5156,638.6563 277.1094,638.6563 Q278.0469,638.6563 278.7031,638.4063 Q279.0938,638.25 279.5156,637.8125 Q279.7813,637.5469 279.9219,637.4688 Q280.0781,637.3906 280.2813,637.3906 Q280.6094,637.3906 280.8594,637.6563 Q281.125,637.9063 281.125,638.25 Q281.125,638.5938 280.7813,639 Q280.2813,639.5781 279.4844,639.9063 Q278.4063,640.3594 277.1094,640.3594 Q275.5938,640.3594 274.3906,639.7344 Q273.4063,639.2344 272.7188,638.1719 Q272.0313,637.0938 272.0313,635.8125 L272.0313,634.6563 Q272.0313,633.3281 272.6406,632.1875 Q273.2656,631.0313 274.3594,630.4219 Q275.4531,629.7969 276.6875,629.7969 Q277.4219,629.7969 278.0625,629.9688 Q278.7188,630.125 279.2656,630.4844 Z " fill="#000000"/><text fill="#000000" font-family="sans-serif" font-size="14" lengthAdjust="spacing" textLength="31.9102" x="290.5" y="640.3379">Zona</text></g><!--class OrdemServico--><g class="entity" data-qualified-name="Frota e Opera..o.OrdemServico" data-source-line="18" id="ent0007"><rect fill="#F1F1F1" height="32" rx="2.5" ry="2.5" style="stroke:#181818;stroke-width:0.5;" width="121.4688" x="233" y="720.6094"/><ellipse cx="248" cy="736.6094" fill="#ADD1B2" rx="11" ry="11" style="stroke:#181818;stroke-width:1;"/><path d="M250.7656,732.4844 Q250.9219,732.2656 251.1094,732.1563 Q251.2969,732.0469 251.5156,732.0469 Q251.8906,732.0469 252.125,732.3125 Q252.3594,732.5625 252.3594,733.1719 L252.3594,734.625 Q252.3594,735.2344 252.125,735.5 Q251.8906,735.7656 251.5156,735.7656 Q251.1719,735.7656 250.9688,735.5625 Q250.7656,735.375 250.6563,734.8594 Q250.6094,734.5 250.4219,734.3125 Q250.0938,733.9375 249.4844,733.7188 Q248.875,733.5 248.25,733.5 Q247.4844,733.5 246.8438,733.8281 Q246.2188,734.1563 245.7188,734.9063 Q245.2344,735.6563 245.2344,736.6875 L245.2344,737.7813 Q245.2344,739.0156 246.125,739.8438 Q247.0156,740.6563 248.6094,740.6563 Q249.5469,740.6563 250.2031,740.4063 Q250.5938,740.25 251.0156,739.8125 Q251.2813,739.5469 251.4219,739.4688 Q251.5781,739.3906 251.7813,739.3906 Q252.1094,739.3906 252.3594,739.6563 Q252.625,739.9063 252.625,740.25 Q252.625,740.5938 252.2813,741 Q251.7813,741.5781 250.9844,741.9063 Q249.9063,742.3594 248.6094,742.3594 Q247.0938,742.3594 245.8906,741.7344 Q244.9063,741.2344 244.2188,740.1719 Q243.5313,739.0938 243.5313,737.8125 L243.5313,736.6563 Q243.5313,735.3281 244.1406,734.1875 Q244.7656,733.0313 245.8594,732.4219 Q246.9531,731.7969 248.1875,731.7969 Q248.9219,731.7969 249.5625,731.9688 Q250.2188,732.125 250.7656,732.4844 Z " fill="#000000"/><text fill="#000000" font-family="sans-serif" font-size="14" lengthAdjust="spacing" textLength="89.4688" x="262" y="742.3379">OrdemServico</text></g><!--class Reserva--><g class="entity" data-qualified-name="Viagem e Pagamento.Reserva" data-source-line="22" id="ent0009"><rect fill="#F1F1F1" height="32" rx="2.5" ry="2.5" style="stroke:#181818;stroke-width:0.5;" width="84.1309" x="251.5" y="372.6094"/><ellipse cx="266.5" cy="388.6094" fill="#ADD1B2" rx="11" ry="11" style="stroke:#181818;stroke-width:1;"/><path d="M269.2656,384.4844 Q269.4219,384.2656 269.6094,384.1563 Q269.7969,384.0469 270.0156,384.0469 Q270.3906,384.0469 270.625,384.3125 Q270.8594,384.5625 270.8594,385.1719 L270.8594,386.625 Q270.8594,387.2344 270.625,387.5 Q270.3906,387.7656 270.0156,387.7656 Q269.6719,387.7656 269.4688,387.5625 Q269.2656,387.375 269.1563,386.8594 Q269.1094,386.5 268.9219,386.3125 Q268.5938,385.9375 267.9844,385.7188 Q267.375,385.5 266.75,385.5 Q265.9844,385.5 265.3438,385.8281 Q264.7188,386.1563 264.2188,386.9063 Q263.7344,387.6563 263.7344,388.6875 L263.7344,389.7813 Q263.7344,391.0156 264.625,391.8438 Q265.5156,392.6563 267.1094,392.6563 Q268.0469,392.6563 268.7031,392.4063 Q269.0938,392.25 269.5156,391.8125 Q269.7813,391.5469 269.9219,391.4688 Q270.0781,391.3906 270.2813,391.3906 Q270.6094,391.3906 270.8594,391.6563 Q271.125,391.9063 271.125,392.25 Q271.125,392.5938 270.7813,393 Q270.2813,393.5781 269.4844,393.9063 Q268.4063,394.3594 267.1094,394.3594 Q265.5938,394.3594 264.3906,393.7344 Q263.4063,393.2344 262.7188,392.1719 Q262.0313,391.0938 262.0313,389.8125 L262.0313,388.6563 Q262.0313,387.3281 262.6406,386.1875 Q263.2656,385.0313 264.3594,384.4219 Q265.4531,383.7969 266.6875,383.7969 Q267.4219,383.7969 268.0625,383.9688 Q268.7188,384.125 269.2656,384.4844 Z " fill="#000000"/><text fill="#000000" font-family="sans-serif" font-size="14" lengthAdjust="spacing" textLength="52.1309" x="280.5" y="394.3379">Reserva</text></g><!--class Viagem--><g class="entity" data-qualified-name="Viagem e Pagamento.Viagem" data-source-line="23" id="ent0010"><rect fill="#F1F1F1" height="32" rx="2.5" ry="2.5" style="stroke:#181818;stroke-width:0.5;" width="79.4688" x="254" y="259.6094"/><ellipse cx="269" cy="275.6094" fill="#ADD1B2" rx="11" ry="11" style="stroke:#181818;stroke-width:1;"/><path d="M271.7656,271.4844 Q271.9219,271.2656 272.1094,271.1563 Q272.2969,271.0469 272.5156,271.0469 Q272.8906,271.0469 273.125,271.3125 Q273.3594,271.5625 273.3594,272.1719 L273.3594,273.625 Q273.3594,274.2344 273.125,274.5 Q272.8906,274.7656 272.5156,274.7656 Q272.1719,274.7656 271.9688,274.5625 Q271.7656,274.375 271.6563,273.8594 Q271.6094,273.5 271.4219,273.3125 Q271.0938,272.9375 270.4844,272.7188 Q269.875,272.5 269.25,272.5 Q268.4844,272.5 267.8438,272.8281 Q267.2188,273.1563 266.7188,273.9063 Q266.2344,274.6563 266.2344,275.6875 L266.2344,276.7813 Q266.2344,278.0156 267.125,278.8438 Q268.0156,279.6563 269.6094,279.6563 Q270.5469,279.6563 271.2031,279.4063 Q271.5938,279.25 272.0156,278.8125 Q272.2813,278.5469 272.4219,278.4688 Q272.5781,278.3906 272.7813,278.3906 Q273.1094,278.3906 273.3594,278.6563 Q273.625,278.9063 273.625,279.25 Q273.625,279.5938 273.2813,280 Q272.7813,280.5781 271.9844,280.9063 Q270.9063,281.3594 269.6094,281.3594 Q268.0938,281.3594 266.8906,280.7344 Q265.9063,280.2344 265.2188,279.1719 Q264.5313,278.0938 264.5313,276.8125 L264.5313,275.6563 Q264.5313,274.3281 265.1406,273.1875 Q265.7656,272.0313 266.8594,271.4219 Q267.9531,270.7969 269.1875,270.7969 Q269.9219,270.7969 270.5625,270.9688 Q271.2188,271.125 271.7656,271.4844 Z " fill="#000000"/><text fill="#000000" font-family="sans-serif" font-size="14" lengthAdjust="spacing" textLength="47.4688" x="283" y="281.3379">Viagem</text></g><!--class Tarifa--><g class="entity" data-qualified-name="Viagem e Pagamento.Tarifa" data-source-line="24" id="ent0011"><rect fill="#F1F1F1" height="32" rx="2.5" ry="2.5" style="stroke:#181818;stroke-width:0.5;" width="67.7861" x="566" y="348.6094"/><ellipse cx="581" cy="364.6094" fill="#ADD1B2" rx="11" ry="11" style="stroke:#181818;stroke-width:1;"/><path d="M583.7656,360.4844 Q583.9219,360.2656 584.1094,360.1563 Q584.2969,360.0469 584.5156,360.0469 Q584.8906,360.0469 585.125,360.3125 Q585.3594,360.5625 585.3594,361.1719 L585.3594,362.625 Q585.3594,363.2344 585.125,363.5 Q584.8906,363.7656 584.5156,363.7656 Q584.1719,363.7656 583.9688,363.5625 Q583.7656,363.375 583.6563,362.8594 Q583.6094,362.5 583.4219,362.3125 Q583.0938,361.9375 582.4844,361.7188 Q581.875,361.5 581.25,361.5 Q580.4844,361.5 579.8438,361.8281 Q579.2188,362.1563 578.7188,362.9063 Q578.2344,363.6563 578.2344,364.6875 L578.2344,365.7813 Q578.2344,367.0156 579.125,367.8438 Q580.0156,368.6563 581.6094,368.6563 Q582.5469,368.6563 583.2031,368.4063 Q583.5938,368.25 584.0156,367.8125 Q584.2813,367.5469 584.4219,367.4688 Q584.5781,367.3906 584.7813,367.3906 Q585.1094,367.3906 585.3594,367.6563 Q585.625,367.9063 585.625,368.25 Q585.625,368.5938 585.2813,369 Q584.7813,369.5781 583.9844,369.9063 Q582.9063,370.3594 581.6094,370.3594 Q580.0938,370.3594 578.8906,369.7344 Q577.9063,369.2344 577.2188,368.1719 Q576.5313,367.0938 576.5313,365.8125 L576.5313,364.6563 Q576.5313,363.3281 577.1406,362.1875 Q577.7656,361.0313 578.8594,360.4219 Q579.9531,359.7969 581.1875,359.7969 Q581.9219,359.7969 582.5625,359.9688 Q583.2188,360.125 583.7656,360.4844 Z " fill="#000000"/><text fill="#000000" font-family="sans-serif" font-size="14" lengthAdjust="spacing" textLength="35.7861" x="595" y="370.3379">Tarifa</text></g><!--class Pagamento--><g class="entity" data-qualified-name="Viagem e Pagamento.Pagamento" data-source-line="25" id="ent0012"><rect fill="#F1F1F1" height="32" rx="2.5" ry="2.5" style="stroke:#181818;stroke-width:0.5;" width="103.6064" x="548" y="246.6094"/><ellipse cx="563" cy="262.6094" fill="#ADD1B2" rx="11" ry="11" style="stroke:#181818;stroke-width:1;"/><path d="M565.7656,258.4844 Q565.9219,258.2656 566.1094,258.1563 Q566.2969,258.0469 566.5156,258.0469 Q566.8906,258.0469 567.125,258.3125 Q567.3594,258.5625 567.3594,259.1719 L567.3594,260.625 Q567.3594,261.2344 567.125,261.5 Q566.8906,261.7656 566.5156,261.7656 Q566.1719,261.7656 565.9688,261.5625 Q565.7656,261.375 565.6563,260.8594 Q565.6094,260.5 565.4219,260.3125 Q565.0938,259.9375 564.4844,259.7188 Q563.875,259.5 563.25,259.5 Q562.4844,259.5 561.8438,259.8281 Q561.2188,260.1563 560.7188,260.9063 Q560.2344,261.6563 560.2344,262.6875 L560.2344,263.7813 Q560.2344,265.0156 561.125,265.8438 Q562.0156,266.6563 563.6094,266.6563 Q564.5469,266.6563 565.2031,266.4063 Q565.5938,266.25 566.0156,265.8125 Q566.2813,265.5469 566.4219,265.4688 Q566.5781,265.3906 566.7813,265.3906 Q567.1094,265.3906 567.3594,265.6563 Q567.625,265.9063 567.625,266.25 Q567.625,266.5938 567.2813,267 Q566.7813,267.5781 565.9844,267.9063 Q564.9063,268.3594 563.6094,268.3594 Q562.0938,268.3594 560.8906,267.7344 Q559.9063,267.2344 559.2188,266.1719 Q558.5313,265.0938 558.5313,263.8125 L558.5313,262.6563 Q558.5313,261.3281 559.1406,260.1875 Q559.7656,259.0313 560.8594,258.4219 Q561.9531,257.7969 563.1875,257.7969 Q563.9219,257.7969 564.5625,257.9688 Q565.2188,258.125 565.7656,258.4844 Z " fill="#000000"/><text fill="#000000" font-family="sans-serif" font-size="14" lengthAdjust="spacing" textLength="71.6064" x="577" y="268.3379">Pagamento</text></g><!--link Usuario to Pacote--><g class="link" data-entity-1="ent0002" data-entity-2="ent0003" data-link-type="dependency" data-source-line="28" id="lnk13"><path codeLine="28" d="M103.02,144.3894 C145.59,134.3294 208.394,119.4891 250.294,109.5891" fill="none" id="Usuario-to-Pacote" style="stroke:#181818;stroke-width:1;"/><polygon fill="#181818" points="255.16,108.4394,245.4814,106.6161,250.294,109.5891,247.321,114.4017,255.16,108.4394" style="stroke:#181818;stroke-width:1;stroke-linejoin:miter;stroke-miterlimit:10;"/><text fill="#000000" font-family="sans-serif" font-size="13" lengthAdjust="spacing" textLength="37.5781" x="149.5" y="122.1045">possui</text><text fill="#000000" font-family="sans-serif" font-size="13" lengthAdjust="spacing" textLength="7.23" x="111.3149" y="157.6854">1</text><text fill="#000000" font-family="sans-serif" font-size="13" lengthAdjust="spacing" textLength="7.23" x="240.2456" y="125.1762">1</text></g><!--link Usuario to Reserva--><g class="link" data-entity-1="ent0002" data-entity-2="ent0009" data-link-type="dependency" data-source-line="29" id="lnk14"><path codeLine="29" d="M75.66,169.9594 C98.93,201.9994 153.68,274.4594 209,326.6094 C227.26,343.8294 246.1776,357.8145 263.4276,369.5645" fill="none" id="Usuario-to-Reserva" style="stroke:#181818;stroke-width:1;"/><polygon fill="#181818" points="267.56,372.3794,262.3735,364.0068,263.4276,369.5645,257.8698,370.6186,267.56,372.3794" style="stroke:#181818;stroke-width:1;stroke-linejoin:miter;stroke-miterlimit:10;"/><text fill="#000000" font-family="sans-serif" font-size="13" lengthAdjust="spacing" textLength="38.2954" x="149" y="260.1045">realiza</text><text fill="#000000" font-family="sans-serif" font-size="13" lengthAdjust="spacing" textLength="7.23" x="71.4635" y="190.9655">1</text><text fill="#000000" font-family="sans-serif" font-size="13" lengthAdjust="spacing" textLength="19.5127" x="236.4431" y="361.6059">0..*</text></g><!--link Usuario to Viagem--><g class="link" data-entity-1="ent0002" data-entity-2="ent0010" data-link-type="dependency" data-source-line="30" id="lnk15"><path codeLine="30" d="M94.34,169.8094 C138.17,193.2094 214.2892,233.8546 257.9892,257.1846" fill="none" id="Usuario-to-Viagem" style="stroke:#181818;stroke-width:1;"/><polygon fill="#181818" points="262.4,259.5394,256.3444,251.7722,257.9892,257.1846,252.5768,258.8294,262.4,259.5394" style="stroke:#181818;stroke-width:1;stroke-linejoin:miter;stroke-miterlimit:10;"/><text fill="#000000" font-family="sans-serif" font-size="13" lengthAdjust="spacing" textLength="38.2954" x="149" y="197.1045">realiza</text><text fill="#000000" font-family="sans-serif" font-size="13" lengthAdjust="spacing" textLength="7.23" x="96.2122" y="191.0743">1</text><text fill="#000000" font-family="sans-serif" font-size="13" lengthAdjust="spacing" textLength="19.5127" x="229.4513" y="248.8209">0..*</text></g><!--link Reserva to Veiculo--><g class="link" data-entity-1="ent0009" data-entity-2="ent0005" data-link-type="dependency" data-source-line="32" id="lnk16"><path codeLine="32" d="M300.95,404.6794 C314.53,436.6294 348.99,508.6794 399,550.6094 C447.19,591.0194 512.7862,613.1709 555.9262,624.5809" fill="none" id="Reserva-to-Veiculo" style="stroke:#181818;stroke-width:1;"/><polygon fill="#181818" points="560.76,625.8594,553.082,619.6911,555.9262,624.5809,551.0364,627.4251,560.76,625.8594" style="stroke:#181818;stroke-width:1;stroke-linejoin:miter;stroke-miterlimit:10;"/><text fill="#000000" font-family="sans-serif" font-size="13" lengthAdjust="spacing" textLength="43.3481" x="429.5" y="547.1045">reserva</text><text fill="#000000" font-family="sans-serif" font-size="13" lengthAdjust="spacing" textLength="19.5127" x="281.3342" y="426.2059">0..*</text><text fill="#000000" font-family="sans-serif" font-size="13" lengthAdjust="spacing" textLength="7.23" x="545.6425" y="620.195">1</text></g><!--link Viagem to Veiculo--><g class="link" data-entity-1="ent0010" data-entity-2="ent0005" data-link-type="dependency" data-source-line="33" id="lnk17"><path codeLine="33" d="M311.23,291.7994 C323.73,304.0794 341.07,321.5494 355.5,337.6094 C448.42,441.0194 548.4448,569.0314 583.5048,614.4514" fill="none" id="Viagem-to-Veiculo" style="stroke:#181818;stroke-width:1;"/><polygon fill="#181818" points="586.56,618.4094,584.227,608.8408,583.5048,614.4514,577.8942,613.7291,586.56,618.4094" style="stroke:#181818;stroke-width:1;stroke-linejoin:miter;stroke-miterlimit:10;"/><text fill="#000000" font-family="sans-serif" font-size="13" lengthAdjust="spacing" textLength="33.2363" x="434.5" y="390.1045">utiliza</text><text fill="#000000" font-family="sans-serif" font-size="13" lengthAdjust="spacing" textLength="19.5127" x="294.8603" y="313.0611">0..*</text><text fill="#000000" font-family="sans-serif" font-size="13" lengthAdjust="spacing" textLength="7.23" x="573.7907" y="607.6462">1</text></g><!--link Viagem to Tarifa--><g class="link" data-entity-1="ent0010" data-entity-2="ent0011" data-link-type="dependency" data-source-line="34" id="lnk18"><path codeLine="34" d="M333.19,287.1494 C352.89,293.0094 377.21,300.2194 399,306.6094 C457.63,323.8094 521.2057,342.1941 560.9157,353.6441" fill="none" id="Viagem-to-Tarifa" style="stroke:#181818;stroke-width:1;"/><polygon fill="#181818" points="565.72,355.0294,558.1805,348.6925,560.9157,353.6441,555.9641,356.3793,565.72,355.0294" style="stroke:#181818;stroke-width:1;stroke-linejoin:miter;stroke-miterlimit:10;"/><text fill="#000000" font-family="sans-serif" font-size="13" lengthAdjust="spacing" textLength="20.96" x="441" y="303.1045">usa</text><text fill="#000000" font-family="sans-serif" font-size="13" lengthAdjust="spacing" textLength="7.23" x="341.4003" y="304.4028">1</text><text fill="#000000" font-family="sans-serif" font-size="13" lengthAdjust="spacing" textLength="7.23" x="550.9736" y="368.2349">1</text></g><!--link Viagem to Pagamento--><g class="link" data-entity-1="ent0010" data-entity-2="ent0012" data-link-type="dependency" data-source-line="35" id="lnk19"><path codeLine="35" d="M333.07,273.9594 C387.56,271.6394 482.1945,267.5919 542.8245,265.0119" fill="none" id="Viagem-to-Pagamento" style="stroke:#181818;stroke-width:1;"/><polygon fill="#181818" points="547.82,264.7994,538.6581,261.1856,542.8245,265.0119,538.9982,269.1784,547.82,264.7994" style="stroke:#181818;stroke-width:1;stroke-linejoin:miter;stroke-miterlimit:10;"/><text fill="#000000" font-family="sans-serif" font-size="13" lengthAdjust="spacing" textLength="26.019" x="438" y="264.1045">gera</text><text fill="#000000" font-family="sans-serif" font-size="13" lengthAdjust="spacing" textLength="7.23" x="341.5259" y="269.5893">1</text><text fill="#000000" font-family="sans-serif" font-size="13" lengthAdjust="spacing" textLength="7.23" x="532.6878" y="279.817">1</text></g><!--link OrdemServico to Veiculo--><g class="link" data-entity-1="ent0007" data-entity-2="ent0005" data-link-type="dependency" data-source-line="36" id="lnk20"><path codeLine="36" d="M354.22,723.1694 C396.37,712.9894 453.87,697.6894 503,679.6094 C525.28,671.4094 545.0174,662.2845 563.5474,653.0245" fill="none" id="OrdemServico-to-Veiculo" style="stroke:#181818;stroke-width:1;"/><polygon fill="#181818" points="568.02,650.7894,558.1812,651.2345,563.5474,653.0245,561.7574,658.3907,568.02,650.7894" style="stroke:#181818;stroke-width:1;stroke-linejoin:miter;stroke-miterlimit:10;"/><text fill="#000000" font-family="sans-serif" font-size="13" lengthAdjust="spacing" textLength="78.0571" x="412" y="676.1045">direcionada a</text><text fill="#000000" font-family="sans-serif" font-size="13" lengthAdjust="spacing" textLength="19.5127" x="362.3417" y="736.0558">0..*</text><text fill="#000000" font-family="sans-serif" font-size="13" lengthAdjust="spacing" textLength="7.23" x="549.7606" y="672.0479">1</text></g><!--link Zona to Veiculo--><g class="link" data-entity-1="ent0006" data-entity-2="ent0005" data-link-type="dependency" data-source-line="37" id="lnk21"><path codeLine="37" d="M325.55,637.9894 C346.31,640.0694 374.26,642.5494 399,643.6094 C445.18,645.5894 456.83,645.7694 503,643.6094 C522.06,642.7194 538.2066,641.3545 555.7766,639.5345" fill="none" id="Zona-to-Veiculo" style="stroke:#181818;stroke-width:1;"/><polygon fill="#181818" points="560.75,639.0194,551.3858,635.968,555.7766,639.5345,552.21,643.9254,560.75,639.0194" style="stroke:#181818;stroke-width:1;stroke-linejoin:miter;stroke-miterlimit:10;"/><text fill="#000000" font-family="sans-serif" font-size="13" lengthAdjust="spacing" textLength="102.6162" x="400" y="640.1045">delimita opera&#231;&#227;o</text><text fill="#000000" font-family="sans-serif" font-size="13" lengthAdjust="spacing" textLength="7.23" x="333.3615" y="654.0123">1</text><text fill="#000000" font-family="sans-serif" font-size="13" lengthAdjust="spacing" textLength="19.5127" x="533.4223" y="654.6777">0..*</text></g><?plantuml-src TP9BJXn138RtTGghLmaIQBAAmW8fIfGeAn13Pi7EK-rfhAb7gygD12XI3i4540jMd69kmadYVanFZyYiIYv_zV-soyBY2BupLWazGadmpM7EbE7jxoCiE6-U8_oaX0u-UAmHCllQyOejbh75o-Wthu5Z_cWShGGaGkBgHg3aH5Ou1fFN76fKVQZHhh6YkTofQPl6K3cQ0BOr_ogIUDa8_R8npFcUO3P1GYmfKmsVfvS9mxgz_38pDwnLaQ_b3Zpv9QLipE0BnU_SR9wILWi45sYZK2xWmK1l39f6pMgCoom9hGo9dZL_9b8_KXHKcVDQfxDvqJbDbHR4jd5nZAzZm34uJoNvEQLRjd5FSw7_GBwhhK9FGVOqBxNlTBkJwUanlDBILxliAD4w38r1yQc0u-EpxknxWbEeOyuDlsTc9oT7nTPLkKJe-1uFWKFnEyvidmx0rdYOJKVs7GrF3tADSAUuvIPTz5stJFvlVXo38fN-b9aE_x1Zjxswl5WYe6b_xrsxEvOSUzPbYECg6FCF?></g></svg>