<svg xmlns="http://www.w3.org/2000/svg" xmlns:xlink="http://www.w3.org/1999/xlink" contentStyleType="text/css" data-diagram-type="DESCRIPTION" height="1360px" preserveAspectRatio="none" style="width:762px;height:1360px;background:#FFFFFF;" version="1.1" viewBox="0 0 762 1360" width="762px" zoomAndPan="magnify"><?plantuml 1.2026.4?><defs/><g><g class="title" data-source-line="1"><text fill="#000000" font-family="sans-serif" font-size="14" font-weight="700" lengthAdjust="spacing" textLength="279.7676" x="237.6162" y="24.5332">Diagrama de Casos de Uso &#8212; Vis&#227;o Geral</text></g><!--cluster Sistema de Compartilhamento de Micromobilidade Urbana--><g class="cluster" data-qualified-name="Sistema de Compartilhamento de Micromobilidade Urbana" data-source-line="16" id="ent0007"><rect fill="none" height="1301" rx="2.5" ry="2.5" style="stroke:#181818;stroke-width:1;" width="404" x="344" y="45.6094"/><text fill="#000000" font-family="sans-serif" font-size="14" font-weight="700" lengthAdjust="spacing" textLength="388.9648" x="351.5176" y="62.1426">Sistema de Compartilhamento de Micromobilidade Urbana</text></g><!--cluster Uso do Servi?o--><g class="cluster" data-qualified-name="Sistema de Compartilhamento de Micromobilidade Urbana.Uso do Servi.o" data-source-line="18" id="ent0008"><rect fill="none" height="581" rx="2.5" ry="2.5" style="stroke:#181818;stroke-width:1;" width="191" x="450" y="89.6094"/><text fill="#000000" font-family="sans-serif" font-size="14" font-weight="700" lengthAdjust="spacing" textLength="101.917" x="494.5415" y="106.1426">Uso do Servi&#231;o</text></g><!--cluster Administra??o--><g class="cluster" data-qualified-name="Sistema de Compartilhamento de Micromobilidade Urbana.Administra..o" data-source-line="27" id="ent0015"><rect fill="none" height="388" rx="2.5" ry="2.5" style="stroke:#181818;stroke-width:1;" width="174" x="458.5" y="694.6094"/><text fill="#000000" font-family="sans-serif" font-size="14" font-weight="700" lengthAdjust="spacing" textLength="97.248" x="496.876" y="711.1426">Administra&#231;&#227;o</text></g><!--cluster Opera??o e Manuten??o--><g class="cluster" data-qualified-name="Sistema de Compartilhamento de Micromobilidade Urbana.Opera..o e Manuten..o" data-source-line="34" id="ent0020"><rect fill="none" height="216" rx="2.5" ry="2.5" style="stroke:#181818;stroke-width:1;" width="177" x="457.5" y="1106.6094"/><text fill="#000000" font-family="sans-serif" font-size="14" font-weight="700" lengthAdjust="spacing" textLength="161.8271" x="465.0864" y="1123.1426">Opera&#231;&#227;o e Manuten&#231;&#227;o</text></g><!--entity UC_Consultar--><g class="entity" data-qualified-name="Sistema de Compartilhamento de Micromobilidade Urbana.Uso do Servi.o.UC_Consultar" data-source-line="19" id="ent0009"><ellipse cx="545.2936" cy="433.635" fill="#F1F1F1" rx="78.2936" ry="26.0256" style="stroke:#181818;stroke-width:0.5;"/><text fill="#000000" font-family="sans-serif" font-size="14" lengthAdjust="spacing" textLength="115.165" x="487.711" y="432.909">Consultar ve&#237;culos</text><text fill="#000000" font-family="sans-serif" font-size="14" lengthAdjust="spacing" textLength="70.041" x="510.273" y="450.5184">dispon&#237;veis</text></g><!--entity UC_Reservar--><g class="entity" data-qualified-name="Sistema de Compartilhamento de Micromobilidade Urbana.Uso do Servi.o.UC_Reservar" data-source-line="20" id="ent0010"><ellipse cx="545.5308" cy="637.8155" fill="#F1F1F1" rx="71.5308" ry="16.7062" style="stroke:#181818;stroke-width:0.5;"/><text fill="#000000" font-family="sans-serif" font-size="14" lengthAdjust="spacing" textLength="105.041" x="493.0103" y="643.1202">Reservar ve&#237;culo</text></g><!--entity UC_Iniciar--><g class="entity" data-qualified-name="Sistema de Compartilhamento de Micromobilidade Urbana.Uso do Servi.o.UC_Iniciar" data-source-line="21" id="ent0011"><ellipse cx="545.5694" cy="141.5611" fill="#F1F1F1" rx="64.0694" ry="15.4517" style="stroke:#181818;stroke-width:0.5;"/><text fill="#000000" font-family="sans-serif" font-size="14" lengthAdjust="spacing" textLength="86.3652" x="502.3868" y="146.8658">Iniciar viagem</text></g><!--entity UC_Finalizar--><g class="entity" data-qualified-name="Sistema de Compartilhamento de Micromobilidade Urbana.Uso do Servi.o.UC_Finalizar" data-source-line="22" id="ent0012"><ellipse cx="545.3988" cy="540.7073" fill="#F1F1F1" rx="68.3988" ry="25.5979" style="stroke:#181818;stroke-width:0.5;"/><text fill="#000000" font-family="sans-serif" font-size="14" lengthAdjust="spacing" textLength="101.9238" x="494.4369" y="540.6542">Finalizar viagem</text><text fill="#000000" font-family="sans-serif" font-size="14" lengthAdjust="spacing" textLength="47.4824" x="521.6576" y="558.2636">e pagar</text></g><!--entity UC_Reportar--><g class="entity" data-qualified-name="Sistema de Compartilhamento de Micromobilidade Urbana.Uso do Servi.o.UC_Reportar" data-source-line="23" id="ent0013"><ellipse cx="545.2662" cy="228.4626" fill="#F1F1F1" rx="69.7662" ry="16.3532" style="stroke:#181818;stroke-width:0.5;"/><text fill="#000000" font-family="sans-serif" font-size="14" lengthAdjust="spacing" textLength="100.3926" x="495.0699" y="233.7673">Reportar defeito</text></g><!--entity UC_Vinculo--><g class="entity" data-qualified-name="Sistema de Compartilhamento de Micromobilidade Urbana.Uso do Servi.o.UC_Vinculo" data-source-line="24" id="ent0014"><ellipse cx="545.4564" cy="326.5281" fill="#F1F1F1" rx="79.4564" ry="25.9187" style="stroke:#181818;stroke-width:0.5;"/><text fill="#000000" font-family="sans-serif" font-size="14" lengthAdjust="spacing" textLength="117.4893" x="486.7118" y="325.9686">Comprovar v&#237;nculo</text><text fill="#000000" font-family="sans-serif" font-size="14" lengthAdjust="spacing" textLength="67.7031" x="511.6049" y="343.5779">acad&#234;mico</text></g><!--entity UC_Frota--><g class="entity" data-qualified-name="Sistema de Compartilhamento de Micromobilidade Urbana.Administra..o.UC_Frota" data-source-line="28" id="ent0016"><ellipse cx="545.6689" cy="746.4432" fill="#F1F1F1" rx="67.1689" ry="15.8338" style="stroke:#181818;stroke-width:0.5;"/><text fill="#000000" font-family="sans-serif" font-size="14" lengthAdjust="spacing" textLength="93.3721" x="498.9829" y="751.7478">Gerenciar frota</text></g><!--entity UC_Tarifas--><g class="entity" data-qualified-name="Sistema de Compartilhamento de Micromobilidade Urbana.Administra..o.UC_Tarifas" data-source-line="29" id="ent0017"><ellipse cx="545.4354" cy="834.6965" fill="#F1F1F1" rx="70.9354" ry="16.5871" style="stroke:#181818;stroke-width:0.5;"/><text fill="#000000" font-family="sans-serif" font-size="14" lengthAdjust="spacing" textLength="103.4824" x="493.6942" y="840.0011">Gerenciar tarifas</text></g><!--entity UC_Zonas--><g class="entity" data-qualified-name="Sistema de Compartilhamento de Micromobilidade Urbana.Administra..o.UC_Zonas" data-source-line="30" id="ent0018"><ellipse cx="545.6727" cy="931.7982" fill="#F1F1F1" rx="69.1727" ry="25.6888" style="stroke:#181818;stroke-width:0.5;"/><text fill="#000000" font-family="sans-serif" font-size="14" lengthAdjust="spacing" textLength="102.7168" x="494.3143" y="931.6005">Gerenciar zonas</text><text fill="#000000" font-family="sans-serif" font-size="14" lengthAdjust="spacing" textLength="51.3447" x="520.0003" y="949.2099">e limites</text></g><!--entity UC_Relatorios--><g class="entity" data-qualified-name="Sistema de Compartilhamento de Micromobilidade Urbana.Administra..o.UC_Relatorios" data-source-line="31" id="ent0019"><ellipse cx="545.4633" cy="1039.4966" fill="#F1F1F1" rx="68.9633" ry="26.8872" style="stroke:#181818;stroke-width:0.5;"/><text fill="#000000" font-family="sans-serif" font-size="14" lengthAdjust="spacing" textLength="97.2549" x="496.8359" y="1037.4657">Gerar relat&#243;rios</text><text fill="#000000" font-family="sans-serif" font-size="14" lengthAdjust="spacing" textLength="79.3857" x="505.7705" y="1055.0751">operacionais</text></g><!--entity UC_Monitorar--><g class="entity" data-qualified-name="Sistema de Compartilhamento de Micromobilidade Urbana.Opera..o e Manuten..o.UC_Monitorar" data-source-line="35" id="ent0021"><ellipse cx="545.4701" cy="1170.8577" fill="#F1F1F1" rx="66.9701" ry="27.7483" style="stroke:#181818;stroke-width:0.5;"/><text fill="#000000" font-family="sans-serif" font-size="14" lengthAdjust="spacing" textLength="91.0342" x="499.953" y="1167.5777">Monitorar frota</text><text fill="#000000" font-family="sans-serif" font-size="14" lengthAdjust="spacing" textLength="88.7305" x="501.1048" y="1185.1871">e manuten&#231;&#227;o</text></g><!--entity UC_Ordens--><g class="entity" data-qualified-name="Sistema de Compartilhamento de Micromobilidade Urbana.Opera..o e Manuten..o.UC_Ordens" data-source-line="36" id="ent0022"><ellipse cx="545.3636" cy="1279.7314" fill="#F1F1F1" rx="59.3636" ry="26.622" style="stroke:#181818;stroke-width:0.5;"/><text fill="#000000" font-family="sans-serif" font-size="14" lengthAdjust="spacing" textLength="84.0342" x="503.3465" y="1278.0956">Tratar ordens</text><text fill="#000000" font-family="sans-serif" font-size="14" lengthAdjust="spacing" textLength="63.8066" x="513.4602" y="1295.705">de servi&#231;o</text></g><!--entity Usuario--><g class="entity" data-qualified-name="Usuario" data-source-line="8" id="ent0001"><ellipse cx="30.1206" cy="342.1094" fill="#F1F1F1" rx="8" ry="8" style="stroke:#181818;stroke-width:0.5;"/><path d="M30.1206,350.1094 L30.1206,377.1094 M17.1206,358.1094 L43.1206,358.1094 M30.1206,377.1094 L17.1206,392.1094 M30.1206,377.1094 L43.1206,392.1094" fill="none" style="stroke:#181818;stroke-width:0.5;"/><text fill="#000000" font-family="sans-serif" font-size="14" lengthAdjust="spacing" textLength="48.2412" x="6" y="408.1426">Usu&#225;rio</text></g><!--entity UsuarioAcademico--><g class="entity" data-qualified-name="UsuarioAcademico" data-source-line="9" id="ent0002"><ellipse cx="219.1929" cy="281.1094" fill="#F1F1F1" rx="8" ry="8" style="stroke:#181818;stroke-width:0.5;"/><path d="M219.1929,289.1094 L219.1929,316.1094 M206.1929,297.1094 L232.1929,297.1094 M219.1929,316.1094 L206.1929,331.1094 M219.1929,316.1094 L232.1929,331.1094" fill="none" style="stroke:#181818;stroke-width:0.5;"/><text fill="#000000" font-family="sans-serif" font-size="14" lengthAdjust="spacing" textLength="121.3857" x="158.5" y="347.1426">Usu&#225;rio Acad&#234;mico</text></g><!--entity Administrador--><g class="entity" data-qualified-name="Administrador" data-source-line="10" id="ent0003"><ellipse cx="219.1826" cy="891.1094" fill="#F1F1F1" rx="8" ry="8" style="stroke:#181818;stroke-width:0.5;"/><path d="M219.1826,899.1094 L219.1826,926.1094 M206.1826,907.1094 L232.1826,907.1094 M219.1826,926.1094 L206.1826,941.1094 M219.1826,926.1094 L232.1826,941.1094" fill="none" style="stroke:#181818;stroke-width:0.5;"/><text fill="#000000" font-family="sans-serif" font-size="14" lengthAdjust="spacing" textLength="86.3652" x="176" y="957.1426">Administrador</text></g><!--entity Equipe--><g class="entity" data-qualified-name="Equipe" data-source-line="11" id="ent0004"><ellipse cx="218.9858" cy="1194.1094" fill="#F1F1F1" rx="8" ry="8" style="stroke:#181818;stroke-width:0.5;"/><path d="M218.9858,1202.1094 L218.9858,1229.1094 M205.9858,1210.1094 L231.9858,1210.1094 M218.9858,1229.1094 L205.9858,1244.1094 M218.9858,1229.1094 L231.9858,1244.1094" fill="none" style="stroke:#181818;stroke-width:0.5;"/><text fill="#000000" font-family="sans-serif" font-size="14" lengthAdjust="spacing" textLength="122.9717" x="157.5" y="1260.1426">Equipe Operacional</text></g><!--entity Gateway--><g class="entity" data-qualified-name="Gateway" data-source-line="12" id="ent0005"><ellipse cx="219.103" cy="636.1094" fill="#F1F1F1" rx="8" ry="8" style="stroke:#181818;stroke-width:0.5;"/><path d="M219.103,644.1094 L219.103,671.1094 M206.103,652.1094 L232.103,652.1094 M219.103,671.1094 L206.103,686.1094 M219.103,671.1094 L232.103,686.1094" fill="none" style="stroke:#181818;stroke-width:0.5;"/><text fill="#000000" font-family="sans-serif" font-size="14" lengthAdjust="spacing" textLength="150.2061" x="144" y="702.1426">Gateway de Pagamento</text></g><!--reverse link Usuario to UsuarioAcademico--><g class="link" data-entity-1="ent0001" data-entity-2="ent0002" data-link-type="extension" data-source-line="14" id="lnk6"><path d="M71.4224,359.4267 C97.2624,350.9967 122.87,342.6394 158.18,331.1194" fill="none" id="Usuario-backto-UsuarioAcademico" style="stroke:#181818;stroke-width:1;"/><polygon fill="none" points="54.31,365.0094,73.2833,365.1308,69.5615,353.7225,54.31,365.0094" style="stroke:#181818;stroke-width:1;stroke-linejoin:miter;stroke-miterlimit:10;"/></g><!--link Usuario to UC_Consultar--><g class="link" data-entity-1="ent0001" data-entity-2="ent0009" data-link-type="dependency" data-source-line="40" id="lnk23"><path d="M54.06,375.3494 C126.76,383.9894 348.3049,410.2992 466.3449,424.3292" fill="none" id="Usuario-to-UC_Consultar" style="stroke:#181818;stroke-width:1;"/><polygon fill="#181818" points="471.31,424.9194,462.845,419.8851,466.3449,424.3292,461.9008,427.8292,471.31,424.9194" style="stroke:#181818;stroke-width:1;stroke-linejoin:miter;stroke-miterlimit:10;"/></g><!--link Usuario to UC_Reservar--><g class="link" data-entity-1="ent0001" data-entity-2="ent0010" data-link-type="dependency" data-source-line="41" id="lnk24"><path d="M37.39,411.8294 C52.13,496.9094 91.33,693.9394 144,732.6094 C197.74,772.0694 229.41,749.1394 294,732.6094 C314.62,727.3294 316.54,718.2294 336,709.6094 C391.15,685.1894 452.5768,665.0259 495.3668,651.9959" fill="none" id="Usuario-to-UC_Reservar" style="stroke:#181818;stroke-width:1;"/><polygon fill="#181818" points="500.15,650.5394,490.3751,649.3346,495.3668,651.9959,492.7055,656.9876,500.15,650.5394" style="stroke:#181818;stroke-width:1;stroke-linejoin:miter;stroke-miterlimit:10;"/></g><!--link Usuario to UC_Iniciar--><g class="link" data-entity-1="ent0001" data-entity-2="ent0011" data-link-type="dependency" data-source-line="42" id="lnk25"><path d="M42.98,333.2794 C58.6,289.3094 90.45,219.8094 144,185.6094 C251.59,116.8994 404.3544,123.2041 486.0544,132.8341" fill="none" id="Usuario-to-UC_Iniciar" style="stroke:#181818;stroke-width:1;"/><polygon fill="#181818" points="491.02,133.4194,482.5501,128.3933,486.0544,132.8341,481.6136,136.3383,491.02,133.4194" style="stroke:#181818;stroke-width:1;stroke-linejoin:miter;stroke-miterlimit:10;"/></g><!--link Usuario to UC_Finalizar--><g class="link" data-entity-1="ent0001" data-entity-2="ent0012" data-link-type="dependency" data-source-line="43" id="lnk26"><path d="M54.32,381.8594 C77.13,390.8694 112.87,404.8794 144,416.6094 C228.99,448.6494 249.27,459.6394 336,486.6094 C386.52,502.3194 440.0289,515.9888 482.1389,526.1288" fill="none" id="Usuario-to-UC_Finalizar" style="stroke:#181818;stroke-width:1;"/><polygon fill="#181818" points="487,527.2994,479.1865,521.3036,482.1389,526.1288,477.3137,529.0813,487,527.2994" style="stroke:#181818;stroke-width:1;stroke-linejoin:miter;stroke-miterlimit:10;"/></g><!--link Usuario to UC_Reportar--><g class="link" data-entity-1="ent0001" data-entity-2="ent0013" data-link-type="dependency" data-source-line="44" id="lnk27"><path d="M53.21,333.5394 C72.8,303.2794 104.38,263.4494 144,244.6094 C258.07,190.3894 406.7761,204.199 486.5361,217.299" fill="none" id="Usuario-to-UC_Reportar" style="stroke:#181818;stroke-width:1;"/><polygon fill="#181818" points="491.47,218.1094,483.2373,212.7036,486.5361,217.299,481.9407,220.5978,491.47,218.1094" style="stroke:#181818;stroke-width:1;stroke-linejoin:miter;stroke-miterlimit:10;"/></g><!--link UsuarioAcademico to UC_Vinculo--><g class="link" data-entity-1="ent0002" data-entity-2="ent0014" data-link-type="dependency" data-source-line="45" id="lnk28"><path d="M279.52,314.3594 C332.12,316.7894 404.2053,320.1291 461.6853,322.7791" fill="none" id="UsuarioAcademico-to-UC_Vinculo" style="stroke:#181818;stroke-width:1;"/><polygon fill="#181818" points="466.68,323.0094,457.8738,318.5991,461.6853,322.7791,457.5053,326.5906,466.68,323.0094" style="stroke:#181818;stroke-width:1;stroke-linejoin:miter;stroke-miterlimit:10;"/></g><!--link Gateway to UC_Finalizar--><g class="link" data-entity-1="ent0005" data-entity-2="ent0012" data-link-type="dependency" data-source-line="47" id="lnk29"><path d="M274.4,627.4494 C293.22,615.2594 314.9,602.6594 336,593.6094 C383.37,573.2894 435.3456,560.4426 477.7256,552.0326" fill="none" id="Gateway-to-UC_Finalizar" style="stroke:#181818;stroke-width:1;"/><polygon fill="#181818" points="482.63,551.0594,473.0236,548.8877,477.7256,552.0326,474.5807,556.7347,482.63,551.0594" style="stroke:#181818;stroke-width:1;stroke-linejoin:miter;stroke-miterlimit:10;"/></g><!--link Administrador to UC_Frota--><g class="link" data-entity-1="ent0003" data-entity-2="ent0016" data-link-type="dependency" data-source-line="49" id="lnk30"><path d="M250.16,882.3894 C277.17,848.2694 315.59,802.4894 336,790.6094 C379.81,765.1194 431.4674,754.8322 474.6474,750.2922" fill="none" id="Administrador-to-UC_Frota" style="stroke:#181818;stroke-width:1;"/><polygon fill="#181818" points="479.62,749.7694,470.2511,746.7324,474.6474,750.2922,471.0876,754.6885,479.62,749.7694" style="stroke:#181818;stroke-width:1;stroke-linejoin:miter;stroke-miterlimit:10;"/></g><!--link Administrador to UC_Tarifas--><g class="link" data-entity-1="ent0003" data-entity-2="ent0017" data-link-type="dependency" data-source-line="50" id="lnk31"><path d="M262.2,904.2594 C283.98,895.7494 311.14,885.7994 336,878.6094 C386.64,863.9694 440.5919,852.8906 482.8319,845.1506" fill="none" id="Administrador-to-UC_Tarifas" style="stroke:#181818;stroke-width:1;"/><polygon fill="#181818" points="487.75,844.2494,478.1764,841.937,482.8319,845.1506,479.6183,849.806,487.75,844.2494" style="stroke:#181818;stroke-width:1;stroke-linejoin:miter;stroke-miterlimit:10;"/></g><!--link Administrador to UC_Zonas--><g class="link" data-entity-1="ent0003" data-entity-2="ent0018" data-link-type="dependency" data-source-line="51" id="lnk32"><path d="M262.09,922.9094 C316.45,924.5794 406.7624,927.3657 471.4724,929.3557" fill="none" id="Administrador-to-UC_Zonas" style="stroke:#181818;stroke-width:1;"/><polygon fill="#181818" points="476.47,929.5094,467.5972,925.2346,471.4724,929.3557,467.3513,933.2308,476.47,929.5094" style="stroke:#181818;stroke-width:1;stroke-linejoin:miter;stroke-miterlimit:10;"/></g><!--link Administrador to UC_Relatorios--><g class="link" data-entity-1="ent0003" data-entity-2="ent0019" data-link-type="dependency" data-source-line="52" id="lnk33"><path d="M262.06,947.6294 C283.58,960.1094 310.54,974.5094 336,984.6094 C384.19,1003.7294 436.3872,1017.1832 478.6272,1026.4932" fill="none" id="Administrador-to-UC_Relatorios" style="stroke:#181818;stroke-width:1;"/><polygon fill="#181818" points="483.51,1027.5694,475.5819,1021.726,478.6272,1026.4932,473.86,1029.5384,483.51,1027.5694" style="stroke:#181818;stroke-width:1;stroke-linejoin:miter;stroke-miterlimit:10;"/></g><!--link Equipe to UC_Monitorar--><g class="link" data-entity-1="ent0004" data-entity-2="ent0021" data-link-type="dependency" data-source-line="54" id="lnk34"><path d="M280.66,1214.5194 C338.44,1204.8994 420.0578,1191.3201 478.1078,1181.6601" fill="none" id="Equipe-to-UC_Monitorar" style="stroke:#181818;stroke-width:1;"/><polygon fill="#181818" points="483.04,1180.8394,473.5055,1178.371,478.1078,1181.6601,474.8187,1186.2625,483.04,1180.8394" style="stroke:#181818;stroke-width:1;stroke-linejoin:miter;stroke-miterlimit:10;"/></g><!--link Equipe to UC_Ordens--><g class="link" data-entity-1="ent0004" data-entity-2="ent0022" data-link-type="dependency" data-source-line="55" id="lnk35"><path d="M280.66,1234.8894 C340.64,1245.0594 426.7003,1259.6436 484.6203,1269.4636" fill="none" id="Equipe-to-UC_Ordens" style="stroke:#181818;stroke-width:1;"/><polygon fill="#181818" points="489.55,1270.2994,481.3453,1264.8512,484.6203,1269.4636,480.008,1272.7387,489.55,1270.2994" style="stroke:#181818;stroke-width:1;stroke-linejoin:miter;stroke-miterlimit:10;"/></g><?plantuml-src TLJ1Qjmm4BthAyJU5th9eL0AOTk67a9ADicXB8I9FUiCQsjSITwIj85-H7-Wz10exAcVu3_fbtHaMzwrlV79Vk-DFFFq94y-H_sE8BDGW4vHBy2n2o_NZlM_7p_r3RdwD-ipj90hbUFQQy_QKdRlTKeM4qzibDkGAK4MqIKa6yXmwHzavK23oN8y41XEqM6fJquEG0jc4y3NhvI2nBFLisjNrRyiyKo3asugaFSnfqyJIEi_1IK3MK0nW55_cXPao7aBATj6EK2YxFsNYahK5wKCcyXOa3VQ5ewYC_3u5Hw2HvyWWmADRt_U4KfrNUWtt-VpQKkgDqNFbj81TiPp8LPuok_R9GDsJedbWkyefnJ2djWxC33JtvJIqUXWXeXPBz5kgNxcG6jvAeS9EE4NR5oLUx1wY_KkgN9sAvEIAzdKkosIQwrRtFR2OVsbR9VT7fH7VII6ye-64WfgIHKMKTkXG-a74elfiHUl3CfO6TXOrGl67PLimq0fhf7yGKCjFfw_A2qt0zGx4mPO6HZbPd5xGmqbfKy3T_T1gP_b84pSbOE1fXbuRTb3ttduU4afBT8QUj-lsi-Nr8yIH1UioQaWZttPvu1FYgJ0OWw-_YkfapBkmxpVwCiWuC1Fncsotqog9NzWAe_c-E3dRCHw6mSF3HO3VVklNZQilh8GDf1jYYR44RNhyziMNZHKq-3J_apDvs-7KHqHVIP7UCpV2Du7RB9E5wNn-Os2c1SLxuF9Ycfmn_Hy4uoZLCp1KRBTxQFKmNQgxWhhcBtvGxprzZy0?></g></svg>