<svg xmlns="http://www.w3.org/2000/svg" xmlns:xlink="http://www.w3.org/1999/xlink" contentStyleType="text/css" data-diagram-type="DESCRIPTION" height="985px" preserveAspectRatio="none" style="width:868px;height:985px;background:#FFFFFF;" version="1.1" viewBox="0 0 868 985" width="868px" zoomAndPan="magnify"><?plantuml 1.2026.4?><defs/><g><g class="title" data-source-line="1"><text fill="#000000" font-family="sans-serif" font-size="14" font-weight="700" lengthAdjust="spacing" textLength="304.6436" x="278.2395" y="24.5332">Diagrama de Casos de Uso &#8212; Uso do Servi&#231;o</text></g><!--cluster Uso do Servi?o--><g class="cluster" data-qualified-name="Uso do Servi.o" data-source-line="15" id="ent0006"><rect fill="none" height="780" rx="2.5" ry="2.5" style="stroke:#181818;stroke-width:1;" width="205" x="404" y="101.3794"/><text fill="#000000" font-family="sans-serif" font-size="14" font-weight="700" lengthAdjust="spacing" textLength="101.917" x="455.5415" y="117.9126">Uso do Servi&#231;o</text></g><!--entity UC_Consultar--><g class="entity" data-qualified-name="Uso do Servi.o.UC_Consultar" data-source-line="16" id="ent0007"><ellipse cx="506.2936" cy="660.405" fill="#F1F1F1" rx="78.2936" ry="26.0256" style="stroke:#181818;stroke-width:0.5;"/><text fill="#000000" font-family="sans-serif" font-size="14" lengthAdjust="spacing" textLength="115.165" x="448.711" y="659.679">Consultar ve&#237;culos</text><text fill="#000000" font-family="sans-serif" font-size="14" lengthAdjust="spacing" textLength="70.041" x="471.273" y="677.2884">dispon&#237;veis</text></g><!--entity UC_Reservar--><g class="entity" data-qualified-name="Uso do Servi.o.UC_Reservar" data-source-line="17" id="ent0008"><ellipse cx="506.5308" cy="348.5855" fill="#F1F1F1" rx="71.5308" ry="16.7062" style="stroke:#181818;stroke-width:0.5;"/><text fill="#000000" font-family="sans-serif" font-size="14" lengthAdjust="spacing" textLength="105.041" x="454.0103" y="353.8902">Reservar ve&#237;culo</text></g><!--entity UC_Desbloquear--><g class="entity" data-qualified-name="Uso do Servi.o.UC_Desbloquear" data-source-line="18" id="ent0009"><ellipse cx="506.6969" cy="553.4744" fill="#F1F1F1" rx="86.6969" ry="26.095" style="stroke:#181818;stroke-width:0.5;"/><text fill="#000000" font-family="sans-serif" font-size="14" lengthAdjust="spacing" textLength="127.6338" x="442.88" y="552.6409">Desbloquear ve&#237;culo</text><text fill="#000000" font-family="sans-serif" font-size="14" lengthAdjust="spacing" textLength="80.1445" x="466.6246" y="570.2503">via QR Code</text></g><!--entity UC_Iniciar--><g class="entity" data-qualified-name="Uso do Servi.o.UC_Iniciar" data-source-line="19" id="ent0010"><ellipse cx="506.5694" cy="153.3311" fill="#F1F1F1" rx="64.0694" ry="15.4517" style="stroke:#181818;stroke-width:0.5;"/><text fill="#000000" font-family="sans-serif" font-size="14" lengthAdjust="spacing" textLength="86.3652" x="463.3868" y="158.6358">Iniciar viagem</text></g><!--entity UC_Historico--><g class="entity" data-qualified-name="Uso do Servi.o.UC_Historico" data-source-line="20" id="ent0011"><ellipse cx="506.531" cy="446.3237" fill="#F1F1F1" rx="78.531" ry="25.9443" style="stroke:#181818;stroke-width:0.5;"/><text fill="#000000" font-family="sans-serif" font-size="14" lengthAdjust="spacing" textLength="115.9375" x="448.5622" y="445.7242">Consultar hist&#243;rico</text><text fill="#000000" font-family="sans-serif" font-size="14" lengthAdjust="spacing" textLength="67.7168" x="472.6726" y="463.3335">de viagens</text></g><!--entity UC_Creditos--><g class="entity" data-qualified-name="Uso do Servi.o.UC_Creditos" data-source-line="21" id="ent0012"><ellipse cx="506.558" cy="759.191" fill="#F1F1F1" rx="74.558" ry="17.3116" style="stroke:#181818;stroke-width:0.5;"/><text fill="#000000" font-family="sans-serif" font-size="14" lengthAdjust="spacing" textLength="112.8271" x="450.1445" y="764.4957">Consultar cr&#233;ditos</text></g><!--entity UC_Reportar--><g class="entity" data-qualified-name="Uso do Servi.o.UC_Reportar" data-source-line="22" id="ent0013"><ellipse cx="506.2662" cy="848.2326" fill="#F1F1F1" rx="69.7662" ry="16.3532" style="stroke:#181818;stroke-width:0.5;"/><text fill="#000000" font-family="sans-serif" font-size="14" lengthAdjust="spacing" textLength="100.3926" x="456.0699" y="853.5373">Reportar defeito</text></g><!--entity UC_Vinculo--><g class="entity" data-qualified-name="Uso do Servi.o.UC_Vinculo" data-source-line="23" id="ent0014"><ellipse cx="506.4564" cy="250.2981" fill="#F1F1F1" rx="79.4564" ry="25.9187" style="stroke:#181818;stroke-width:0.5;"/><text fill="#000000" font-family="sans-serif" font-size="14" lengthAdjust="spacing" textLength="117.4893" x="447.7118" y="249.7386">Comprovar v&#237;nculo</text><text fill="#000000" font-family="sans-serif" font-size="14" lengthAdjust="spacing" textLength="67.7031" x="472.6049" y="267.3479">acad&#234;mico</text></g><!--entity Usuario--><g class="entity" data-qualified-name="Usuario" data-source-line="8" id="ent0001"><ellipse cx="30.1206" cy="505.8794" fill="#F1F1F1" rx="8" ry="8" style="stroke:#181818;stroke-width:0.5;"/><path d="M30.1206,513.8794 L30.1206,540.8794 M17.1206,521.8794 L43.1206,521.8794 M30.1206,540.8794 L17.1206,555.8794 M30.1206,540.8794 L43.1206,555.8794" fill="none" style="stroke:#181818;stroke-width:0.5;"/><text fill="#000000" font-family="sans-serif" font-size="14" lengthAdjust="spacing" textLength="48.2412" x="6" y="571.9126">Usu&#225;rio</text></g><!--entity UsuarioAcademico--><g class="entity" data-qualified-name="UsuarioAcademico" data-source-line="9" id="ent0002"><ellipse cx="209.1929" cy="150.8794" fill="#F1F1F1" rx="8" ry="8" style="stroke:#181818;stroke-width:0.5;"/><path d="M209.1929,158.8794 L209.1929,185.8794 M196.1929,166.8794 L222.1929,166.8794 M209.1929,185.8794 L196.1929,200.8794 M209.1929,185.8794 L222.1929,200.8794" fill="none" style="stroke:#181818;stroke-width:0.5;"/><text fill="#000000" font-family="sans-serif" font-size="14" lengthAdjust="spacing" textLength="121.3857" x="148.5" y="216.9126">Usu&#225;rio Acad&#234;mico</text></g><!--entity GPS--><g class="entity" data-qualified-name="GPS" data-source-line="10" id="ent0003"><ellipse cx="209.0239" cy="749.8794" fill="#F1F1F1" rx="8" ry="8" style="stroke:#181818;stroke-width:0.5;"/><path d="M209.0239,757.8794 L209.0239,784.8794 M196.0239,765.8794 L222.0239,765.8794 M209.0239,784.8794 L196.0239,799.8794 M209.0239,784.8794 L222.0239,799.8794" fill="none" style="stroke:#181818;stroke-width:0.5;"/><text fill="#000000" font-family="sans-serif" font-size="14" lengthAdjust="spacing" textLength="119.0479" x="149.5" y="815.9126">Servi&#231;o GPS/Mapa</text></g><!--entity Firmware--><g class="entity" data-qualified-name="Firmware" data-source-line="11" id="ent0004"><ellipse cx="209.1895" cy="505.8794" fill="#F1F1F1" rx="8" ry="8" style="stroke:#181818;stroke-width:0.5;"/><path d="M209.1895,513.8794 L209.1895,540.8794 M196.1895,521.8794 L222.1895,521.8794 M209.1895,540.8794 L196.1895,555.8794 M209.1895,540.8794 L222.1895,555.8794" fill="none" style="stroke:#181818;stroke-width:0.5;"/><text fill="#000000" font-family="sans-serif" font-size="14" lengthAdjust="spacing" textLength="128.3789" x="145" y="571.9126">Firmware do Ve&#237;culo</text></g><g class="entity" data-qualified-name="GMN26" data-source-line="41" id="ent0027"><path d="M684,123.8794 L684,149.3794 L570.77,153.3794 L684,157.3794 L684,182.9341 A0,0 0 0 0 684,182.9341 L853.1226,182.9341 A0,0 0 0 0 853.1226,182.9341 L853.1226,133.8794 L843.1226,123.8794 L684,123.8794 A0,0 0 0 0 684,123.8794" fill="#FEFFDD" style="stroke:#181818;stroke-width:0.5;"/><path d="M843.1226,123.8794 L843.1226,133.8794 L853.1226,133.8794 L843.1226,123.8794" fill="#FEFFDD" style="stroke:#181818;stroke-width:0.5;"/><text fill="#000000" font-family="sans-serif" font-size="13" lengthAdjust="spacing" textLength="148.1226" x="690" y="142.3745">O in&#237;cio da viagem ocorre</text><text fill="#000000" font-family="sans-serif" font-size="13" lengthAdjust="spacing" textLength="130.8315" x="690" y="158.7261">ap&#243;s o desbloqueio do</text><text fill="#000000" font-family="sans-serif" font-size="13" lengthAdjust="spacing" textLength="122.8335" x="690" y="175.0776">ve&#237;culo via QR Code.</text></g><!--reverse link Usuario to UsuarioAcademico--><g class="link" data-entity-1="ent0001" data-entity-2="ent0002" data-link-type="extension" data-source-line="13" id="lnk5"><path d="M33.7624,479.2623 C37.6624,422.8923 50.24,335.6094 99,262.3794 C111.61,243.4394 130.2,227.2694 148.47,214.4694" fill="none" id="Usuario-backto-UsuarioAcademico" style="stroke:#181818;stroke-width:1;"/><polygon fill="none" points="32.52,497.2194,39.7481,479.6764,27.7767,478.8482,32.52,497.2194" style="stroke:#181818;stroke-width:1;stroke-linejoin:miter;stroke-miterlimit:10;"/></g><!--link Usuario to UC_Consultar--><g class="link" data-entity-1="ent0001" data-entity-2="ent0007" data-link-type="dependency" data-source-line="26" id="lnk15"><path d="M31.98,575.5294 C36.07,644.1794 55.54,784.8894 145,847.3794 C191.64,879.9594 220.33,868.8894 273,847.3794 C331.77,823.3794 335.03,796.6994 375,747.3794 C385.94,733.8694 383.06,725.9894 396,714.3794 C412.33,699.7294 428.8002,690.1507 448.0502,681.4907" fill="none" id="Usuario-to-UC_Consultar" style="stroke:#181818;stroke-width:1;"/><polygon fill="#181818" points="452.61,679.4394,442.7612,679.4839,448.0502,681.4907,446.0434,686.7796,452.61,679.4394" style="stroke:#181818;stroke-width:1;stroke-linejoin:miter;stroke-miterlimit:10;"/></g><!--link Usuario to UC_Reservar--><g class="link" data-entity-1="ent0001" data-entity-2="ent0008" data-link-type="dependency" data-source-line="27" id="lnk16"><path d="M54.03,502.1894 C66.3,485.2894 82.29,465.1894 99,449.3794 C178.42,374.2594 211.23,360.8694 318,337.3794 C362.43,327.5994 409.1677,330.9918 447.0077,336.7918" fill="none" id="Usuario-to-UC_Reservar" style="stroke:#181818;stroke-width:1;"/><polygon fill="#181818" points="451.95,337.5494,443.6599,332.232,447.0077,336.7918,442.4479,340.1396,451.95,337.5494" style="stroke:#181818;stroke-width:1;stroke-linejoin:miter;stroke-miterlimit:10;"/></g><!--link Usuario to UC_Desbloquear--><g class="link" data-entity-1="ent0001" data-entity-2="ent0009" data-link-type="dependency" data-source-line="28" id="lnk17"><path d="M54.25,554.7994 C76.2,570.9294 110.77,593.1794 145,602.3794 C251.75,631.0494 376.2731,599.2299 447.3931,575.1999" fill="none" id="Usuario-to-UC_Desbloquear" style="stroke:#181818;stroke-width:1;"/><polygon fill="#181818" points="452.13,573.5994,442.3231,572.6908,447.3931,575.1999,444.884,580.2698,452.13,573.5994" style="stroke:#181818;stroke-width:1;stroke-linejoin:miter;stroke-miterlimit:10;"/></g><!--link Usuario to UC_Iniciar--><g class="link" data-entity-1="ent0001" data-entity-2="ent0010" data-link-type="dependency" data-source-line="29" id="lnk18"><path d="M35.12,497.1994 C46.18,400.8394 80.19,157.0594 145,114.3794 C250.94,44.6094 408.9313,106.699 473.3213,137.199" fill="none" id="Usuario-to-UC_Iniciar" style="stroke:#181818;stroke-width:1;"/><polygon fill="#181818" points="477.84,139.3394,471.4187,131.8717,473.3213,137.199,467.994,139.1016,477.84,139.3394" style="stroke:#181818;stroke-width:1;stroke-linejoin:miter;stroke-miterlimit:10;"/></g><!--link Usuario to UC_Historico--><g class="link" data-entity-1="ent0001" data-entity-2="ent0011" data-link-type="dependency" data-source-line="30" id="lnk19"><path d="M54.35,518.1894 C76.36,502.1694 110.98,479.8094 145,469.3794 C239.88,440.2894 350.2235,438.1823 424.4635,440.9623" fill="none" id="Usuario-to-UC_Historico" style="stroke:#181818;stroke-width:1;"/><polygon fill="#181818" points="429.46,441.1494,420.616,436.8154,424.4635,440.9623,420.3166,444.8098,429.46,441.1494" style="stroke:#181818;stroke-width:1;stroke-linejoin:miter;stroke-miterlimit:10;"/></g><!--link Usuario to UC_Creditos--><g class="link" data-entity-1="ent0001" data-entity-2="ent0012" data-link-type="dependency" data-source-line="31" id="lnk20"><path d="M37.18,575.6394 C51.4,659.6094 89.5,851.4094 145,880.3794 C195.43,906.6994 217.43,892.5694 273,880.3794 C321.76,869.6894 336.44,865.0694 375,833.3794 C387.29,823.2794 383.5,814.2194 396,804.3794 C414.01,790.1994 432.3854,781.5044 452.7154,774.3244" fill="none" id="Usuario-to-UC_Creditos" style="stroke:#181818;stroke-width:1;"/><polygon fill="#181818" points="457.43,772.6594,447.6116,771.8848,452.7154,774.3244,450.2758,779.4282,457.43,772.6594" style="stroke:#181818;stroke-width:1;stroke-linejoin:miter;stroke-miterlimit:10;"/></g><!--link Usuario to UC_Reportar--><g class="link" data-entity-1="ent0001" data-entity-2="ent0013" data-link-type="dependency" data-source-line="32" id="lnk21"><path d="M36.32,575.4394 C49.32,663.7894 86.03,873.9194 145,907.3794 C256.42,970.5994 412.0589,899.6923 474.6189,865.9623" fill="none" id="Usuario-to-UC_Reportar" style="stroke:#181818;stroke-width:1;"/><polygon fill="#181818" points="479.02,863.5894,469.1998,864.3397,474.6189,865.9623,472.9964,871.3814,479.02,863.5894" style="stroke:#181818;stroke-width:1;stroke-linejoin:miter;stroke-miterlimit:10;"/></g><!--link UsuarioAcademico to UC_Vinculo--><g class="link" data-entity-1="ent0002" data-entity-2="ent0014" data-link-type="dependency" data-source-line="34" id="lnk22"><path d="M269.8,195.3394 C319.63,206.9794 385.5909,222.3828 436.5709,234.2828" fill="none" id="UsuarioAcademico-to-UC_Vinculo" style="stroke:#181818;stroke-width:1;"/><polygon fill="#181818" points="441.44,235.4194,433.5849,229.4783,436.5709,234.2828,431.7664,237.2688,441.44,235.4194" style="stroke:#181818;stroke-width:1;stroke-linejoin:miter;stroke-miterlimit:10;"/></g><!--link GPS to UC_Consultar--><g class="link" data-entity-1="ent0003" data-entity-2="ent0007" data-link-type="dependency" data-source-line="35" id="lnk23"><path d="M268.73,756.5294 C323.6,734.2494 399.9573,703.2403 451.5573,682.2903" fill="none" id="GPS-to-UC_Consultar" style="stroke:#181818;stroke-width:1;"/><polygon fill="#181818" points="456.19,680.4094,446.3464,680.0889,451.5573,682.2903,449.3558,687.5012,456.19,680.4094" style="stroke:#181818;stroke-width:1;stroke-linejoin:miter;stroke-miterlimit:10;"/></g><!--link Firmware to UC_Desbloquear--><g class="link" data-entity-1="ent0004" data-entity-2="ent0009" data-link-type="dependency" data-source-line="36" id="lnk24"><path d="M273.03,540.0094 C316.25,542.4894 369.0982,545.5325 416.2582,548.2425" fill="none" id="Firmware-to-UC_Desbloquear" style="stroke:#181818;stroke-width:1;"/><polygon fill="#181818" points="421.25,548.5294,412.4943,544.0196,416.2582,548.2425,412.0353,552.0065,421.25,548.5294" style="stroke:#181818;stroke-width:1;stroke-linejoin:miter;stroke-miterlimit:10;"/></g><!--link UC_Iniciar to UC_Desbloquear--><g class="link" data-entity-1="ent0010" data-entity-2="ent0009" data-link-type="dependency" data-source-line="38" id="lnk25"><path d="M456.06,163.0694 C435.07,169.3994 411.93,179.7094 396,196.3794 C351.36,243.0994 331.09,300.8894 344,368.3794 C355.76,429.9094 353.44,453.4194 396,499.3794 C410,514.4994 424.5942,523.8291 443.0142,532.1591" fill="none" id="UC_Iniciar-to-UC_Desbloquear" style="stroke:#181818;stroke-width:1;stroke-dasharray:7,7;"/><polygon fill="#181818" points="447.57,534.2194,441.0178,526.8663,443.0142,532.1591,437.7213,534.1556,447.57,534.2194" style="stroke:#181818;stroke-width:1;stroke-linejoin:miter;stroke-miterlimit:10;"/><text fill="#000000" font-family="sans-serif" font-size="13" lengthAdjust="spacing" textLength="55.6563" x="319" y="364.8745">&#171;include&#187;</text></g><?plantuml-src RLHBZjD04DttAKhPPs0p2r0K2Nd4Pu60YMPM8usAxagc5RlBTBUD421n22x02e6KrHp1D-4aTDlk-9EiOjTxLTNlzOkzzZd1bSQTnG914MJesCM76yVmxyVFzbSnRCZMkldDGkIqzU0PhDuzU53QalIQZN1xRKeCSw14kSSTRVoNC3p2Q7OvZGY65JaguV9oLBHezh7uxAaGA3rRMDouglbbDIy0NJX8XU5vZi4BYQhvMsWveSKgnMBY9m7mwltcoLiiiMM7bqHugMtn6Ir5jRVK76ILTnCJ84G_6rRVbilJHU8eDPvkuje2lWg0of545z2CZQjoZnRgVf6xCqgxaarpg4cxJabsVoIEkw-3TxOUDITs0iRaAt8VS_vKqOX_PsgDyE4Qid0FgNb47FU_CLhgs1ioGaKYzzNpcXwqyysZ3PO4KTHrcgEarm7b29vlbhRvexJdmG9BxVlKWP9jP2lQKW070xhwT7HHMcxjQWwcau-po6Jtjxg5nFVXafVBzVGAPi3HxLbzREGCIhRDoeCbyzr9-ydgNgUOXp0nafwGxrCXnwIVER4OZWaNSnIUmseL9kULelLQ2CEU-ky0RwUvU0SwP5c6ColimmCisOQ_4G2MpQE30ANHaHO3aH8Aeu1U238Augh_?></g></svg>