<svg xmlns="http://www.w3.org/2000/svg" xmlns:xlink="http://www.w3.org/1999/xlink" contentStyleType="text/css" data-diagram-type="DESCRIPTION" height="721px" preserveAspectRatio="none" style="width:872px;height:721px;background:#FFFFFF;" version="1.1" viewBox="0 0 872 721" width="872px" zoomAndPan="magnify"><?plantuml 1.2026.4?><defs/><g><g class="title" data-source-line="1"><text fill="#000000" font-family="sans-serif" font-size="14" font-weight="700" lengthAdjust="spacing" textLength="457.9258" x="203.7092" y="24.5332">Diagrama de Casos de Uso &#8212; Encerramento, Tarifa&#231;&#227;o e Pagamento</text></g><!--cluster Encerramento, Tarifa??o e Pagamento--><g class="cluster" data-qualified-name="Encerramento. Tarifa..o e Pagamento" data-source-line="12" id="ent0004"><rect fill="none" height="559" rx="2.5" ry="2.5" style="stroke:#181818;stroke-width:1;" width="271" x="294" y="123.1094"/><text fill="#000000" font-family="sans-serif" font-size="14" font-weight="700" lengthAdjust="spacing" textLength="255.1992" x="301.9004" y="139.6426">Encerramento, Tarifa&#231;&#227;o e Pagamento</text></g><!--entity UC_Finalizar--><g class="entity" data-qualified-name="Encerramento. Tarifa..o e Pagamento.UC_Finalizar" data-source-line="13" id="ent0005"><ellipse cx="429.3988" cy="418.2073" fill="#F1F1F1" rx="68.3988" ry="25.5979" style="stroke:#181818;stroke-width:0.5;"/><text fill="#000000" font-family="sans-serif" font-size="14" lengthAdjust="spacing" textLength="101.9238" x="378.4369" y="418.1542">Finalizar viagem</text><text fill="#000000" font-family="sans-serif" font-size="14" lengthAdjust="spacing" textLength="47.4824" x="405.6576" y="435.7636">e pagar</text></g><!--entity UC_ValidarLocal--><g class="entity" data-qualified-name="Encerramento. Tarifa..o e Pagamento.UC_ValidarLocal" data-source-line="14" id="ent0006"><ellipse cx="429.3508" cy="638.3203" fill="#F1F1F1" rx="72.3508" ry="27.7109" style="stroke:#181818;stroke-width:0.5;"/><text fill="#000000" font-family="sans-serif" font-size="14" lengthAdjust="spacing" textLength="95.7236" x="381.489" y="634.547">Validar local de</text><text fill="#000000" font-family="sans-serif" font-size="14" lengthAdjust="spacing" textLength="98.8408" x="379.9304" y="652.1564">estacionamento</text></g><!--entity UC_Calcular--><g class="entity" data-qualified-name="Encerramento. Tarifa..o e Pagamento.UC_Calcular" data-source-line="15" id="ent0007"><ellipse cx="429.5675" cy="293.0927" fill="#F1F1F1" rx="60.0675" ry="26.4834" style="stroke:#181818;stroke-width:0.5;"/><text fill="#000000" font-family="sans-serif" font-size="14" lengthAdjust="spacing" textLength="85.5859" x="386.7745" y="291.6658">Calcular valor</text><text fill="#000000" font-family="sans-serif" font-size="14" lengthAdjust="spacing" textLength="62.2549" x="398.44" y="309.2751">da corrida</text></g><!--entity UC_Processar--><g class="entity" data-qualified-name="Encerramento. Tarifa..o e Pagamento.UC_Processar" data-source-line="16" id="ent0008"><ellipse cx="429.4119" cy="535.8918" fill="#F1F1F1" rx="84.4119" ry="19.2824" style="stroke:#181818;stroke-width:0.5;"/><text fill="#000000" font-family="sans-serif" font-size="14" lengthAdjust="spacing" textLength="136.9648" x="360.9295" y="541.1965">Processar pagamento</text></g><!--entity UC_Historico--><g class="entity" data-qualified-name="Encerramento. Tarifa..o e Pagamento.UC_Historico" data-source-line="17" id="ent0009"><ellipse cx="429.3754" cy="185.0161" fill="#F1F1F1" rx="76.3754" ry="25.9068" style="stroke:#181818;stroke-width:0.5;"/><text fill="#000000" font-family="sans-serif" font-size="14" lengthAdjust="spacing" textLength="112.8135" x="372.9687" y="184.4753">Registrar hist&#243;rico</text><text fill="#000000" font-family="sans-serif" font-size="14" lengthAdjust="spacing" textLength="64.5928" x="397.0791" y="202.0846">da viagem</text></g><!--entity Usuario--><g class="entity" data-qualified-name="Usuario" data-source-line="8" id="ent0001"><ellipse cx="81.1206" cy="372.6094" fill="#F1F1F1" rx="8" ry="8" style="stroke:#181818;stroke-width:0.5;"/><path d="M81.1206,380.6094 L81.1206,407.6094 M68.1206,388.6094 L94.1206,388.6094 M81.1206,407.6094 L68.1206,422.6094 M81.1206,407.6094 L94.1206,422.6094" fill="none" style="stroke:#181818;stroke-width:0.5;"/><text fill="#000000" font-family="sans-serif" font-size="14" lengthAdjust="spacing" textLength="48.2412" x="57" y="438.6426">Usu&#225;rio</text></g><!--entity Gateway--><g class="entity" data-qualified-name="Gateway" data-source-line="9" id="ent0002"><ellipse cx="81.103" cy="505.6094" fill="#F1F1F1" rx="8" ry="8" style="stroke:#181818;stroke-width:0.5;"/><path d="M81.103,513.6094 L81.103,540.6094 M68.103,521.6094 L94.103,521.6094 M81.103,540.6094 L68.103,555.6094 M81.103,540.6094 L94.103,555.6094" fill="none" style="stroke:#181818;stroke-width:0.5;"/><text fill="#000000" font-family="sans-serif" font-size="14" lengthAdjust="spacing" textLength="150.2061" x="6" y="571.6426">Gateway de Pagamento</text></g><!--entity GPS--><g class="entity" data-qualified-name="GPS" data-source-line="10" id="ent0003"><ellipse cx="81.0239" cy="638.6094" fill="#F1F1F1" rx="8" ry="8" style="stroke:#181818;stroke-width:0.5;"/><path d="M81.0239,646.6094 L81.0239,673.6094 M68.0239,654.6094 L94.0239,654.6094 M81.0239,673.6094 L68.0239,688.6094 M81.0239,673.6094 L94.0239,688.6094" fill="none" style="stroke:#181818;stroke-width:0.5;"/><text fill="#000000" font-family="sans-serif" font-size="14" lengthAdjust="spacing" textLength="119.0479" x="21.5" y="704.6426">Servi&#231;o GPS/Mapa</text></g><g class="entity" data-qualified-name="GMN17" data-source-line="30" id="ent0018"><path d="M647,255.6094 L647,289.1094 L489.66,293.1094 L647,297.1094 L647,331.0156 A0,0 0 0 0 647,331.0156 L857.3442,331.0156 A0,0 0 0 0 857.3442,331.0156 L857.3442,265.6094 L847.3442,255.6094 L647,255.6094 A0,0 0 0 0 647,255.6094" fill="#FEFFDD" style="stroke:#181818;stroke-width:0.5;"/><path d="M847.3442,255.6094 L847.3442,265.6094 L857.3442,265.6094 L847.3442,255.6094" fill="#FEFFDD" style="stroke:#181818;stroke-width:0.5;"/><text fill="#000000" font-family="sans-serif" font-size="13" lengthAdjust="spacing" textLength="189.3442" x="653" y="274.1045">O c&#225;lculo aplica, quando houver:</text><text fill="#000000" font-family="sans-serif" font-size="13" lengthAdjust="spacing" textLength="125.7471" x="653" y="290.4561">- desconto por pacote</text><text fill="#000000" font-family="sans-serif" font-size="13" lengthAdjust="spacing" textLength="127.1816" x="653" y="306.8076">- desconto acad&#234;mico</text><text fill="#000000" font-family="sans-serif" font-size="13" lengthAdjust="spacing" textLength="122.1099" x="653" y="323.1592">- cr&#233;ditos dispon&#237;veis</text></g><g class="entity" data-qualified-name="GMN20" data-source-line="37" id="ent0021"><path d="M303,44.6094 L303,103.6641 L555.9688,103.6641 L555.9688,54.6094 L545.9688,44.6094 L303,44.6094" fill="#FEFFDD" style="stroke:#181818;stroke-width:0.5;"/><path d="M545.9688,44.6094 L545.9688,54.6094 L555.9688,54.6094 L545.9688,44.6094" fill="#FEFFDD" style="stroke:#181818;stroke-width:1;"/><text fill="#000000" font-family="sans-serif" font-size="13" lengthAdjust="spacing" textLength="231.2578" x="309" y="63.1045">Quando a devolu&#231;&#227;o ocorre em esta&#231;&#227;o</text><text fill="#000000" font-family="sans-serif" font-size="13" lengthAdjust="spacing" textLength="231.9688" x="309" y="79.4561">de alta demanda, o sistema gera cr&#233;dito</text><text fill="#000000" font-family="sans-serif" font-size="13" lengthAdjust="spacing" textLength="210.2661" x="309" y="95.8076">promocional para a pr&#243;xima viagem.</text></g><!--link Usuario to UC_Finalizar--><g class="link" data-entity-1="ent0001" data-entity-2="ent0005" data-link-type="dependency" data-source-line="20" id="lnk10"><path d="M105,404.1094 C156.47,406.3294 277.5647,411.5729 356.2547,414.9829" fill="none" id="Usuario-to-UC_Finalizar" style="stroke:#181818;stroke-width:1;"/><polygon fill="#181818" points="361.25,415.1994,352.4316,410.8135,356.2547,414.9829,352.0853,418.806,361.25,415.1994" style="stroke:#181818;stroke-width:1;stroke-linejoin:miter;stroke-miterlimit:10;"/></g><!--link Gateway to UC_Processar--><g class="link" data-entity-1="ent0002" data-entity-2="ent0008" data-link-type="dependency" data-source-line="21" id="lnk11"><path d="M156.33,536.1094 C211.71,536.1094 282.37,536.1094 339.87,536.1094" fill="none" id="Gateway-to-UC_Processar" style="stroke:#181818;stroke-width:1;"/><polygon fill="#181818" points="344.87,536.1094,335.87,532.1094,339.87,536.1094,335.87,540.1094,344.87,536.1094" style="stroke:#181818;stroke-width:1;stroke-linejoin:miter;stroke-miterlimit:10;"/></g><!--link GPS to UC_ValidarLocal--><g class="link" data-entity-1="ent0003" data-entity-2="ent0006" data-link-type="dependency" data-source-line="22" id="lnk12"><path d="M140.78,663.8494 C201.02,658.4594 289.6999,650.5245 353.6899,644.8045" fill="none" id="GPS-to-UC_ValidarLocal" style="stroke:#181818;stroke-width:1;"/><polygon fill="#181818" points="358.67,644.3594,349.3496,641.1766,353.6899,644.8045,350.0619,649.1448,358.67,644.3594" style="stroke:#181818;stroke-width:1;stroke-linejoin:miter;stroke-miterlimit:10;"/></g><!--link UC_Finalizar to UC_ValidarLocal--><g class="link" data-entity-1="ent0005" data-entity-2="ent0006" data-link-type="dependency" data-source-line="24" id="lnk13"><path d="M381.4,436.3894 C307.37,467.1794 179.44,532.5894 234,599.1094 C263.41,634.9694 310.6003,643.9183 353.6603,644.3583" fill="none" id="UC_Finalizar-to-UC_ValidarLocal" style="stroke:#181818;stroke-width:1;stroke-dasharray:7,7;"/><polygon fill="#181818" points="358.66,644.4094,349.7013,640.3176,353.6603,644.3583,349.6196,648.3172,358.66,644.4094" style="stroke:#181818;stroke-width:1;stroke-linejoin:miter;stroke-miterlimit:10;"/><text fill="#000000" font-family="sans-serif" font-size="13" lengthAdjust="spacing" textLength="55.6563" x="202" y="595.6045">&#171;include&#187;</text></g><!--link UC_Finalizar to UC_Calcular--><g class="link" data-entity-1="ent0005" data-entity-2="ent0007" data-link-type="dependency" data-source-line="25" id="lnk14"><path d="M429.5,392.5094 C429.5,371.3694 429.5,346.4494 429.5,324.9694" fill="none" id="UC_Finalizar-to-UC_Calcular" style="stroke:#181818;stroke-width:1;stroke-dasharray:7,7;"/><polygon fill="#181818" points="429.5,319.9694,425.5,328.9694,429.5,324.9694,433.5,328.9694,429.5,319.9694" style="stroke:#181818;stroke-width:1;stroke-linejoin:miter;stroke-miterlimit:10;"/><text fill="#000000" font-family="sans-serif" font-size="13" lengthAdjust="spacing" textLength="55.6563" x="390" y="361.6045">&#171;include&#187;</text></g><!--link UC_Finalizar to UC_Processar--><g class="link" data-entity-1="ent0005" data-entity-2="ent0008" data-link-type="dependency" data-source-line="26" id="lnk15"><path d="M429.5,443.7094 C429.5,465.5194 429.5,491.4094 429.5,511.3594" fill="none" id="UC_Finalizar-to-UC_Processar" style="stroke:#181818;stroke-width:1;stroke-dasharray:7,7;"/><polygon fill="#181818" points="429.5,516.3594,433.5,507.3594,429.5,511.3594,425.5,507.3594,429.5,516.3594" style="stroke:#181818;stroke-width:1;stroke-linejoin:miter;stroke-miterlimit:10;"/><text fill="#000000" font-family="sans-serif" font-size="13" lengthAdjust="spacing" textLength="55.6563" x="390" y="485.6045">&#171;include&#187;</text></g><!--link UC_Finalizar to UC_Historico--><g class="link" data-entity-1="ent0005" data-entity-2="ent0009" data-link-type="dependency" data-source-line="27" id="lnk16"><path d="M370.98,404.7394 C302.95,385.9594 203.63,346.6394 234,282.1094 C256.83,233.5994 309.313,210.3458 356.023,198.1158" fill="none" id="UC_Finalizar-to-UC_Historico" style="stroke:#181818;stroke-width:1;stroke-dasharray:7,7;"/><polygon fill="#181818" points="360.86,196.8494,351.1403,195.2594,356.023,198.1158,353.1666,202.9985,360.86,196.8494" style="stroke:#181818;stroke-width:1;stroke-linejoin:miter;stroke-miterlimit:10;"/><text fill="#000000" font-family="sans-serif" font-size="13" lengthAdjust="spacing" textLength="55.6563" x="202" y="296.6045">&#171;include&#187;</text></g><!--link UC_Finalizar to GMN20--><g class="link" data-entity-1="ent0005" data-entity-2="ent0021" data-link-type="association" data-source-line="37" id="lnk22"><path d="M367.41,407.2794 C318.32,395.0994 252.92,369.9994 221,319.6094 C184.37,261.7894 183.57,222.9094 221,165.6094 C240.08,136.3994 270.78,116.4594 302.82,102.8594" fill="none" id="UC_Finalizar-GMN20" style="stroke:#181818;stroke-width:1;stroke-dasharray:7,7;"/></g><?plantuml-src ZPJDRXCn4CVlVefHpatXqWDLbKk0SW0H2ELK2GtUoSQArsDiRw0W91w25wWuL4NYr4VOD-5966S_kYb8vPJipE-__i-7Dvba2HuRB0DM20N172F7_ESiClp-zXsUE4r1ikGI7y0R36Q5pLNpWu5WWMMRKChIAa5Y2APS9oXC89qCEnKtndaKFNZK6onfcIxao9n6LreQ0OuBYkJXw6WK3EWsEVZeeLAe4mUOdCMwkGo69u1HRDPYYVlSAIRwY1UvWC7SZkiIFRUai3ND5SFfOldW1NfieSLIgS4QJFwhzWbyKG1r98rHD4-DGsi-Ou2jj9MgSqTIUecXjJj_Dm1ZrLi95QAnhD6AUr75X5ewEAf1n1ttF6DZ_Hojhcq-52s7SrSWQ0v1s5xP4sFL8h2c64Nczveb-90Qyw-fD345uTVoszm4etbtLbjghtqcISuvzLMfRa0mdSxsg-z7rILk3vGfzC6zSjLO3eT_0N0C9oV6QLiND9lzYnwwT2zvsvbxqQ7QEwXodAYx3xowCuANe9lB_CI0tXgD1_2XHbSmhBdUKZWMPYfx43NBKC1p7f6M5-x7KMFH_AnogtDSX-QwC2bVO1Czk-RNbanKv0h8PZfBxpabhZfFusryrJh8tu4jsxhTTCvxH40Lv8tSnGIL-uKsPR8IZRXdYD87UOAI0WvE1FM1AzvjieLyf-NzFZGtdqpLxytXuF0F?></g></svg>