<svg xmlns="http://www.w3.org/2000/svg" xmlns:xlink="http://www.w3.org/1999/xlink" contentStyleType="text/css" data-diagram-type="DESCRIPTION" height="336px" preserveAspectRatio="none" style="width:727px;height:336px;background:#FFFFFF;" version="1.1" viewBox="0 0 727 336" width="727px" zoomAndPan="magnify"><?plantuml 1.2026.4?><defs/><g><g class="title" data-source-line="1"><text fill="#000000" font-family="sans-serif" font-size="14" font-weight="700" lengthAdjust="spacing" textLength="405.002" x="157.9412" y="24.5332">Diagrama de Casos de Uso &#8212; Administra&#231;&#227;o: Frota e Tarifas</text></g><!--cluster Administra??o ? Frota e Tarifas--><g class="cluster" data-qualified-name="Administra..o . Frota e Tarifas" data-source-line="10" id="ent0002"><rect fill="none" height="178" rx="2.5" ry="2.5" style="stroke:#181818;stroke-width:1;" width="231" x="176" y="76.6094"/><text fill="#000000" font-family="sans-serif" font-size="14" font-weight="700" lengthAdjust="spacing" textLength="215.9404" x="183.5298" y="93.1426">Administra&#231;&#227;o &#8212; Frota e Tarifas</text></g><!--entity UC_Frota--><g class="entity" data-qualified-name="Administra..o . Frota e Tarifas.UC_Frota" data-source-line="11" id="ent0003"><ellipse cx="291.1689" cy="128.4432" fill="#F1F1F1" rx="67.1689" ry="15.8338" style="stroke:#181818;stroke-width:0.5;"/><text fill="#000000" font-family="sans-serif" font-size="14" lengthAdjust="spacing" textLength="93.3721" x="244.4829" y="133.7478">Gerenciar frota</text></g><!--entity UC_Tarifas--><g class="entity" data-qualified-name="Administra..o . Frota e Tarifas.UC_Tarifas" data-source-line="12" id="ent0004"><ellipse cx="290.9354" cy="221.6965" fill="#F1F1F1" rx="70.9354" ry="16.5871" style="stroke:#181818;stroke-width:0.5;"/><text fill="#000000" font-family="sans-serif" font-size="14" lengthAdjust="spacing" textLength="103.4824" x="239.1942" y="227.0011">Gerenciar tarifas</text></g><!--entity Administrador--><g class="entity" data-qualified-name="Administrador" data-source-line="8" id="ent0001"><ellipse cx="49.1826" cy="145.1094" fill="#F1F1F1" rx="8" ry="8" style="stroke:#181818;stroke-width:0.5;"/><path d="M49.1826,153.1094 L49.1826,180.1094 M36.1826,161.1094 L62.1826,161.1094 M49.1826,180.1094 L36.1826,195.1094 M49.1826,180.1094 L62.1826,195.1094" fill="none" style="stroke:#181818;stroke-width:0.5;"/><text fill="#000000" font-family="sans-serif" font-size="14" lengthAdjust="spacing" textLength="86.3652" x="6" y="211.1426">Administrador</text></g><g class="entity" data-qualified-name="GMN7" data-source-line="19" id="ent0008"><path d="M506,44.6094 L506,98.2994 L350.85,121.3694 L506,106.2994 L506,136.3672 A0,0 0 0 0 506,136.3672 L698.2534,136.3672 A0,0 0 0 0 698.2534,136.3672 L698.2534,54.6094 L688.2534,44.6094 L506,44.6094 A0,0 0 0 0 506,44.6094" fill="#FEFFDD" style="stroke:#181818;stroke-width:0.5;"/><path d="M688.2534,44.6094 L688.2534,54.6094 L698.2534,54.6094 L688.2534,44.6094" fill="#FEFFDD" style="stroke:#181818;stroke-width:0.5;"/><text fill="#000000" font-family="sans-serif" font-size="13" lengthAdjust="spacing" textLength="52.7617" x="512" y="63.1045">Abrange:</text><text fill="#000000" font-family="sans-serif" font-size="13" lengthAdjust="spacing" textLength="106.9326" x="512" y="79.4561">- cadastrar ve&#237;culo</text><text fill="#000000" font-family="sans-serif" font-size="13" lengthAdjust="spacing" textLength="171.2534" x="512" y="95.8076">- cadastrar modelo de ve&#237;culo</text><text fill="#000000" font-family="sans-serif" font-size="13" lengthAdjust="spacing" textLength="142.3652" x="512" y="112.1592">- editar dados do ve&#237;culo</text><text fill="#000000" font-family="sans-serif" font-size="13" lengthAdjust="spacing" textLength="150.3062" x="512" y="128.5107">- alterar estado do ve&#237;culo</text></g><g class="entity" data-qualified-name="GMN10" data-source-line="27" id="ent0011"><path d="M491,196.6094 L491,241.4094 L354.53,229.0994 L491,249.4094 L491,321.0703 A0,0 0 0 0 491,321.0703 L712.8843,321.0703 A0,0 0 0 0 712.8843,321.0703 L712.8843,206.6094 L702.8843,196.6094 L491,196.6094 A0,0 0 0 0 491,196.6094" fill="#FEFFDD" style="stroke:#181818;stroke-width:0.5;"/><path d="M702.8843,196.6094 L702.8843,206.6094 L712.8843,206.6094 L702.8843,196.6094" fill="#FEFFDD" style="stroke:#181818;stroke-width:0.5;"/><text fill="#000000" font-family="sans-serif" font-size="13" lengthAdjust="spacing" textLength="52.7617" x="497" y="215.1045">Abrange:</text><text fill="#000000" font-family="sans-serif" font-size="13" lengthAdjust="spacing" textLength="94.6436" x="497" y="231.4561">- cadastrar tarifa</text><text fill="#000000" font-family="sans-serif" font-size="13" lengthAdjust="spacing" textLength="72.9727" x="497" y="247.8076">- editar tarifa</text><text fill="#000000" font-family="sans-serif" font-size="13" lengthAdjust="spacing" textLength="200.8843" x="497" y="264.1592">- definir munic&#237;pio e tipo de ve&#237;culo</text><text fill="#000000" font-family="sans-serif" font-size="13" lengthAdjust="spacing" textLength="3.6118" x="497" y="280.5107">&#160;</text><text fill="#000000" font-family="sans-serif" font-size="13" lengthAdjust="spacing" textLength="123.5762" x="497" y="296.8623">A tarifa &#233; definida por</text><text fill="#000000" font-family="sans-serif" font-size="13" lengthAdjust="spacing" textLength="157.5361" x="497" y="313.2139">munic&#237;pio e tipo de ve&#237;culo.</text></g><!--link Administrador to UC_Frota--><g class="link" data-entity-1="ent0001" data-entity-2="ent0003" data-link-type="dependency" data-source-line="15" id="lnk5"><path d="M92.08,167.3694 C132.95,159.3694 190.1532,148.1601 233.8732,139.6001" fill="none" id="Administrador-to-UC_Frota" style="stroke:#181818;stroke-width:1;"/><polygon fill="#181818" points="238.78,138.6394,229.1791,136.4432,233.8732,139.6001,230.7163,144.2941,238.78,138.6394" style="stroke:#181818;stroke-width:1;stroke-linejoin:miter;stroke-miterlimit:10;"/></g><!--link Administrador to UC_Tarifas--><g class="link" data-entity-1="ent0001" data-entity-2="ent0004" data-link-type="dependency" data-source-line="16" id="lnk6"><path d="M92.08,183.6794 C132.01,191.3294 187.2994,201.9283 230.8194,210.2683" fill="none" id="Administrador-to-UC_Tarifas" style="stroke:#181818;stroke-width:1;"/><polygon fill="#181818" points="235.73,211.2094,227.6437,205.587,230.8194,210.2683,226.138,213.444,235.73,211.2094" style="stroke:#181818;stroke-width:1;stroke-linejoin:miter;stroke-miterlimit:10;"/></g><?plantuml-src VP5DJWCn38NtEONLVT6mOT45KbK41u2kaKayWzLfF4fS98IGE0GtO85Oz1Hp4qv2ClsRgKftaVty_ELPMMk26yOgu1B14SmmIioFUHJu_VY4gLkovwW1s-_sIoPm6qGH21umS8dHc9fA1HK8N3qhE0vabSMRk63VO3A61kq2AxhNrxGjjz5NDVK4NXn5Qk2gw1K3-aKkNXQ5CMXL0emED4x22332e6BCthslxSYxtnp1Z-3D0AmYMOnfueu2USiOeCowpdy-U-o6JkjqvxDHxZ9vDsR01UFnzS7fP6iVfnUbRPPIzjTFdr8Y5KtISmmM7MQ702_KhksgbgFoCaLQIxxaG42E4pEuj3gTMOPDh9NoB4LD_K6Rl8DCTe9lH_uluIQa_lfUnL6PmaYyAy-sNJSiwJpApH0zcs-deFtP3Zc49jqSpizUxDd_0000?></g></svg>