<svg xmlns="http://www.w3.org/2000/svg" xmlns:xlink="http://www.w3.org/1999/xlink" contentStyleType="text/css" data-diagram-type="DESCRIPTION" height="424px" preserveAspectRatio="none" style="width:790px;height:424px;background:#FFFFFF;" version="1.1" viewBox="0 0 790 424" width="790px" zoomAndPan="magnify"><?plantuml 1.2026.4?><defs/><g><g class="title" data-source-line="1"><text fill="#000000" font-family="sans-serif" font-size="14" font-weight="700" lengthAdjust="spacing" textLength="433.7813" x="175.0779" y="24.5332">Diagrama de Casos de Uso &#8212; Administra&#231;&#227;o: Zonas e Relat&#243;rios</text></g><!--cluster Administra??o ? Zonas e Relat?rios--><g class="cluster" data-qualified-name="Administra..o . Zonas e Relat.rios" data-source-line="12" id="ent0004"><rect fill="none" height="333" rx="2.5" ry="2.5" style="stroke:#181818;stroke-width:1;" width="260" x="218" y="45.6094"/><text fill="#000000" font-family="sans-serif" font-size="14" font-weight="700" lengthAdjust="spacing" textLength="244.7197" x="225.6401" y="62.1426">Administra&#231;&#227;o &#8212; Zonas e Relat&#243;rios</text></g><!--entity UC_Zonas--><g class="entity" data-qualified-name="Administra..o . Zonas e Relat.rios.UC_Zonas" data-source-line="13" id="ent0005"><ellipse cx="348.1727" cy="221.7982" fill="#F1F1F1" rx="69.1727" ry="25.6888" style="stroke:#181818;stroke-width:0.5;"/><text fill="#000000" font-family="sans-serif" font-size="14" lengthAdjust="spacing" textLength="102.7168" x="296.8143" y="221.6005">Gerenciar zonas</text><text fill="#000000" font-family="sans-serif" font-size="14" lengthAdjust="spacing" textLength="51.3447" x="322.5003" y="239.2099">e limites</text></g><!--entity UC_Relatorios--><g class="entity" data-qualified-name="Administra..o . Zonas e Relat.rios.UC_Relatorios" data-source-line="14" id="ent0006"><ellipse cx="347.9633" cy="108.4966" fill="#F1F1F1" rx="68.9633" ry="26.8872" style="stroke:#181818;stroke-width:0.5;"/><text fill="#000000" font-family="sans-serif" font-size="14" lengthAdjust="spacing" textLength="97.2549" x="299.3359" y="106.4657">Gerar relat&#243;rios</text><text fill="#000000" font-family="sans-serif" font-size="14" lengthAdjust="spacing" textLength="79.3857" x="308.2705" y="124.0751">operacionais</text></g><!--entity UC_AplicarLimite--><g class="entity" data-qualified-name="Administra..o . Zonas e Relat.rios.UC_AplicarLimite" data-source-line="15" id="ent0007"><ellipse cx="347.9105" cy="334.5305" fill="#F1F1F1" rx="62.9105" ry="27.4211" style="stroke:#181818;stroke-width:0.5;"/><text fill="#000000" font-family="sans-serif" font-size="14" lengthAdjust="spacing" textLength="79.3516" x="308.2347" y="330.3416">Aplicar limite</text><text fill="#000000" font-family="sans-serif" font-size="14" lengthAdjust="spacing" textLength="86.3994" x="304.7107" y="347.9509">de velocidade</text></g><!--entity Administrador--><g class="entity" data-qualified-name="Administrador" data-source-line="8" id="ent0001"><ellipse cx="70.1826" cy="66.1094" fill="#F1F1F1" rx="8" ry="8" style="stroke:#181818;stroke-width:0.5;"/><path d="M70.1826,74.1094 L70.1826,101.1094 M57.1826,82.1094 L83.1826,82.1094 M70.1826,101.1094 L57.1826,116.1094 M70.1826,101.1094 L83.1826,116.1094" fill="none" style="stroke:#181818;stroke-width:0.5;"/><text fill="#000000" font-family="sans-serif" font-size="14" lengthAdjust="spacing" textLength="86.3652" x="27" y="132.1426">Administrador</text></g><!--entity Equipe--><g class="entity" data-qualified-name="Equipe" data-source-line="9" id="ent0002"><ellipse cx="69.9858" cy="204.1094" fill="#F1F1F1" rx="8" ry="8" style="stroke:#181818;stroke-width:0.5;"/><path d="M69.9858,212.1094 L69.9858,239.1094 M56.9858,220.1094 L82.9858,220.1094 M69.9858,239.1094 L56.9858,254.1094 M69.9858,239.1094 L82.9858,254.1094" fill="none" style="stroke:#181818;stroke-width:0.5;"/><text fill="#000000" font-family="sans-serif" font-size="14" lengthAdjust="spacing" textLength="122.9717" x="8.5" y="270.1426">Equipe Operacional</text></g><!--entity Firmware--><g class="entity" data-qualified-name="Firmware" data-source-line="10" id="ent0003"><ellipse cx="70.1895" cy="342.1094" fill="#F1F1F1" rx="8" ry="8" style="stroke:#181818;stroke-width:0.5;"/><path d="M70.1895,350.1094 L70.1895,377.1094 M57.1895,358.1094 L83.1895,358.1094 M70.1895,377.1094 L57.1895,392.1094 M70.1895,377.1094 L83.1895,392.1094" fill="none" style="stroke:#181818;stroke-width:0.5;"/><text fill="#000000" font-family="sans-serif" font-size="14" lengthAdjust="spacing" textLength="128.3789" x="6" y="408.1426">Firmware do Ve&#237;culo</text></g><g class="entity" data-qualified-name="GMN12" data-source-line="24" id="ent0013"><path d="M578,184.1094 L578,217.6094 L417.04,221.6094 L578,225.6094 L578,259.5156 A0,0 0 0 0 578,259.5156 L760.1353,259.5156 A0,0 0 0 0 760.1353,259.5156 L760.1353,194.1094 L750.1353,184.1094 L578,184.1094 A0,0 0 0 0 578,184.1094" fill="#FEFFDD" style="stroke:#181818;stroke-width:0.5;"/><path d="M750.1353,184.1094 L750.1353,194.1094 L760.1353,194.1094 L750.1353,184.1094" fill="#FEFFDD" style="stroke:#181818;stroke-width:0.5;"/><text fill="#000000" font-family="sans-serif" font-size="13" lengthAdjust="spacing" textLength="52.7617" x="584" y="202.6045">Abrange:</text><text fill="#000000" font-family="sans-serif" font-size="13" lengthAdjust="spacing" textLength="148.1353" x="584" y="218.9561">- cadastrar ou editar zona</text><text fill="#000000" font-family="sans-serif" font-size="13" lengthAdjust="spacing" textLength="117.7935" x="584" y="235.3076">- definir tipo da zona</text><text fill="#000000" font-family="sans-serif" font-size="13" lengthAdjust="spacing" textLength="161.1353" x="584" y="251.6592">- definir limite de velocidade</text></g><g class="entity" data-qualified-name="GMN15" data-source-line="31" id="ent0016"><path d="M562,49.1094 L562,89.9294 L416.26,103.9694 L562,97.9294 L562,124.5156 A0,0 0 0 0 562,124.5156 L775.937,124.5156 A0,0 0 0 0 775.937,124.5156 L775.937,59.1094 L765.937,49.1094 L562,49.1094 A0,0 0 0 0 562,49.1094" fill="#FEFFDD" style="stroke:#181818;stroke-width:0.5;"/><path d="M765.937,49.1094 L765.937,59.1094 L775.937,59.1094 L765.937,49.1094" fill="#FEFFDD" style="stroke:#181818;stroke-width:0.5;"/><text fill="#000000" font-family="sans-serif" font-size="13" lengthAdjust="spacing" textLength="52.7617" x="568" y="67.6045">Abrange:</text><text fill="#000000" font-family="sans-serif" font-size="13" lengthAdjust="spacing" textLength="192.937" x="568" y="83.9561">- relat&#243;rio de utiliza&#231;&#227;o por regi&#227;o</text><text fill="#000000" font-family="sans-serif" font-size="13" lengthAdjust="spacing" textLength="181.3716" x="568" y="100.3076">- relat&#243;rio de faturamento di&#225;rio</text><text fill="#000000" font-family="sans-serif" font-size="13" lengthAdjust="spacing" textLength="192.937" x="568" y="116.6592">- relat&#243;rio de alertas operacionais</text></g><g class="entity" data-qualified-name="GMN18" data-source-line="38" id="ent0019"><path d="M567,319.1094 L567,340.1694 L410.88,337.3294 L567,348.1694 L567,378.1641 A0,0 0 0 0 567,378.1641 L770.8379,378.1641 A0,0 0 0 0 770.8379,378.1641 L770.8379,329.1094 L760.8379,319.1094 L567,319.1094 A0,0 0 0 0 567,319.1094" fill="#FEFFDD" style="stroke:#181818;stroke-width:0.5;"/><path d="M760.8379,319.1094 L760.8379,329.1094 L770.8379,329.1094 L760.8379,319.1094" fill="#FEFFDD" style="stroke:#181818;stroke-width:0.5;"/><text fill="#000000" font-family="sans-serif" font-size="13" lengthAdjust="spacing" textLength="145.9263" x="573" y="337.6045">O firmware aplica o limite</text><text fill="#000000" font-family="sans-serif" font-size="13" lengthAdjust="spacing" textLength="182.8379" x="573" y="353.9561">quando o ve&#237;culo entra em uma</text><text fill="#000000" font-family="sans-serif" font-size="13" lengthAdjust="spacing" textLength="169.1206" x="573" y="370.3076">zona de velocidade reduzida.</text></g><!--link Administrador to UC_Zonas--><g class="link" data-entity-1="ent0001" data-entity-2="ent0005" data-link-type="dependency" data-source-line="18" id="lnk8"><path d="M113.2,118.5594 C140.56,132.5394 177.1,150.7394 210,165.6094 C239.5,178.9394 268.5029,190.8742 295.0729,201.4242" fill="none" id="Administrador-to-UC_Zonas" style="stroke:#181818;stroke-width:1;"/><polygon fill="#181818" points="299.72,203.2694,292.8314,196.2304,295.0729,201.4242,289.8791,203.6657,299.72,203.2694" style="stroke:#181818;stroke-width:1;stroke-linejoin:miter;stroke-miterlimit:10;"/></g><!--link Equipe to UC_Zonas--><g class="link" data-entity-1="ent0002" data-entity-2="ent0005" data-link-type="dependency" data-source-line="19" id="lnk9"><path d="M131.57,231.7594 C175.21,229.6994 229.1255,227.1648 274.3055,225.0348" fill="none" id="Equipe-to-UC_Zonas" style="stroke:#181818;stroke-width:1;"/><polygon fill="#181818" points="279.3,224.7994,270.1216,221.2276,274.3055,225.0348,270.4984,229.2188,279.3,224.7994" style="stroke:#181818;stroke-width:1;stroke-linejoin:miter;stroke-miterlimit:10;"/></g><!--link Administrador to UC_Relatorios--><g class="link" data-entity-1="ent0001" data-entity-2="ent0006" data-link-type="dependency" data-source-line="20" id="lnk10"><path d="M113.22,98.4494 C157.39,100.3694 222.3947,103.1919 274.2947,105.4519" fill="none" id="Administrador-to-UC_Relatorios" style="stroke:#181818;stroke-width:1;"/><polygon fill="#181818" points="279.29,105.6694,270.4725,101.2816,274.2947,105.4519,270.1245,109.2741,279.29,105.6694" style="stroke:#181818;stroke-width:1;stroke-linejoin:miter;stroke-miterlimit:10;"/></g><!--link Firmware to UC_AplicarLimite--><g class="link" data-entity-1="ent0003" data-entity-2="ent0007" data-link-type="dependency" data-source-line="21" id="lnk11"><path d="M134.32,363.8894 C180.47,357.5394 237.6167,349.6713 282.7967,343.4513" fill="none" id="Firmware-to-UC_AplicarLimite" style="stroke:#181818;stroke-width:1;"/><polygon fill="#181818" points="287.75,342.7694,278.2886,340.0342,282.7967,343.4513,279.3796,347.9595,287.75,342.7694" style="stroke:#181818;stroke-width:1;stroke-linejoin:miter;stroke-miterlimit:10;"/></g><?plantuml-src VLDBZjH03DtNAQpUDsesB6Q1r1e-6wIHGCC2jOHCoibONIbdgYeW6Y5n22w0MB1YnH5o4qw2Kvsa4uZObUndl-TdL-Ba29umLW5h14jmZL5Y_xYD0h-_V8MzhTbpJ06x7zrtkO8tuZ42mKjocBfVWIKQuwXCa0G2LtS9B0Sg4eitySY-GMqE3HP7hEXL-gYCVHfzvMW6y68fKWEFThDWG7_iWmztEsEmI19WSr5a9Mn0nImY8-pfVSiDmKr30GlLWYvZp-4Hz8n3_G43WHLuJTtFedMIOMF2c4dhd3bxaVrPiMC3dmn06wd0g5NFAP0l60ESUkp14pYkEL7CJBVNRtEFlqeK7Yuj3rwcENYgovoIDp0htZUE2oq_anoyBlCzEIdOegMnT02zo1ZpsPY5Xx3TFhu86vnSn5RXCpsJiKDgoMUy91gEHSgv1VjtklAAhlIvXG8jzXG1f0Mod0OFSz9IgGe296u4BFwRECyFY_4DUGiz-Og4XPiB7PT5zDtQn8vFmmaqqk-fOdslG4jChPunUVqQbhjl6bv1eQEGT2tp5VzFwD9BW1ieHxSnfq26uJLvtwBNunOruNpUe6e20jNGrhrXlMzBarIURK_wV32f-0C0?></g></svg>