<svg xmlns="http://www.w3.org/2000/svg" xmlns:xlink="http://www.w3.org/1999/xlink" contentStyleType="text/css" data-diagram-type="DESCRIPTION" height="766px" preserveAspectRatio="none" style="width:818px;height:766px;background:#FFFFFF;" version="1.1" viewBox="0 0 818 766" width="818px" zoomAndPan="magnify"><?plantuml 1.2026.4?><defs/><g><g class="title" data-source-line="1"><text fill="#000000" font-family="sans-serif" font-size="14" font-weight="700" lengthAdjust="spacing" textLength="388.6367" x="211.4888" y="24.5332">Diagrama de Casos de Uso &#8212; Monitoramento Operacional</text></g><!--cluster Monitoramento Operacional--><g class="cluster" data-qualified-name="Monitoramento Operacional" data-source-line="14" id="ent0006"><rect fill="none" height="647" rx="2.5" ry="2.5" style="stroke:#181818;stroke-width:1;" width="228" x="304" y="105.1094"/><text fill="#000000" font-family="sans-serif" font-size="14" font-weight="700" lengthAdjust="spacing" textLength="185.9102" x="325.0449" y="121.6426">Monitoramento Operacional</text></g><!--entity UC_Monitorar--><g class="entity" data-qualified-name="Monitoramento Operacional.UC_Monitorar" data-source-line="15" id="ent0007"><ellipse cx="417.9701" cy="169.3577" fill="#F1F1F1" rx="66.9701" ry="27.7483" style="stroke:#181818;stroke-width:0.5;"/><text fill="#000000" font-family="sans-serif" font-size="14" lengthAdjust="spacing" textLength="91.0342" x="372.453" y="166.0777">Monitorar frota</text><text fill="#000000" font-family="sans-serif" font-size="14" lengthAdjust="spacing" textLength="88.7305" x="373.6048" y="183.6871">e manuten&#231;&#227;o</text></g><!--entity UC_Mapa--><g class="entity" data-qualified-name="Monitoramento Operacional.UC_Mapa" data-source-line="16" id="ent0008"><ellipse cx="418.0223" cy="709.3563" fill="#F1F1F1" rx="93.0223" ry="27.2469" style="stroke:#181818;stroke-width:0.5;"/><text fill="#000000" font-family="sans-serif" font-size="14" lengthAdjust="spacing" textLength="115.9375" x="360.0535" y="704.9149">Visualizar ve&#237;culos</text><text fill="#000000" font-family="sans-serif" font-size="14" lengthAdjust="spacing" textLength="130.7578" x="352.6433" y="722.5243">no mapa operacional</text></g><!--entity UC_Bateria--><g class="entity" data-qualified-name="Monitoramento Operacional.UC_Bateria" data-source-line="17" id="ent0009"><ellipse cx="417.8192" cy="492.9977" fill="#F1F1F1" rx="66.3192" ry="25.3883" style="stroke:#181818;stroke-width:0.5;"/><text fill="#000000" font-family="sans-serif" font-size="14" lengthAdjust="spacing" textLength="99.6064" x="368.016" y="493.2815">Detectar bateria</text><text fill="#000000" font-family="sans-serif" font-size="14" lengthAdjust="spacing" textLength="37.3379" x="399.1503" y="510.8908">cr&#237;tica</text></g><!--entity UC_Parado--><g class="entity" data-qualified-name="Monitoramento Operacional.UC_Parado" data-source-line="18" id="ent0010"><ellipse cx="418.1357" cy="600.005" fill="#F1F1F1" rx="98.1357" ry="26.3957" style="stroke:#181818;stroke-width:0.5;"/><text fill="#000000" font-family="sans-serif" font-size="14" lengthAdjust="spacing" textLength="101.1582" x="367.5566" y="594.2992">Detectar ve&#237;culo</text><text fill="#000000" font-family="sans-serif" font-size="14" lengthAdjust="spacing" textLength="143.2129" x="346.5293" y="611.9085">parado h&#225; mais de 24h</text></g><!--entity UC_Reportar--><g class="entity" data-qualified-name="Monitoramento Operacional.UC_Reportar" data-source-line="19" id="ent0011"><ellipse cx="417.7662" cy="395.9626" fill="#F1F1F1" rx="69.7662" ry="16.3532" style="stroke:#181818;stroke-width:0.5;"/><text fill="#000000" font-family="sans-serif" font-size="14" lengthAdjust="spacing" textLength="100.3926" x="367.5699" y="401.2673">Reportar defeito</text></g><!--entity UC_Alerta--><g class="entity" data-qualified-name="Monitoramento Operacional.UC_Alerta" data-source-line="20" id="ent0012"><ellipse cx="417.9177" cy="279.3239" fill="#F1F1F1" rx="55.4177" ry="27.7145" style="stroke:#181818;stroke-width:0.5;"/><text fill="#000000" font-family="sans-serif" font-size="14" lengthAdjust="spacing" textLength="74.6963" x="380.5695" y="276.0921">Gerar alerta</text><text fill="#000000" font-family="sans-serif" font-size="14" lengthAdjust="spacing" textLength="72.3857" x="381.7248" y="293.7014">operacional</text></g><!--entity Equipe--><g class="entity" data-qualified-name="Equipe" data-source-line="8" id="ent0001"><ellipse cx="89.4858" cy="52.6094" fill="#F1F1F1" rx="8" ry="8" style="stroke:#181818;stroke-width:0.5;"/><path d="M89.4858,60.6094 L89.4858,87.6094 M76.4858,68.6094 L102.4858,68.6094 M89.4858,87.6094 L76.4858,102.6094 M89.4858,87.6094 L102.4858,102.6094" fill="none" style="stroke:#181818;stroke-width:0.5;"/><text fill="#000000" font-family="sans-serif" font-size="14" lengthAdjust="spacing" textLength="122.9717" x="28" y="118.6426">Equipe Operacional</text></g><!--entity Administrador--><g class="entity" data-qualified-name="Administrador" data-source-line="9" id="ent0002"><ellipse cx="89.6826" cy="185.6094" fill="#F1F1F1" rx="8" ry="8" style="stroke:#181818;stroke-width:0.5;"/><path d="M89.6826,193.6094 L89.6826,220.6094 M76.6826,201.6094 L102.6826,201.6094 M89.6826,220.6094 L76.6826,235.6094 M89.6826,220.6094 L102.6826,235.6094" fill="none" style="stroke:#181818;stroke-width:0.5;"/><text fill="#000000" font-family="sans-serif" font-size="14" lengthAdjust="spacing" textLength="86.3652" x="46.5" y="251.6426">Administrador</text></g><!--entity Usuario--><g class="entity" data-qualified-name="Usuario" data-source-line="10" id="ent0003"><ellipse cx="89.6206" cy="365.6094" fill="#F1F1F1" rx="8" ry="8" style="stroke:#181818;stroke-width:0.5;"/><path d="M89.6206,373.6094 L89.6206,400.6094 M76.6206,381.6094 L102.6206,381.6094 M89.6206,400.6094 L76.6206,415.6094 M89.6206,400.6094 L102.6206,415.6094" fill="none" style="stroke:#181818;stroke-width:0.5;"/><text fill="#000000" font-family="sans-serif" font-size="14" lengthAdjust="spacing" textLength="48.2412" x="65.5" y="431.6426">Usu&#225;rio</text></g><!--entity Monitoramento--><g class="entity" data-qualified-name="Monitoramento" data-source-line="11" id="ent0004"><ellipse cx="89.6514" cy="523.6094" fill="#F1F1F1" rx="8" ry="8" style="stroke:#181818;stroke-width:0.5;"/><path d="M89.6514,531.6094 L89.6514,558.6094 M76.6514,539.6094 L102.6514,539.6094 M89.6514,558.6094 L76.6514,573.6094 M89.6514,558.6094 L102.6514,573.6094" fill="none" style="stroke:#181818;stroke-width:0.5;"/><text fill="#000000" font-family="sans-serif" font-size="14" lengthAdjust="spacing" textLength="167.3027" x="6" y="589.6426">Sistema de Monitoramento</text></g><!--entity GPS--><g class="entity" data-qualified-name="GPS" data-source-line="12" id="ent0005"><ellipse cx="89.5239" cy="678.6094" fill="#F1F1F1" rx="8" ry="8" style="stroke:#181818;stroke-width:0.5;"/><path d="M89.5239,686.6094 L89.5239,713.6094 M76.5239,694.6094 L102.5239,694.6094 M89.5239,713.6094 L76.5239,728.6094 M89.5239,713.6094 L102.5239,728.6094" fill="none" style="stroke:#181818;stroke-width:0.5;"/><text fill="#000000" font-family="sans-serif" font-size="14" lengthAdjust="spacing" textLength="119.0479" x="30" y="744.6426">Servi&#231;o GPS/Mapa</text></g><g class="entity" data-qualified-name="GMN22" data-source-line="35" id="ent0023"><path d="M607,139.6094 L607,165.1094 L485.22,169.1094 L607,173.1094 L607,198.6641 A0,0 0 0 0 607,198.6641 L803.6143,198.6641 A0,0 0 0 0 803.6143,198.6641 L803.6143,149.6094 L793.6143,139.6094 L607,139.6094 A0,0 0 0 0 607,139.6094" fill="#FEFFDD" style="stroke:#181818;stroke-width:0.5;"/><path d="M793.6143,139.6094 L793.6143,149.6094 L803.6143,149.6094 L793.6143,139.6094" fill="#FEFFDD" style="stroke:#181818;stroke-width:0.5;"/><text fill="#000000" font-family="sans-serif" font-size="13" lengthAdjust="spacing" textLength="171.2598" x="613" y="158.1045">O monitoramento operacional</text><text fill="#000000" font-family="sans-serif" font-size="13" lengthAdjust="spacing" textLength="172.707" x="613" y="174.4561">utiliza a visualiza&#231;&#227;o no mapa</text><text fill="#000000" font-family="sans-serif" font-size="13" lengthAdjust="spacing" textLength="175.6143" x="613" y="190.8076">e acompanha alertas gerados.</text></g><!--link Equipe to UC_Monitorar--><g class="link" data-entity-1="ent0001" data-entity-2="ent0007" data-link-type="dependency" data-source-line="23" id="lnk13"><path d="M151.15,99.0794 C211.36,114.9394 298.055,137.7756 356.475,153.1656" fill="none" id="Equipe-to-UC_Monitorar" style="stroke:#181818;stroke-width:1;"/><polygon fill="#181818" points="361.31,154.4394,353.6259,148.2786,356.475,153.1656,351.5879,156.0147,361.31,154.4394" style="stroke:#181818;stroke-width:1;stroke-linejoin:miter;stroke-miterlimit:10;"/></g><!--link Administrador to UC_Monitorar--><g class="link" data-entity-1="ent0002" data-entity-2="ent0007" data-link-type="dependency" data-source-line="24" id="lnk14"><path d="M132.52,210.0594 C188.84,201.9494 284.311,188.212 349.521,178.822" fill="none" id="Administrador-to-UC_Monitorar" style="stroke:#181818;stroke-width:1;"/><polygon fill="#181818" points="354.47,178.1094,344.9918,175.4329,349.521,178.822,346.132,183.3513,354.47,178.1094" style="stroke:#181818;stroke-width:1;stroke-linejoin:miter;stroke-miterlimit:10;"/></g><!--link GPS to UC_Mapa--><g class="link" data-entity-1="ent0005" data-entity-2="ent0008" data-link-type="dependency" data-source-line="25" id="lnk15"><path d="M149.25,709.1094 C198.09,709.1094 263.45,709.1094 319.79,709.1094" fill="none" id="GPS-to-UC_Mapa" style="stroke:#181818;stroke-width:1;"/><polygon fill="#181818" points="324.79,709.1094,315.79,705.1094,319.79,709.1094,315.79,713.1094,324.79,709.1094" style="stroke:#181818;stroke-width:1;stroke-linejoin:miter;stroke-miterlimit:10;"/></g><!--link Monitoramento to UC_Bateria--><g class="link" data-entity-1="ent0004" data-entity-2="ent0009" data-link-type="dependency" data-source-line="26" id="lnk16"><path d="M173.31,538.6394 C230.93,527.8694 301.4651,514.6978 353.0551,505.0578" fill="none" id="Monitoramento-to-UC_Bateria" style="stroke:#181818;stroke-width:1;"/><polygon fill="#181818" points="357.97,504.1394,348.3884,501.8605,353.0551,505.0578,349.8578,509.7244,357.97,504.1394" style="stroke:#181818;stroke-width:1;stroke-linejoin:miter;stroke-miterlimit:10;"/></g><!--link Monitoramento to UC_Parado--><g class="link" data-entity-1="ent0004" data-entity-2="ent0010" data-link-type="dependency" data-source-line="27" id="lnk17"><path d="M173.31,565.7794 C221.49,572.5594 277.1688,580.4125 325.9088,587.2725" fill="none" id="Monitoramento-to-UC_Parado" style="stroke:#181818;stroke-width:1;"/><polygon fill="#181818" points="330.86,587.9694,322.5053,582.7541,325.9088,587.2725,321.3903,590.676,330.86,587.9694" style="stroke:#181818;stroke-width:1;stroke-linejoin:miter;stroke-miterlimit:10;"/></g><!--link Usuario to UC_Reportar--><g class="link" data-entity-1="ent0003" data-entity-2="ent0011" data-link-type="dependency" data-source-line="28" id="lnk18"><path d="M113.72,396.1094 C161.87,396.1094 269.23,396.1094 342.84,396.1094" fill="none" id="Usuario-to-UC_Reportar" style="stroke:#181818;stroke-width:1;"/><polygon fill="#181818" points="347.84,396.1094,338.84,392.1094,342.84,396.1094,338.84,400.1094,347.84,396.1094" style="stroke:#181818;stroke-width:1;stroke-linejoin:miter;stroke-miterlimit:10;"/></g><!--link UC_Bateria to UC_Alerta--><g class="link" data-entity-1="ent0009" data-entity-2="ent0012" data-link-type="dependency" data-source-line="30" id="lnk19"><path d="M352.66,498.3294 C315.37,497.3994 271.16,488.9094 246,458.1094 C194.94,395.6194 306.0875,330.9328 371.8875,299.5328" fill="none" id="UC_Bateria-to-UC_Alerta" style="stroke:#181818;stroke-width:1;stroke-dasharray:7,7;"/><polygon fill="#181818" points="376.4,297.3794,366.5547,297.6455,371.8875,299.5328,370.0002,304.8655,376.4,297.3794" style="stroke:#181818;stroke-width:1;stroke-linejoin:miter;stroke-miterlimit:10;"/><text fill="#000000" font-family="sans-serif" font-size="13" lengthAdjust="spacing" textLength="55.6563" x="219" y="454.6045">&#171;include&#187;</text></g><!--link UC_Parado to UC_Alerta--><g class="link" data-entity-1="ent0010" data-entity-2="ent0012" data-link-type="dependency" data-source-line="31" id="lnk20"><path d="M350.8,580.5694 C310.4,564.5794 263.53,537.2294 246,493.1094 C226.78,444.7294 223.92,436.1694 296,352.1094 C317.21,327.3794 344.463,310.8833 370.273,298.6333" fill="none" id="UC_Parado-to-UC_Alerta" style="stroke:#181818;stroke-width:1;stroke-dasharray:7,7;"/><polygon fill="#181818" points="374.79,296.4894,364.9442,296.7347,370.273,298.6333,368.3744,303.962,374.79,296.4894" style="stroke:#181818;stroke-width:1;stroke-linejoin:miter;stroke-miterlimit:10;"/><text fill="#000000" font-family="sans-serif" font-size="13" lengthAdjust="spacing" textLength="55.6563" x="219" y="489.6045">&#171;include&#187;</text></g><!--link UC_Reportar to UC_Alerta--><g class="link" data-entity-1="ent0011" data-entity-2="ent0012" data-link-type="dependency" data-source-line="32" id="lnk21"><path d="M418,379.5894 C418,360.6994 418,334.4494 418,311.8094" fill="none" id="UC_Reportar-to-UC_Alerta" style="stroke:#181818;stroke-width:1;stroke-dasharray:7,7;"/><polygon fill="#181818" points="418,306.8094,414,315.8094,418,311.8094,422,315.8094,418,306.8094" style="stroke:#181818;stroke-width:1;stroke-linejoin:miter;stroke-miterlimit:10;"/><text fill="#000000" font-family="sans-serif" font-size="13" lengthAdjust="spacing" textLength="55.6563" x="378.5" y="348.6045">&#171;include&#187;</text></g><?plantuml-src XLF1RjGm4BtxAqPxRq687eggbKgBUgfQiIgdbT3Wp6P7ctXIsra9418VmGzK77hgL-HF-1BiR9mwxHPkyNjlPZpFBvvzHN3EM5gi4Gg2CtJYuiUD4_ZpynTSYc4lWIRZ1QuQigXP35PALRJo443BvTf3mPQq3vHo6pODXX9eK6-mf8N_6iP46arPKIOmKf2Z1ewECj2YsKJm-BLIgCDmc7suRRcXVFmCqC4EJgBJecR3pbiinFRy14co6zTsTvQbLuG3Xk_4BOAOTavC5k-r4sIi8BlbxbxWudhnwX8RxANXeDIuCCnUT746tnL0wqYZotGMLbOyBWr1ZQRrPBhxxlTmvRFFeool_SHXbug_XU8jTG-whSGjZP7GeK6G9zR5BW7F6voJZpUsy0KzMGxJjUqUF6jC5UztnDwYD7FPls8XiExkmcZkq_JcxJhrkExPlCL7QiJ65WMjYFsuPS9pxGL5Sx0Y6ztPizHfJwaVIWsPEJYOJosRXE8v7Pvk1AD1qwSRc6J4NdBOS8XMGiTjr6Cz7CuVxmpluEI4ZQxQWkPpDJRwZsXqxnyoPSJJy9_Awcc2hg2Uh96v6gtt74C52DiKi3wBC2GhI0XGIzsWMUFmD0vAYdTtXufC0N7yNm00?></g></svg>