<svg xmlns="http://www.w3.org/2000/svg" xmlns:xlink="http://www.w3.org/1999/xlink" contentStyleType="text/css" data-diagram-type="DESCRIPTION" height="647px" preserveAspectRatio="none" style="width:556px;height:647px;background:#FFFFFF;" version="1.1" viewBox="0 0 556 647" width="556px" zoomAndPan="magnify"><?plantuml 1.2026.4?><defs/><g><g class="title" data-source-line="1"><text fill="#000000" font-family="sans-serif" font-size="14" font-weight="700" lengthAdjust="spacing" textLength="423.6846" x="62.7961" y="24.5332">Diagrama de Casos de Uso &#8212; Ordens de Servi&#231;o e Manuten&#231;&#227;o</text></g><!--cluster Ordens de Servi?o e Manuten??o--><g class="cluster" data-qualified-name="Ordens de Servi.o e Manuten..o" data-source-line="12" id="ent0004"><rect fill="none" height="503" rx="2.5" ry="2.5" style="stroke:#181818;stroke-width:1;" width="236" x="284.5" y="122.1094"/><text fill="#000000" font-family="sans-serif" font-size="14" font-weight="700" lengthAdjust="spacing" textLength="220.958" x="292.021" y="138.6426">Ordens de Servi&#231;o e Manuten&#231;&#227;o</text></g><!--entity UC_GerarOS--><g class="entity" data-qualified-name="Ordens de Servi.o e Manuten..o.UC_GerarOS" data-source-line="13" id="ent0005"><ellipse cx="402.1923" cy="581.9377" fill="#F1F1F1" rx="56.6923" ry="26.8283" style="stroke:#181818;stroke-width:0.5;"/><text fill="#000000" font-family="sans-serif" font-size="14" lengthAdjust="spacing" textLength="79.3584" x="362.5131" y="579.9941">Gerar ordem</text><text fill="#000000" font-family="sans-serif" font-size="14" lengthAdjust="spacing" textLength="63.8066" x="370.289" y="597.6034">de servi&#231;o</text></g><!--entity UC_VisualizarOS--><g class="entity" data-qualified-name="Ordens de Servi.o e Manuten..o.UC_VisualizarOS" data-source-line="14" id="ent0006"><ellipse cx="402.0622" cy="474.0873" fill="#F1F1F1" rx="73.0622" ry="25.9779" style="stroke:#181818;stroke-width:0.5;"/><text fill="#000000" font-family="sans-serif" font-size="14" lengthAdjust="spacing" textLength="107.3857" x="348.3693" y="473.4354">Visualizar ordens</text><text fill="#000000" font-family="sans-serif" font-size="14" lengthAdjust="spacing" textLength="63.8066" x="370.1589" y="491.0448">de servi&#231;o</text></g><!--entity UC_Recolher--><g class="entity" data-qualified-name="Ordens de Servi.o e Manuten..o.UC_Recolher" data-source-line="15" id="ent0007"><ellipse cx="402.2378" cy="175.2569" fill="#F1F1F1" rx="71.2378" ry="16.6476" style="stroke:#181818;stroke-width:0.5;"/><text fill="#000000" font-family="sans-serif" font-size="14" lengthAdjust="spacing" textLength="104.2754" x="350.1001" y="180.5616">Recolher ve&#237;culo</text></g><!--entity UC_Manutencao--><g class="entity" data-qualified-name="Ordens de Servi.o e Manuten..o.UC_Manutencao" data-source-line="16" id="ent0008"><ellipse cx="402.2371" cy="265.9568" fill="#F1F1F1" rx="84.7371" ry="19.3474" style="stroke:#181818;stroke-width:0.5;"/><text fill="#000000" font-family="sans-serif" font-size="14" lengthAdjust="spacing" textLength="137.7373" x="333.3685" y="271.2615">Registrar manuten&#231;&#227;o</text></g><!--entity UC_Liberar--><g class="entity" data-qualified-name="Ordens de Servi.o e Manuten..o.UC_Liberar" data-source-line="17" id="ent0009"><ellipse cx="401.9036" cy="367.0844" fill="#F1F1F1" rx="62.9036" ry="25.975" style="stroke:#181818;stroke-width:0.5;"/><text fill="#000000" font-family="sans-serif" font-size="14" lengthAdjust="spacing" textLength="91.8271" x="355.9901" y="366.437">Liberar ve&#237;culo</text><text fill="#000000" font-family="sans-serif" font-size="14" lengthAdjust="spacing" textLength="54.4824" x="374.6624" y="384.0464">para uso</text></g><!--entity Equipe--><g class="entity" data-qualified-name="Equipe" data-source-line="8" id="ent0001"><ellipse cx="89.4858" cy="261.6094" fill="#F1F1F1" rx="8" ry="8" style="stroke:#181818;stroke-width:0.5;"/><path d="M89.4858,269.6094 L89.4858,296.6094 M76.4858,277.6094 L102.4858,277.6094 M89.4858,296.6094 L76.4858,311.6094 M89.4858,296.6094 L102.4858,311.6094" fill="none" style="stroke:#181818;stroke-width:0.5;"/><text fill="#000000" font-family="sans-serif" font-size="14" lengthAdjust="spacing" textLength="122.9717" x="28" y="327.6426">Equipe Operacional</text></g><!--entity Administrador--><g class="entity" data-qualified-name="Administrador" data-source-line="9" id="ent0002"><ellipse cx="89.6826" cy="431.6094" fill="#F1F1F1" rx="8" ry="8" style="stroke:#181818;stroke-width:0.5;"/><path d="M89.6826,439.6094 L89.6826,466.6094 M76.6826,447.6094 L102.6826,447.6094 M89.6826,466.6094 L76.6826,481.6094 M89.6826,466.6094 L102.6826,481.6094" fill="none" style="stroke:#181818;stroke-width:0.5;"/><text fill="#000000" font-family="sans-serif" font-size="14" lengthAdjust="spacing" textLength="86.3652" x="46.5" y="497.6426">Administrador</text></g><!--entity Monitoramento--><g class="entity" data-qualified-name="Monitoramento" data-source-line="10" id="ent0003"><ellipse cx="89.6514" cy="564.6094" fill="#F1F1F1" rx="8" ry="8" style="stroke:#181818;stroke-width:0.5;"/><path d="M89.6514,572.6094 L89.6514,599.6094 M76.6514,580.6094 L102.6514,580.6094 M89.6514,599.6094 L76.6514,614.6094 M89.6514,599.6094 L102.6514,614.6094" fill="none" style="stroke:#181818;stroke-width:0.5;"/><text fill="#000000" font-family="sans-serif" font-size="14" lengthAdjust="spacing" textLength="167.3027" x="6" y="630.6426">Sistema de Monitoramento</text></g><g class="entity" data-qualified-name="GMN16" data-source-line="29" id="ent0017"><path d="M263,44.6094 L263,103.6641 L541.2769,103.6641 L541.2769,54.6094 L531.2769,44.6094 L263,44.6094" fill="#FEFFDD" style="stroke:#181818;stroke-width:0.5;"/><path d="M531.2769,44.6094 L531.2769,54.6094 L541.2769,54.6094 L531.2769,44.6094" fill="#FEFFDD" style="stroke:#181818;stroke-width:1;"/><text fill="#000000" font-family="sans-serif" font-size="13" lengthAdjust="spacing" textLength="232.667" x="269" y="63.1045">Recolher, registrar manuten&#231;&#227;o e liberar</text><text fill="#000000" font-family="sans-serif" font-size="13" lengthAdjust="spacing" textLength="230.5278" x="269" y="79.4561">atualizam automaticamente o estado do</text><text fill="#000000" font-family="sans-serif" font-size="13" lengthAdjust="spacing" textLength="257.2769" x="269" y="95.8076">ve&#237;culo (detalhado no diagrama de estados).</text></g><!--link Monitoramento to UC_GerarOS--><g class="link" data-entity-1="ent0003" data-entity-2="ent0005" data-link-type="dependency" data-source-line="20" id="lnk10"><path d="M173.3,591.6394 C227.73,589.3594 292.4944,586.6481 340.3644,584.6481" fill="none" id="Monitoramento-to-UC_GerarOS" style="stroke:#181818;stroke-width:1;"/><polygon fill="#181818" points="345.36,584.4394,336.2009,580.8186,340.3644,584.6481,336.5348,588.8116,345.36,584.4394" style="stroke:#181818;stroke-width:1;stroke-linejoin:miter;stroke-miterlimit:10;"/></g><!--link Administrador to UC_VisualizarOS--><g class="link" data-entity-1="ent0002" data-entity-2="ent0006" data-link-type="dependency" data-source-line="21" id="lnk11"><path d="M132.7,463.7394 C183.19,465.6894 263.5237,468.7965 324.3937,471.1465" fill="none" id="Administrador-to-UC_VisualizarOS" style="stroke:#181818;stroke-width:1;"/><polygon fill="#181818" points="329.39,471.3394,320.551,466.9951,324.3937,471.1465,320.2424,474.9892,329.39,471.3394" style="stroke:#181818;stroke-width:1;stroke-linejoin:miter;stroke-miterlimit:10;"/></g><!--link Equipe to UC_VisualizarOS--><g class="link" data-entity-1="ent0001" data-entity-2="ent0006" data-link-type="dependency" data-source-line="23" id="lnk12"><path d="M136.16,331.2694 C169.68,358.6494 217.16,394.7294 263,420.1094 C289.56,434.8194 316.2412,445.758 342.3712,455.088" fill="none" id="Equipe-to-UC_VisualizarOS" style="stroke:#181818;stroke-width:1;"/><polygon fill="#181818" points="347.08,456.7694,339.9492,449.9759,342.3712,455.088,337.259,457.51,347.08,456.7694" style="stroke:#181818;stroke-width:1;stroke-linejoin:miter;stroke-miterlimit:10;"/></g><!--link Equipe to UC_Recolher--><g class="link" data-entity-1="ent0001" data-entity-2="ent0007" data-link-type="dependency" data-source-line="24" id="lnk13"><path d="M151.03,264.8894 C183.87,250.5294 225.34,233.0494 263,219.1094 C294.13,207.5894 325.0654,197.7011 352.3554,189.4211" fill="none" id="Equipe-to-UC_Recolher" style="stroke:#181818;stroke-width:1;"/><polygon fill="#181818" points="357.14,187.9694,347.3663,186.7547,352.3554,189.4211,349.689,194.4101,357.14,187.9694" style="stroke:#181818;stroke-width:1;stroke-linejoin:miter;stroke-miterlimit:10;"/></g><!--link Equipe to UC_Manutencao--><g class="link" data-entity-1="ent0001" data-entity-2="ent0008" data-link-type="dependency" data-source-line="25" id="lnk14"><path d="M151.1,287.0394 C199.99,282.9394 264.1474,277.5665 317.3074,273.1165" fill="none" id="Equipe-to-UC_Manutencao" style="stroke:#181818;stroke-width:1;"/><polygon fill="#181818" points="322.29,272.6994,312.9877,269.4641,317.3074,273.1165,313.655,277.4362,322.29,272.6994" style="stroke:#181818;stroke-width:1;stroke-linejoin:miter;stroke-miterlimit:10;"/></g><!--link Equipe to UC_Liberar--><g class="link" data-entity-1="ent0001" data-entity-2="ent0009" data-link-type="dependency" data-source-line="26" id="lnk15"><path d="M151.1,306.7494 C208.11,320.5194 287.7798,339.7654 342.4298,352.9654" fill="none" id="Equipe-to-UC_Liberar" style="stroke:#181818;stroke-width:1;"/><polygon fill="#181818" points="347.29,354.1394,339.4807,348.1381,342.4298,352.9654,337.6024,355.9145,347.29,354.1394" style="stroke:#181818;stroke-width:1;stroke-linejoin:miter;stroke-miterlimit:10;"/></g><!--link UC_Liberar to GMN16--><g class="link" data-entity-1="ent0009" data-entity-2="ent0017" data-link-type="association" data-source-line="29" id="lnk18"><path d="M341.74,359.2594 C298.14,349.9294 242.7,329.6394 218,285.6094 C191.69,238.7094 191.69,211.5094 218,164.6094 C233.67,136.6694 261.07,117.1794 290,103.6694" fill="none" id="UC_Liberar-GMN16" style="stroke:#181818;stroke-width:1;stroke-dasharray:7,7;"/></g><?plantuml-src XLFDIYGn4BxdAOevhQ3BNZnu4KJ5oyg0Wvw4fKpAdZ3fL9jK2og23-4RxC7JFiMyoJw9wVIF7HZmrdm_LVLLfSMA8pYpM0Mi4Gp1AKQEtSTrPFZ_zWxBOCXdP4NXqMu_60WkqRT2Vlkn_SjAEReN48PWgxM0iO6qMFOgRgnlC5M61lK6Arh9KshNqUWhHpE1PqEH6ZWyd841_QO3ZtufXLeumEByeRKDmRAXW3hrGBS0ZD33e-Z4rDRRA04DXymNo2XR9O3wr9ViRSAm9Y-S7GMYr3GpBBvTo09U540RIMDC-eiqQW1EhlhM9rSSNBdDzUcVp2zNSykDZIqw-ppuVDnf_5ALxYlIxDOKu96s_tJh9iD8bE8gxoL0NKJe7KCiZJpt_BPtETDO_pRVA_6JRr2eLwMAHSB1mV4ySt6NaInogU7YkxYIcjALy2n2IOmpAiz2SCSYN0FVpoc0iUX-UhMx5fLExoOnIZzR3TYcOYXMvzW4IHSbPGJJBNBS6_mm9EZM7U4JD_iDUtdS-wd86-Wc_0G0?></g></svg>