<svg xmlns="http://www.w3.org/2000/svg" xmlns:xlink="http://www.w3.org/1999/xlink" contentStyleType="text/css" data-diagram-type="STATE" height="921px" preserveAspectRatio="none" style="width:1579px;height:921px;background:#FFFFFF;" version="1.1" viewBox="0 0 1579 921" width="1579px" zoomAndPan="magnify"><?plantuml 1.2026.4?><defs/><g><g class="title" data-source-line="1"><text fill="#000000" font-family="sans-serif" font-size="14" font-weight="700" lengthAdjust="spacing" textLength="214.3955" x="679.0735" y="24.5332">Diagrama de Estados &#8212; Ve&#237;culo</text></g><g class="entity" data-qualified-name="Disponivel" data-source-line="6" id="ent0001"><rect fill="#F1F1F1" height="50" rx="12.5" ry="12.5" style="stroke:#181818;stroke-width:0.5;" width="85.3652" x="655.5" y="318.5594"/><line style="stroke:#181818;stroke-width:0.5;" x1="655.5" x2="740.8652" y1="346.1688" y2="346.1688"/><text fill="#000000" font-family="sans-serif" font-size="14" lengthAdjust="spacing" textLength="65.3652" x="665.5" y="338.0926">Dispon&#237;vel</text></g><g class="entity" data-qualified-name="Reservado" data-source-line="7" id="ent0002"><rect fill="#F1F1F1" height="72.8281" rx="12.5" ry="12.5" style="stroke:#181818;stroke-width:0.5;" width="195.8545" x="848" y="492.5594"/><line style="stroke:#181818;stroke-width:0.5;" x1="848" x2="1043.8545" y1="520.1688" y2="520.1688"/><text fill="#000000" font-family="sans-serif" font-size="14" lengthAdjust="spacing" textLength="67.7031" x="912.0757" y="512.0926">Reservado</text><text fill="#000000" font-family="sans-serif" font-size="14" lengthAdjust="spacing" textLength="175.8545" x="853" y="539.702">entry / iniciar prazo de 5 min</text><text fill="#000000" font-family="sans-serif" font-size="14" lengthAdjust="spacing" textLength="162.6816" x="853" y="557.3113">do / aguardar desbloqueio</text></g><g class="entity" data-qualified-name="EmUso" data-source-line="8" id="ent0003"><rect fill="#F1F1F1" height="90.4375" rx="12.5" ry="12.5" style="stroke:#181818;stroke-width:0.5;" width="279.916" x="785" y="86.5594"/><line style="stroke:#181818;stroke-width:0.5;" x1="785" x2="1064.916" y1="114.1688" y2="114.1688"/><text fill="#000000" font-family="sans-serif" font-size="14" lengthAdjust="spacing" textLength="49.7861" x="900.0649" y="106.0926">Em Uso</text><text fill="#000000" font-family="sans-serif" font-size="14" lengthAdjust="spacing" textLength="198.4131" x="790" y="133.702">entry / iniciar registro da viagem</text><text fill="#000000" font-family="sans-serif" font-size="14" lengthAdjust="spacing" textLength="257.5576" x="790" y="151.3113">do / registrar posi&#231;&#227;o GPS (a cada 1 min)</text><text fill="#000000" font-family="sans-serif" font-size="14" lengthAdjust="spacing" textLength="259.916" x="790" y="168.9207">do / aplicar limite de velocidade em zonas</text></g><g class="entity" data-qualified-name="BateriaCritica" data-source-line="9" id="ent0004"><rect fill="#F1F1F1" height="55.2188" rx="12.5" ry="12.5" style="stroke:#181818;stroke-width:0.5;" width="332.7441" x="8.5" y="501.5594"/><line style="stroke:#181818;stroke-width:0.5;" x1="8.5" x2="341.2441" y1="529.1688" y2="529.1688"/><text fill="#000000" font-family="sans-serif" font-size="14" lengthAdjust="spacing" textLength="88.6963" x="130.5239" y="521.0926">Bateria Cr&#237;tica</text><text fill="#000000" font-family="sans-serif" font-size="14" lengthAdjust="spacing" textLength="312.7441" x="13.5" y="548.702">entry / gerar ordem de servi&#231;o (RECOLHIMENTO)</text></g><g class="entity" data-qualified-name="Manutencao" data-source-line="10" id="ent0005"><rect fill="#F1F1F1" height="55.2188" rx="12.5" ry="12.5" style="stroke:#181818;stroke-width:0.5;" width="319.5166" x="584" y="852.5594"/><line style="stroke:#181818;stroke-width:0.5;" x1="584" x2="903.5166" y1="880.1688" y2="880.1688"/><text fill="#000000" font-family="sans-serif" font-size="14" lengthAdjust="spacing" textLength="77.0547" x="705.231" y="872.0926">Manuten&#231;&#227;o</text><text fill="#000000" font-family="sans-serif" font-size="14" lengthAdjust="spacing" textLength="299.5166" x="589" y="899.702">entry / gerar ordem de servi&#231;o (MANUTEN&#199;&#195;O)</text></g><g class="entity" data-qualified-name="Recolhido" data-source-line="11" id="ent0006"><rect fill="#F1F1F1" height="55.2188" rx="12.5" ry="12.5" style="stroke:#181818;stroke-width:0.5;" width="164.7305" x="294.5" y="689.5594"/><line style="stroke:#181818;stroke-width:0.5;" x1="294.5" x2="459.2305" y1="717.1688" y2="717.1688"/><text fill="#000000" font-family="sans-serif" font-size="14" lengthAdjust="spacing" textLength="62.2617" x="345.7344" y="709.0926">Recolhido</text><text fill="#000000" font-family="sans-serif" font-size="14" lengthAdjust="spacing" textLength="144.7305" x="299.5" y="736.702">do / recarregar / avaliar</text></g><g class="start_entity" data-qualified-name=".start." data-source-line="24" id="ent0007"><ellipse cx="16" cy="131.5594" fill="#222222" rx="10" ry="10" style="stroke:#222222;stroke-width:1;"/></g><g class="end_entity" data-qualified-name=".end." data-source-line="44" id="ent0022"><ellipse cx="320" cy="880.0594" fill="none" rx="11" ry="11" style="stroke:#222222;stroke-width:1;"/><ellipse cx="320" cy="880.0594" fill="#222222" rx="6" ry="6" style="stroke:#222222;stroke-width:1;"/></g><g class="entity" data-qualified-name="GMN24" data-source-line="47" id="ent0025"><path d="M1373,94.0594 L1373,169.4656 L1564.5425,169.4656 L1564.5425,104.0594 L1554.5425,94.0594 L1373,94.0594" fill="#FEFFDD" style="stroke:#181818;stroke-width:0.5;"/><path d="M1554.5425,94.0594 L1554.5425,104.0594 L1564.5425,104.0594 L1554.5425,94.0594" fill="#FEFFDD" style="stroke:#181818;stroke-width:1;"/><text fill="#000000" font-family="sans-serif" font-size="13" lengthAdjust="spacing" textLength="125.7344" x="1379" y="112.5545">A viagem s&#243; pode ser</text><text fill="#000000" font-family="sans-serif" font-size="13" lengthAdjust="spacing" textLength="143.7744" x="1379" y="128.9061">finalizada (UC-04) com o</text><text fill="#000000" font-family="sans-serif" font-size="13" lengthAdjust="spacing" textLength="158.2661" x="1379" y="145.2576">ve&#237;culo dentro de uma &#225;rea</text><text fill="#000000" font-family="sans-serif" font-size="13" lengthAdjust="spacing" textLength="170.5425" x="1379" y="161.6092">de estacionamento permitida.</text></g><g class="entity" data-qualified-name="GMN27" data-source-line="54" id="ent0028"><path d="M1120.5,85.5594 L1120.5,127.5594 L1065.11,131.5594 L1120.5,135.5594 L1120.5,177.3172 A0,0 0 0 0 1120.5,177.3172 L1317.1016,177.3172 A0,0 0 0 0 1317.1016,177.3172 L1317.1016,95.5594 L1307.1016,85.5594 L1120.5,85.5594 A0,0 0 0 0 1120.5,85.5594" fill="#FEFFDD" style="stroke:#181818;stroke-width:0.5;"/><path d="M1307.1016,85.5594 L1307.1016,95.5594 L1317.1016,95.5594 L1307.1016,85.5594" fill="#FEFFDD" style="stroke:#181818;stroke-width:0.5;"/><text fill="#000000" font-family="sans-serif" font-size="13" lengthAdjust="spacing" textLength="175.6016" x="1126.5" y="104.0545">Durante o uso, a posi&#231;&#227;o GPS</text><text fill="#000000" font-family="sans-serif" font-size="13" lengthAdjust="spacing" textLength="164.7661" x="1126.5" y="120.4061">&#233; registrada a cada minuto e</text><text fill="#000000" font-family="sans-serif" font-size="13" lengthAdjust="spacing" textLength="162.5889" x="1126.5" y="136.7576">os limites de velocidade s&#227;o</text><text fill="#000000" font-family="sans-serif" font-size="13" lengthAdjust="spacing" textLength="132.9707" x="1126.5" y="153.1092">aplicados em zonas de</text><text fill="#000000" font-family="sans-serif" font-size="13" lengthAdjust="spacing" textLength="119.2471" x="1126.5" y="169.4607">velocidade reduzida.</text></g><!--link *start* to Disponivel--><g class="link" data-entity-1="ent0007" data-entity-2="ent0001" data-link-type="dependency" data-source-line="24" id="lnk8"><path d="M25.38,135.4494 C93.86,156.5294 513.0915,285.6178 650.3815,327.8978" fill="none" id="*start*-to-Disponivel" style="stroke:#181818;stroke-width:1;"/><polygon fill="#181818" points="655.16,329.3694,647.7359,322.8977,650.3815,327.8978,645.3814,330.5433,655.16,329.3694" style="stroke:#181818;stroke-width:1;stroke-linejoin:miter;stroke-miterlimit:10;"/><text fill="#000000" font-family="sans-serif" font-size="13" lengthAdjust="spacing" textLength="141.6162" x="458" y="253.5545">cadastrar / ativar ve&#237;culo</text></g><!--link Disponivel to Reservado--><g class="link" data-entity-1="ent0001" data-entity-2="ent0002" data-link-type="dependency" data-source-line="26" id="lnk9"><path d="M731.9,368.6394 C750.34,381.8194 773.5,398.4794 794,413.5594 C829.52,439.6994 865.3468,466.6971 895.3168,489.4371" fill="none" id="Disponivel-to-Reservado" style="stroke:#181818;stroke-width:1;"/><polygon fill="#181818" points="899.3,492.4594,894.5481,483.8327,895.3168,489.4371,889.7124,490.2058,899.3,492.4594" style="stroke:#181818;stroke-width:1;stroke-linejoin:miter;stroke-miterlimit:10;"/><text fill="#000000" font-family="sans-serif" font-size="13" lengthAdjust="spacing" textLength="56.3354" x="836" y="436.0545">reservar()</text></g><!--link Reservado to Disponivel--><g class="link" data-entity-1="ent0002" data-entity-2="ent0001" data-link-type="dependency" data-source-line="32" id="lnk14"><path d="M941.9,492.3794 C937.21,467.2394 927.23,434.4594 906,413.5594 C861.13,369.3894 792.3027,354.0991 745.7427,348.3791" fill="none" id="Reservado-to-Disponivel" style="stroke:#181818;stroke-width:1;"/><polygon fill="#181818" points="740.78,347.7694,749.2251,352.8369,745.7427,348.3791,750.2006,344.8966,740.78,347.7694" style="stroke:#181818;stroke-width:1;stroke-linejoin:miter;stroke-miterlimit:10;"/><text fill="#000000" font-family="sans-serif" font-size="13" lengthAdjust="spacing" textLength="96.8271" x="944.98" y="428.0545">reserva expirada</text><text fill="#000000" font-family="sans-serif" font-size="13" lengthAdjust="spacing" textLength="130.7871" x="928" y="444.4061">[ap&#243;s 5 min] / cancelar</text></g><!--link Disponivel to EmUso--><g class="link" data-entity-1="ent0001" data-entity-2="ent0003" data-link-type="dependency" data-source-line="27" id="lnk10"><path d="M740.72,334.6394 C778.1,325.6794 831.66,307.6694 866,273.5594 C892.45,247.2794 906.3305,212.2049 914.6505,181.5449" fill="none" id="Disponivel-to-EmUso" style="stroke:#181818;stroke-width:1;"/><polygon fill="#181818" points="915.96,176.7194,909.7426,184.3577,914.6505,181.5449,917.4634,186.4528,915.96,176.7194" style="stroke:#181818;stroke-width:1;stroke-linejoin:miter;stroke-miterlimit:10;"/><text fill="#000000" font-family="sans-serif" font-size="13" lengthAdjust="spacing" textLength="149.5889" x="899" y="245.5545">desbloquear via QR Code</text><text fill="#000000" font-family="sans-serif" font-size="13" lengthAdjust="spacing" textLength="131.5234" x="908.0327" y="261.9061">(desbloqueio imediato)</text></g><!--link EmUso to Disponivel--><g class="link" data-entity-1="ent0003" data-entity-2="ent0001" data-link-type="dependency" data-source-line="34" id="lnk15"><path d="M784.99,154.7494 C746.61,167.9594 709.21,189.0194 686,222.5594 C666.46,250.7994 675.0865,287.4321 685.0965,313.4821" fill="none" id="EmUso-to-Disponivel" style="stroke:#181818;stroke-width:1;"/><polygon fill="#181818" points="686.89,318.1494,687.3956,308.3135,685.0965,313.4821,679.928,311.183,686.89,318.1494" style="stroke:#181818;stroke-width:1;stroke-linejoin:miter;stroke-miterlimit:10;"/><text fill="#000000" font-family="sans-serif" font-size="13" lengthAdjust="spacing" textLength="90.3145" x="724.7686" y="237.0545">finalizar viagem</text><text fill="#000000" font-family="sans-serif" font-size="13" lengthAdjust="spacing" textLength="97.5508" x="721.1504" y="253.4061">[&#225;rea permitida e</text><text fill="#000000" font-family="sans-serif" font-size="13" lengthAdjust="spacing" textLength="165.8516" x="687" y="269.7576">bateria &gt; 10% e sem defeito]</text></g><!--link Disponivel to BateriaCritica--><g class="link" data-entity-1="ent0001" data-entity-2="ent0004" data-link-type="dependency" data-source-line="28" id="lnk11"><path d="M655.48,347.6994 C561.11,355.2694 337.31,376.6594 272,413.5594 C235.25,434.3194 208.7784,470.3937 192.3784,497.2137" fill="none" id="Disponivel-to-BateriaCritica" style="stroke:#181818;stroke-width:1;"/><polygon fill="#181818" points="189.77,501.4794,197.8777,495.8878,192.3784,497.2137,191.0526,491.7144,189.77,501.4794" style="stroke:#181818;stroke-width:1;stroke-linejoin:miter;stroke-miterlimit:10;"/><text fill="#000000" font-family="sans-serif" font-size="13" lengthAdjust="spacing" textLength="137.3188" x="273" y="436.0545">n&#237;vel de bateria &lt;= 10%</text></g><!--link Disponivel to Manutencao--><g class="link" data-entity-1="ent0001" data-entity-2="ent0005" data-link-type="dependency" data-source-line="29" id="lnk12"><path d="M707.59,368.6094 C725.36,414.6594 762.83,518.8594 776,610.5594 C788.68,698.8494 766.2178,799.1634 753.1178,847.5034" fill="none" id="Disponivel-to-Manutencao" style="stroke:#181818;stroke-width:1;"/><polygon fill="#181818" points="751.81,852.3294,758.0248,844.6889,753.1178,847.5034,750.3033,842.5964,751.81,852.3294" style="stroke:#181818;stroke-width:1;stroke-linejoin:miter;stroke-miterlimit:10;"/><text fill="#000000" font-family="sans-serif" font-size="13" lengthAdjust="spacing" textLength="95.3862" x="790.1118" y="625.0545">reportar defeito /</text><text fill="#000000" font-family="sans-serif" font-size="13" lengthAdjust="spacing" textLength="115.6099" x="780" y="641.4061">marcar manuten&#231;&#227;o</text></g><!--link Manutencao to Disponivel--><g class="link" data-entity-1="ent0005" data-entity-2="ent0001" data-link-type="dependency" data-source-line="40" id="lnk19"><path d="M728.08,852.4794 C703.81,810.2194 658.6,724.3194 642,644.5594 C620.74,542.3694 663.4043,424.401 685.1043,373.341" fill="none" id="Manutencao-to-Disponivel" style="stroke:#181818;stroke-width:1;"/><polygon fill="#181818" points="687.06,368.7394,679.8585,375.4579,685.1043,373.341,687.2211,378.5869,687.06,368.7394" style="stroke:#181818;stroke-width:1;stroke-linejoin:miter;stroke-miterlimit:10;"/><text fill="#000000" font-family="sans-serif" font-size="13" lengthAdjust="spacing" textLength="119.958" x="643" y="625.0545">concluir manuten&#231;&#227;o</text><text fill="#000000" font-family="sans-serif" font-size="13" lengthAdjust="spacing" textLength="61.4326" x="672.2627" y="641.4061">[aprovado]</text></g><!--link Reservado to EmUso--><g class="link" data-entity-1="ent0002" data-entity-2="ent0003" data-link-type="dependency" data-source-line="31" id="lnk13"><path d="M1013.05,492.4794 C1109.52,436.5994 1268.21,324.1394 1195,222.5594 C1186.33,210.5294 1131.2476,191.4513 1070.0876,173.0313" fill="none" id="Reservado-to-EmUso" style="stroke:#181818;stroke-width:1;"/><polygon fill="#181818" points="1065.3,171.5894,1072.7641,178.0149,1070.0876,173.0313,1075.0712,170.3547,1065.3,171.5894" style="stroke:#181818;stroke-width:1;stroke-linejoin:miter;stroke-miterlimit:10;"/><text fill="#000000" font-family="sans-serif" font-size="13" lengthAdjust="spacing" textLength="80.2153" x="1212.0359" y="341.0545">desbloquear()</text><text fill="#000000" font-family="sans-serif" font-size="13" lengthAdjust="spacing" textLength="98.2871" x="1203" y="357.4061">[dentro do prazo]</text></g><!--link EmUso to BateriaCritica--><g class="link" data-entity-1="ent0003" data-entity-2="ent0004" data-link-type="dependency" data-source-line="35" id="lnk16"><path d="M784.95,154.6194 C628.8,186.1294 378,258.3694 224,413.5594 C199.94,437.8094 188.1348,470.8917 181.6948,496.3817" fill="none" id="EmUso-to-BateriaCritica" style="stroke:#181818;stroke-width:1;"/><polygon fill="#181818" points="180.47,501.2294,186.5527,493.4834,181.6948,496.3817,178.7964,491.5238,180.47,501.2294" style="stroke:#181818;stroke-width:1;stroke-linejoin:miter;stroke-miterlimit:10;"/><text fill="#000000" font-family="sans-serif" font-size="13" lengthAdjust="spacing" textLength="90.3145" x="342.5422" y="341.0545">finalizar viagem</text><text fill="#000000" font-family="sans-serif" font-size="13" lengthAdjust="spacing" textLength="95.3989" x="340" y="357.4061">[bateria &lt;= 10%]</text></g><!--link EmUso to Manutencao--><g class="link" data-entity-1="ent0003" data-entity-2="ent0005" data-link-type="dependency" data-source-line="36" id="lnk17"><path d="M1024.11,176.6994 C1086,211.7094 1154,267.3094 1154,342.5594 C1154,342.5594 1154,342.5594 1154,718.0594 C1154,778.1894 1004.1739,824.0737 884.8239,851.3937" fill="none" id="EmUso-to-Manutencao" style="stroke:#181818;stroke-width:1;"/><polygon fill="#181818" points="879.95,852.5094,889.6156,854.4003,884.8239,851.3937,887.8305,846.602,879.95,852.5094" style="stroke:#181818;stroke-width:1;stroke-linejoin:miter;stroke-miterlimit:10;"/><text fill="#000000" font-family="sans-serif" font-size="13" lengthAdjust="spacing" textLength="90.3145" x="1162.6013" y="526.5545">finalizar viagem</text><text fill="#000000" font-family="sans-serif" font-size="13" lengthAdjust="spacing" textLength="105.5171" x="1155" y="542.9061">[defeito reportado]</text></g><!--link BateriaCritica to Recolhido--><g class="link" data-entity-1="ent0004" data-entity-2="ent0006" data-link-type="dependency" data-source-line="38" id="lnk18"><path d="M203.94,556.7094 C242.34,592.0694 306.0618,650.7426 344.4318,686.0726" fill="none" id="BateriaCritica-to-Recolhido" style="stroke:#181818;stroke-width:1;"/><polygon fill="#181818" points="348.11,689.4594,344.1986,680.4205,344.4318,686.0726,338.7797,686.3057,348.11,689.4594" style="stroke:#181818;stroke-width:1;stroke-linejoin:miter;stroke-miterlimit:10;"/><text fill="#000000" font-family="sans-serif" font-size="13" lengthAdjust="spacing" textLength="55.6245" x="296" y="633.0545">recolher()</text></g><!--link Recolhido to Manutencao--><g class="link" data-entity-1="ent0006" data-entity-2="ent0005" data-link-type="dependency" data-source-line="42" id="lnk20"><path d="M398.23,744.5594 C415.73,764.6794 442.26,791.5394 471,807.5594 C506.73,827.4794 543.3677,840.7252 583.0277,851.2652" fill="none" id="Recolhido-to-Manutencao" style="stroke:#181818;stroke-width:1;"/><polygon fill="#181818" points="587.86,852.5494,580.1893,846.372,583.0277,851.2652,578.1345,854.1036,587.86,852.5494" style="stroke:#181818;stroke-width:1;stroke-linejoin:miter;stroke-miterlimit:10;"/><text fill="#000000" font-family="sans-serif" font-size="13" lengthAdjust="spacing" textLength="140.2007" x="472" y="804.0545">enviar para manuten&#231;&#227;o</text></g><!--link Recolhido to Disponivel--><g class="link" data-entity-1="ent0006" data-entity-2="ent0001" data-link-type="dependency" data-source-line="43" id="lnk21"><path d="M386.38,689.2494 C402.9,644.7294 440.59,554.3594 494,492.5594 C540.64,438.5994 606.2582,395.8464 650.9282,370.0964" fill="none" id="Recolhido-to-Disponivel" style="stroke:#181818;stroke-width:1;"/><polygon fill="#181818" points="655.26,367.5994,645.4651,368.6287,650.9282,370.0964,649.4604,375.5596,655.26,367.5994" style="stroke:#181818;stroke-width:1;stroke-linejoin:miter;stroke-miterlimit:10;"/><text fill="#000000" font-family="sans-serif" font-size="13" lengthAdjust="spacing" textLength="117.7681" x="495" y="534.5545">recarregar e reativar</text></g><!--link Recolhido to *end*--><g class="link" data-entity-1="ent0006" data-entity-2="ent0022" data-link-type="dependency" data-source-line="44" id="lnk23"><path d="M343.84,744.8394 C331.36,757.0094 318.59,772.4994 312,789.5594 C301.37,817.0594 309.2028,848.0013 314.8628,864.7913" fill="none" id="Recolhido-to-*end*" style="stroke:#181818;stroke-width:1;"/><polygon fill="#181818" points="316.46,869.5294,317.3754,859.7232,314.8628,864.7913,309.7946,862.2787,316.46,869.5294" style="stroke:#181818;stroke-width:1;stroke-linejoin:miter;stroke-miterlimit:10;"/><text fill="#000000" font-family="sans-serif" font-size="13" lengthAdjust="spacing" textLength="97.5508" x="313" y="804.0545">desativar ve&#237;culo</text></g><!--link EmUso to GMN24--><g class="link" data-entity-1="ent0003" data-entity-2="ent0025" data-link-type="association" data-source-line="47" id="lnk26"><path d="M1032.88,86.4994 C1060.92,76.8094 1091.43,68.0094 1120.5,63.0594 C1206.82,48.3794 1231.91,44.6094 1317.5,63.0594 C1346.42,69.2894 1376.47,81.5194 1402.11,93.9394" fill="none" id="EmUso-GMN24" style="stroke:#181818;stroke-width:1;stroke-dasharray:7,7;"/></g><?plantuml-src ZLLBRjH04Dtx5AL8I3E8a4GY2n142fCH8944XeHDCekAtPcqOdURRjk2MI6nu09S0B50BBBA4NmJJi9hj-snnud4nkhFgz-hr-LCPh6W0yaBmmbJ96XgCuwqfRzVVz17KTw4UQo3m5vBbJ8mf7Gah4XfTxTpQ5XTkyEdsu1cd0dQE90srQgyAKIyGMp9xoMs3M86FwP0iEg-tJNNquHEhR-R9bWrvo_nDP9fOigRJ8PS8Uh3YP7kg84UiiepeShVvI_lg3u8MQ-I27Ly9TiawbqGjFdGCn8gCrzeYwIIeMH3gU6bTcJjKY9L3uhF5l4YPnC12AekOlqf5n8Ugohky6R4GjhCm25JWKw8f8LMtkfx5rTRMHL3hzvze15JoB3PSKcC-pQSnk31K2mJYJAHAeZNeOmOIv7GKYksGT2dhPFRGhXusaJ0miBLXyYQHhFfvFZjwpU7qwEJut6mulD_R0_tZqvFfaVbz_8RR5kkLtKYOnGBOnHGS0noWk3iuPmsD_Sw-W7UrUqf0JAJ1HP5gzKEqXbsksFysep6wwYMlQPZpYLKzdv64oZ-N8qwlIIPY4XofWTk1eJw5-1ukAXr-_m5xMm_M3ViCMb4garMwUTIo0padAk4ZMjeqf5qLwJtr30Qdwkpo7L6Ev8huSxNp7hCrWoH-9nA0vPXpcbvQxtKv-0xP1MAsBN6nnkuk9GAlLjw0g5ck2X_6i6K2WCrGeC4FXiwzXmRv6IIDENEEvu7XDxXlSzirxh7wXsM3RyruH52hxy9Bw6LL4sr5av2NVaF9QfL6EUotx6AJQCB7sdbTf2hK4KrQ31T-otlsworhdq_0Xl_BjOCt6kg139uDKfZJXYvkCf8NzOJbsY_vefiUOlnuvyppXikqSlHwMHp-yaO1IVaJ1gNrCXEK8vVIoK1NBlvWzaRIaoW10YzaiNZGAY8N2BtfNEGuq-32qsvrO-8-nCHWF9FEowHMZqW8TmSSGJkyMFp8z6kpKJhoALwRhh_NpCaWQkAQf56HFcod-q_?></g></svg>