<svg xmlns="http://www.w3.org/2000/svg" xmlns:xlink="http://www.w3.org/1999/xlink" contentStyleType="text/css" data-diagram-type="ACTIVITY" height="1430px" preserveAspectRatio="none" style="width:708px;height:1430px;background:#FFFFFF;" version="1.1" viewBox="0 0 708 1430" width="708px" zoomAndPan="magnify"><?plantuml 1.2026.4?><defs/><g><g class="title" data-source-line="1"><text fill="#000000" font-family="sans-serif" font-size="14" font-weight="700" lengthAdjust="spacing" textLength="345.8984" x="180.1281" y="34.5332">Diagrama de Atividades &#8212; Finalizar Viagem e Pagar</text></g><ellipse cx="274.6332" cy="63.6094" fill="#222222" rx="10" ry="10" style="stroke:#222222;stroke-width:1;"/><rect fill="#F1F1F1" height="35.0938" rx="12.5" ry="12.5" style="stroke:#181818;stroke-width:0.5;" width="220.0977" x="164.5844" y="93.6094"/><text fill="#000000" font-family="sans-serif" font-size="12" lengthAdjust="spacing" textLength="200.0977" x="174.5844" y="116.0664">Usu&#225;rio solicita finaliza&#231;&#227;o da viagem</text><rect fill="#F1F1F1" height="35.0938" rx="12.5" ry="12.5" style="stroke:#181818;stroke-width:0.5;" width="236.7734" x="156.2465" y="192.7031"/><text fill="#000000" font-family="sans-serif" font-size="12" lengthAdjust="spacing" textLength="216.7734" x="166.2465" y="215.1602">Obter localiza&#231;&#227;o atual do ve&#237;culo (GPS)</text><rect fill="#F1F1F1" height="35.0938" rx="12.5" ry="12.5" style="stroke:#181818;stroke-width:0.5;" width="189.4414" x="179.9125" y="247.7969"/><text fill="#000000" font-family="sans-serif" font-size="12" lengthAdjust="spacing" textLength="169.4414" x="189.9125" y="270.2539">Validar &#225;rea de estacionamento</text><rect fill="#F1F1F1" height="50.1875" rx="12.5" ry="12.5" style="stroke:#181818;stroke-width:0.5;" width="188.7559" x="180.2552" y="351.8086"/><text fill="#000000" font-family="sans-serif" font-size="12" lengthAdjust="spacing" textLength="168.7559" x="190.2552" y="374.2656">Informar que o ve&#237;culo deve ser</text><text fill="#000000" font-family="sans-serif" font-size="12" lengthAdjust="spacing" textLength="164.7598" x="190.2552" y="389.3594">estacionado em &#225;rea permitida</text><polygon fill="#F1F1F1" points="197.8937,302.8906,351.3727,302.8906,363.3727,314.8906,351.3727,326.8906,197.8937,326.8906,185.8937,314.8906,197.8937,302.8906" style="stroke:#181818;stroke-width:0.5;stroke-linejoin:miter;stroke-miterlimit:10;"/><text fill="#000000" font-family="sans-serif" font-size="11" lengthAdjust="spacing" textLength="17.1069" x="278.6332" y="338.3096">sim</text><text fill="#000000" font-family="sans-serif" font-size="11" lengthAdjust="spacing" textLength="153.479" x="197.8937" y="319.3916">Ve&#237;culo fora de &#225;rea permitida?</text><polygon fill="#F1F1F1" points="274.6332,421.9961,286.6332,433.9961,274.6332,445.9961,262.6332,433.9961,274.6332,421.9961" style="stroke:#181818;stroke-width:0.5;stroke-linejoin:miter;stroke-miterlimit:10;"/><polygon fill="#F1F1F1" points="274.6332,148.7031,286.6332,160.7031,274.6332,172.7031,262.6332,160.7031,274.6332,148.7031" style="stroke:#181818;stroke-width:0.5;stroke-linejoin:miter;stroke-miterlimit:10;"/><polygon fill="#F1F1F1" points="197.8937,465.9961,351.3727,465.9961,363.3727,477.9961,351.3727,489.9961,197.8937,489.9961,185.8937,477.9961,197.8937,465.9961" style="stroke:#181818;stroke-width:0.5;stroke-linejoin:miter;stroke-miterlimit:10;"/><text fill="#000000" font-family="sans-serif" font-size="11" lengthAdjust="spacing" textLength="153.479" x="197.8937" y="482.4971">Ve&#237;culo fora de &#225;rea permitida?</text><text fill="#000000" font-family="sans-serif" font-size="11" lengthAdjust="spacing" textLength="17.1069" x="363.3727" y="475.5791">sim</text><rect fill="#F1F1F1" height="65.2813" rx="12.5" ry="12.5" style="stroke:#181818;stroke-width:0.5;" width="243.7871" x="152.7396" y="509.9961"/><text fill="#000000" font-family="sans-serif" font-size="12" lengthAdjust="spacing" textLength="102.7148" x="162.7396" y="532.4531">Calcular valor base</text><text fill="#000000" font-family="sans-serif" font-size="12" lengthAdjust="spacing" textLength="223.7871" x="162.7396" y="547.5469">(taxa de desbloqueio + tempo x valor/min)</text><text fill="#000000" font-family="sans-serif" font-size="12" lengthAdjust="spacing" textLength="195.4395" x="162.7396" y="562.6406">conforme tipo de ve&#237;culo e munic&#237;pio</text><path d="M406.7006,585.2773 L406.7006,618.9805 L386.7006,622.9805 L406.7006,626.9805 L406.7006,660.6836 A0,0 0 0 0 406.7006,660.6836 L687.1547,660.6836 A0,0 0 0 0 687.1547,660.6836 L687.1547,595.2773 L677.1547,585.2773 L406.7006,585.2773 A0,0 0 0 0 406.7006,585.2773" fill="#FEFFDD" style="stroke:#181818;stroke-width:0.5;"/><path d="M677.1547,585.2773 L677.1547,595.2773 L687.1547,595.2773 L677.1547,585.2773" fill="#FEFFDD" style="stroke:#181818;stroke-width:0.5;"/><text fill="#000000" font-family="sans-serif" font-size="13" lengthAdjust="spacing" textLength="129.3462" x="412.7006" y="603.7725">Bronze: sem desconto</text><text fill="#000000" font-family="sans-serif" font-size="13" lengthAdjust="spacing" textLength="202.3696" x="412.7006" y="620.124">Prata: 50% na taxa de desbloqueio</text><text fill="#000000" font-family="sans-serif" font-size="13" lengthAdjust="spacing" textLength="239.1924" x="412.7006" y="636.4756">Ouro: mais vantajoso entre 100% na taxa</text><text fill="#000000" font-family="sans-serif" font-size="13" lengthAdjust="spacing" textLength="259.4541" x="412.7006" y="652.8271">de desbloqueio ou 50% no valor dos minutos</text><rect fill="#F1F1F1" height="35.0938" rx="12.5" ry="12.5" style="stroke:#181818;stroke-width:0.5;" width="224.1348" x="162.5658" y="605.4336"/><text fill="#000000" font-family="sans-serif" font-size="12" lengthAdjust="spacing" textLength="204.1348" x="172.5658" y="627.8906">Aplicar desconto do pacote do usu&#225;rio</text><rect fill="#F1F1F1" height="50.1875" rx="12.5" ry="12.5" style="stroke:#181818;stroke-width:0.5;" width="158.0762" x="195.5951" y="729.6016"/><text fill="#000000" font-family="sans-serif" font-size="12" lengthAdjust="spacing" textLength="132.75" x="205.5951" y="752.0586">Aplicar 20% de desconto</text><text fill="#000000" font-family="sans-serif" font-size="12" lengthAdjust="spacing" textLength="138.0762" x="205.5951" y="767.1523">sobre os minutos rodados</text><polygon fill="#F1F1F1" points="183.5233,680.6836,365.743,680.6836,377.743,692.6836,365.743,704.6836,183.5233,704.6836,171.5233,692.6836,183.5233,680.6836" style="stroke:#181818;stroke-width:0.5;stroke-linejoin:miter;stroke-miterlimit:10;"/><text fill="#000000" font-family="sans-serif" font-size="11" lengthAdjust="spacing" textLength="17.1069" x="278.6332" y="716.1025">sim</text><text fill="#000000" font-family="sans-serif" font-size="11" lengthAdjust="spacing" textLength="182.2197" x="183.5233" y="697.1846">Possui v&#237;nculo acad&#234;mico aprovado?</text><polygon fill="#F1F1F1" points="274.6332,799.7891,286.6332,811.7891,274.6332,823.7891,262.6332,811.7891,274.6332,799.7891" style="stroke:#181818;stroke-width:0.5;stroke-linejoin:miter;stroke-miterlimit:10;"/><rect fill="#F1F1F1" height="35.0938" rx="12.5" ry="12.5" style="stroke:#181818;stroke-width:0.5;" width="198.0898" x="175.5883" y="892.707"/><text fill="#000000" font-family="sans-serif" font-size="12" lengthAdjust="spacing" textLength="178.0898" x="185.5883" y="915.1641">Aplicar cr&#233;ditos sobre a cobran&#231;a</text><polygon fill="#F1F1F1" points="205.236,843.7891,344.0304,843.7891,356.0304,855.7891,344.0304,867.7891,205.236,867.7891,193.236,855.7891,205.236,843.7891" style="stroke:#181818;stroke-width:0.5;stroke-linejoin:miter;stroke-miterlimit:10;"/><text fill="#000000" font-family="sans-serif" font-size="11" lengthAdjust="spacing" textLength="17.1069" x="278.6332" y="879.208">sim</text><text fill="#000000" font-family="sans-serif" font-size="11" lengthAdjust="spacing" textLength="138.7944" x="205.236" y="860.29">Possui cr&#233;ditos dispon&#237;veis?</text><polygon fill="#F1F1F1" points="274.6332,947.8008,286.6332,959.8008,274.6332,971.8008,262.6332,959.8008,274.6332,947.8008" style="stroke:#181818;stroke-width:0.5;stroke-linejoin:miter;stroke-miterlimit:10;"/><rect fill="#F1F1F1" height="35.0938" rx="12.5" ry="12.5" style="stroke:#181818;stroke-width:0.5;" width="255.4766" x="146.8949" y="991.8008"/><text fill="#000000" font-family="sans-serif" font-size="12" lengthAdjust="spacing" textLength="235.4766" x="156.8949" y="1014.2578">Enviar cobran&#231;a ao Gateway de Pagamento</text><polygon fill="#F1F1F1" points="218.9806,1046.8945,330.2858,1046.8945,342.2858,1058.8945,330.2858,1070.8945,218.9806,1070.8945,206.9806,1058.8945,218.9806,1046.8945" style="stroke:#181818;stroke-width:0.5;stroke-linejoin:miter;stroke-miterlimit:10;"/><text fill="#000000" font-family="sans-serif" font-size="11" lengthAdjust="spacing" textLength="111.3052" x="218.9806" y="1063.3955">Pagamento aprovado?</text><text fill="#000000" font-family="sans-serif" font-size="11" lengthAdjust="spacing" textLength="17.1069" x="189.8737" y="1056.4775">sim</text><text fill="#000000" font-family="sans-serif" font-size="11" lengthAdjust="spacing" textLength="18.353" x="342.2858" y="1056.4775">n&#227;o</text><rect fill="#F1F1F1" height="35.0938" rx="12.5" ry="12.5" style="stroke:#181818;stroke-width:0.5;" width="212.7324" x="32.1448" y="1080.8945"/><text fill="#000000" font-family="sans-serif" font-size="12" lengthAdjust="spacing" textLength="192.7324" x="42.1448" y="1103.3516">Finalizar viagem e registrar hist&#243;rico</text><rect fill="#F1F1F1" height="50.1875" rx="12.5" ry="12.5" style="stroke:#181818;stroke-width:0.5;" width="190.0801" x="43.4709" y="1184.9063"/><text fill="#000000" font-family="sans-serif" font-size="12" lengthAdjust="spacing" textLength="170.0801" x="53.4709" y="1207.3633">Adicionar cr&#233;ditos promocionais</text><text fill="#000000" font-family="sans-serif" font-size="12" lengthAdjust="spacing" textLength="122.0566" x="53.4709" y="1222.457">para a pr&#243;xima viagem</text><polygon fill="#F1F1F1" points="37,1135.9883,240.022,1135.9883,252.022,1147.9883,240.022,1159.9883,37,1159.9883,25,1147.9883,37,1135.9883" style="stroke:#181818;stroke-width:0.5;stroke-linejoin:miter;stroke-miterlimit:10;"/><text fill="#000000" font-family="sans-serif" font-size="11" lengthAdjust="spacing" textLength="17.1069" x="142.511" y="1171.4072">sim</text><text fill="#000000" font-family="sans-serif" font-size="11" lengthAdjust="spacing" textLength="203.022" x="37" y="1152.4893">Devolu&#231;&#227;o em esta&#231;&#227;o de alta demanda?</text><polygon fill="#F1F1F1" points="138.511,1260.0117,150.511,1272.0117,138.511,1284.0117,126.511,1272.0117,138.511,1260.0117" style="stroke:#181818;stroke-width:0.5;stroke-linejoin:miter;stroke-miterlimit:10;"/><rect fill="#F1F1F1" height="50.1875" rx="12.5" ry="12.5" style="stroke:#181818;stroke-width:0.5;" width="164.0879" x="56.467" y="1318.1758"/><text fill="#000000" font-family="sans-serif" font-size="12" lengthAdjust="spacing" textLength="144.0879" x="66.467" y="1340.6328">Atualizar estado do ve&#237;culo</text><text fill="#000000" font-family="sans-serif" font-size="12" lengthAdjust="spacing" textLength="133.4004" x="66.467" y="1355.7266">e exibir recibo da viagem</text><ellipse cx="138.511" cy="1399.3633" fill="none" rx="11" ry="11" style="stroke:#222222;stroke-width:1;"/><ellipse cx="138.511" cy="1399.3633" fill="#222222" rx="6" ry="6" style="stroke:#222222;stroke-width:1;"/><rect fill="#F1F1F1" height="35.0938" rx="12.5" ry="12.5" style="stroke:#181818;stroke-width:0.5;" width="196.1094" x="312.7007" y="1080.8945"/><text fill="#000000" font-family="sans-serif" font-size="12" lengthAdjust="spacing" textLength="176.1094" x="322.7007" y="1103.3516">Manter cobran&#231;a como pendente</text><rect fill="#F1F1F1" height="35.0938" rx="12.5" ry="12.5" style="stroke:#181818;stroke-width:0.5;" width="253.4668" x="284.022" y="1135.9883"/><text fill="#000000" font-family="sans-serif" font-size="12" lengthAdjust="spacing" textLength="233.4668" x="294.022" y="1158.4453">Registrar viagem com pagamento pendente</text><rect fill="#F1F1F1" height="35.0938" rx="12.5" ry="12.5" style="stroke:#181818;stroke-width:0.5;" width="174.0957" x="323.7075" y="1206.082"/><text fill="#000000" font-family="sans-serif" font-size="12" lengthAdjust="spacing" textLength="154.0957" x="333.7075" y="1228.5391">Informar falha no pagamento</text><ellipse cx="410.7554" cy="1287.1758" fill="none" rx="11" ry="11" style="stroke:#222222;stroke-width:1;"/><ellipse cx="410.7554" cy="1287.1758" fill="#222222" rx="6" ry="6" style="stroke:#222222;stroke-width:1;"/><line style="stroke:#181818;stroke-width:1;" x1="274.6332" x2="274.6332" y1="73.6094" y2="93.6094"/><polygon fill="#181818" points="270.6332,83.6094,274.6332,93.6094,278.6332,83.6094,274.6332,87.6094" style="stroke:#181818;stroke-width:1;stroke-linejoin:miter;stroke-miterlimit:10;"/><line style="stroke:#181818;stroke-width:1;" x1="274.6332" x2="274.6332" y1="227.7969" y2="247.7969"/><polygon fill="#181818" points="270.6332,237.7969,274.6332,247.7969,278.6332,237.7969,274.6332,241.7969" style="stroke:#181818;stroke-width:1;stroke-linejoin:miter;stroke-miterlimit:10;"/><line style="stroke:#181818;stroke-width:1;" x1="274.6332" x2="274.6332" y1="326.8906" y2="351.8086"/><polygon fill="#181818" points="270.6332,341.8086,274.6332,351.8086,278.6332,341.8086,274.6332,345.8086" style="stroke:#181818;stroke-width:1;stroke-linejoin:miter;stroke-miterlimit:10;"/><line style="stroke:#181818;stroke-width:1;" x1="363.3727" x2="379.0111" y1="314.8906" y2="314.8906"/><polygon fill="#181818" points="375.0111,366.9023,379.0111,376.9023,383.0111,366.9023,379.0111,370.9023" style="stroke:#181818;stroke-width:1;stroke-linejoin:miter;stroke-miterlimit:10;"/><line style="stroke:#181818;stroke-width:1;" x1="379.0111" x2="379.0111" y1="314.8906" y2="433.9961"/><line style="stroke:#181818;stroke-width:1;" x1="379.0111" x2="286.6332" y1="433.9961" y2="433.9961"/><polygon fill="#181818" points="296.6332,429.9961,286.6332,433.9961,296.6332,437.9961,292.6332,433.9961" style="stroke:#181818;stroke-width:1;stroke-linejoin:miter;stroke-miterlimit:10;"/><line style="stroke:#181818;stroke-width:1;" x1="274.6332" x2="274.6332" y1="401.9961" y2="421.9961"/><polygon fill="#181818" points="270.6332,411.9961,274.6332,421.9961,278.6332,411.9961,274.6332,415.9961" style="stroke:#181818;stroke-width:1;stroke-linejoin:miter;stroke-miterlimit:10;"/><line style="stroke:#181818;stroke-width:1;" x1="274.6332" x2="274.6332" y1="282.8906" y2="302.8906"/><polygon fill="#181818" points="270.6332,292.8906,274.6332,302.8906,278.6332,292.8906,274.6332,296.8906" style="stroke:#181818;stroke-width:1;stroke-linejoin:miter;stroke-miterlimit:10;"/><line style="stroke:#181818;stroke-width:1;" x1="274.6332" x2="274.6332" y1="172.7031" y2="192.7031"/><polygon fill="#181818" points="270.6332,182.7031,274.6332,192.7031,278.6332,182.7031,274.6332,186.7031" style="stroke:#181818;stroke-width:1;stroke-linejoin:miter;stroke-miterlimit:10;"/><line style="stroke:#181818;stroke-width:1;" x1="363.3727" x2="405.0199" y1="477.9961" y2="477.9961"/><polygon fill="#181818" points="401.0199,316.8086,405.0199,306.8086,409.0199,316.8086,405.0199,312.8086" style="stroke:#181818;stroke-width:1;stroke-linejoin:miter;stroke-miterlimit:10;"/><line style="stroke:#181818;stroke-width:1;" x1="405.0199" x2="405.0199" y1="160.7031" y2="477.9961"/><line style="stroke:#181818;stroke-width:1;" x1="405.0199" x2="286.6332" y1="160.7031" y2="160.7031"/><polygon fill="#181818" points="296.6332,156.7031,286.6332,160.7031,296.6332,164.7031,292.6332,160.7031" style="stroke:#181818;stroke-width:1;stroke-linejoin:miter;stroke-miterlimit:10;"/><line style="stroke:#181818;stroke-width:1;" x1="274.6332" x2="274.6332" y1="445.9961" y2="465.9961"/><polygon fill="#181818" points="270.6332,455.9961,274.6332,465.9961,278.6332,455.9961,274.6332,459.9961" style="stroke:#181818;stroke-width:1;stroke-linejoin:miter;stroke-miterlimit:10;"/><line style="stroke:#181818;stroke-width:1;" x1="274.6332" x2="274.6332" y1="128.7031" y2="148.7031"/><polygon fill="#181818" points="270.6332,138.7031,274.6332,148.7031,278.6332,138.7031,274.6332,142.7031" style="stroke:#181818;stroke-width:1;stroke-linejoin:miter;stroke-miterlimit:10;"/><line style="stroke:#181818;stroke-width:1;" x1="274.6332" x2="274.6332" y1="489.9961" y2="509.9961"/><polygon fill="#181818" points="270.6332,499.9961,274.6332,509.9961,278.6332,499.9961,274.6332,503.9961" style="stroke:#181818;stroke-width:1;stroke-linejoin:miter;stroke-miterlimit:10;"/><line style="stroke:#181818;stroke-width:1;" x1="274.6332" x2="274.6332" y1="575.2773" y2="605.4336"/><polygon fill="#181818" points="270.6332,595.4336,274.6332,605.4336,278.6332,595.4336,274.6332,599.4336" style="stroke:#181818;stroke-width:1;stroke-linejoin:miter;stroke-miterlimit:10;"/><line style="stroke:#181818;stroke-width:1;" x1="274.6332" x2="274.6332" y1="704.6836" y2="729.6016"/><polygon fill="#181818" points="270.6332,719.6016,274.6332,729.6016,278.6332,719.6016,274.6332,723.6016" style="stroke:#181818;stroke-width:1;stroke-linejoin:miter;stroke-miterlimit:10;"/><line style="stroke:#181818;stroke-width:1;" x1="377.743" x2="389.743" y1="692.6836" y2="692.6836"/><polygon fill="#181818" points="385.743,744.6953,389.743,754.6953,393.743,744.6953,389.743,748.6953" style="stroke:#181818;stroke-width:1;stroke-linejoin:miter;stroke-miterlimit:10;"/><line style="stroke:#181818;stroke-width:1;" x1="389.743" x2="389.743" y1="692.6836" y2="811.7891"/><line style="stroke:#181818;stroke-width:1;" x1="389.743" x2="286.6332" y1="811.7891" y2="811.7891"/><polygon fill="#181818" points="296.6332,807.7891,286.6332,811.7891,296.6332,815.7891,292.6332,811.7891" style="stroke:#181818;stroke-width:1;stroke-linejoin:miter;stroke-miterlimit:10;"/><line style="stroke:#181818;stroke-width:1;" x1="274.6332" x2="274.6332" y1="779.7891" y2="799.7891"/><polygon fill="#181818" points="270.6332,789.7891,274.6332,799.7891,278.6332,789.7891,274.6332,793.7891" style="stroke:#181818;stroke-width:1;stroke-linejoin:miter;stroke-miterlimit:10;"/><line style="stroke:#181818;stroke-width:1;" x1="274.6332" x2="274.6332" y1="640.5273" y2="680.6836"/><polygon fill="#181818" points="270.6332,670.6836,274.6332,680.6836,278.6332,670.6836,274.6332,674.6836" style="stroke:#181818;stroke-width:1;stroke-linejoin:miter;stroke-miterlimit:10;"/><line style="stroke:#181818;stroke-width:1;" x1="274.6332" x2="274.6332" y1="867.7891" y2="892.707"/><polygon fill="#181818" points="270.6332,882.707,274.6332,892.707,278.6332,882.707,274.6332,886.707" style="stroke:#181818;stroke-width:1;stroke-linejoin:miter;stroke-miterlimit:10;"/><line style="stroke:#181818;stroke-width:1;" x1="356.0304" x2="383.6781" y1="855.7891" y2="855.7891"/><polygon fill="#181818" points="379.6781,900.2539,383.6781,910.2539,387.6781,900.2539,383.6781,904.2539" style="stroke:#181818;stroke-width:1;stroke-linejoin:miter;stroke-miterlimit:10;"/><line style="stroke:#181818;stroke-width:1;" x1="383.6781" x2="383.6781" y1="855.7891" y2="959.8008"/><line style="stroke:#181818;stroke-width:1;" x1="383.6781" x2="286.6332" y1="959.8008" y2="959.8008"/><polygon fill="#181818" points="296.6332,955.8008,286.6332,959.8008,296.6332,963.8008,292.6332,959.8008" style="stroke:#181818;stroke-width:1;stroke-linejoin:miter;stroke-miterlimit:10;"/><line style="stroke:#181818;stroke-width:1;" x1="274.6332" x2="274.6332" y1="927.8008" y2="947.8008"/><polygon fill="#181818" points="270.6332,937.8008,274.6332,947.8008,278.6332,937.8008,274.6332,941.8008" style="stroke:#181818;stroke-width:1;stroke-linejoin:miter;stroke-miterlimit:10;"/><line style="stroke:#181818;stroke-width:1;" x1="274.6332" x2="274.6332" y1="823.7891" y2="843.7891"/><polygon fill="#181818" points="270.6332,833.7891,274.6332,843.7891,278.6332,833.7891,274.6332,837.7891" style="stroke:#181818;stroke-width:1;stroke-linejoin:miter;stroke-miterlimit:10;"/><line style="stroke:#181818;stroke-width:1;" x1="274.6332" x2="274.6332" y1="971.8008" y2="991.8008"/><polygon fill="#181818" points="270.6332,981.8008,274.6332,991.8008,278.6332,981.8008,274.6332,985.8008" style="stroke:#181818;stroke-width:1;stroke-linejoin:miter;stroke-miterlimit:10;"/><line style="stroke:#181818;stroke-width:1;" x1="138.511" x2="138.511" y1="1159.9883" y2="1184.9063"/><polygon fill="#181818" points="134.511,1174.9063,138.511,1184.9063,142.511,1174.9063,138.511,1178.9063" style="stroke:#181818;stroke-width:1;stroke-linejoin:miter;stroke-miterlimit:10;"/><line style="stroke:#181818;stroke-width:1;" x1="252.022" x2="264.022" y1="1147.9883" y2="1147.9883"/><polygon fill="#181818" points="260.022,1200,264.022,1210,268.022,1200,264.022,1204" style="stroke:#181818;stroke-width:1;stroke-linejoin:miter;stroke-miterlimit:10;"/><line style="stroke:#181818;stroke-width:1;" x1="264.022" x2="264.022" y1="1147.9883" y2="1272.0117"/><line style="stroke:#181818;stroke-width:1;" x1="264.022" x2="150.511" y1="1272.0117" y2="1272.0117"/><polygon fill="#181818" points="160.511,1268.0117,150.511,1272.0117,160.511,1276.0117,156.511,1272.0117" style="stroke:#181818;stroke-width:1;stroke-linejoin:miter;stroke-miterlimit:10;"/><line style="stroke:#181818;stroke-width:1;" x1="138.511" x2="138.511" y1="1235.0938" y2="1260.0117"/><polygon fill="#181818" points="134.511,1250.0117,138.511,1260.0117,142.511,1250.0117,138.511,1254.0117" style="stroke:#181818;stroke-width:1;stroke-linejoin:miter;stroke-miterlimit:10;"/><line style="stroke:#181818;stroke-width:1;" x1="138.511" x2="138.511" y1="1115.9883" y2="1135.9883"/><polygon fill="#181818" points="134.511,1125.9883,138.511,1135.9883,142.511,1125.9883,138.511,1129.9883" style="stroke:#181818;stroke-width:1;stroke-linejoin:miter;stroke-miterlimit:10;"/><line style="stroke:#181818;stroke-width:1;" x1="138.511" x2="138.511" y1="1284.0117" y2="1318.1758"/><polygon fill="#181818" points="134.511,1308.1758,138.511,1318.1758,142.511,1308.1758,138.511,1312.1758" style="stroke:#181818;stroke-width:1;stroke-linejoin:miter;stroke-miterlimit:10;"/><line style="stroke:#181818;stroke-width:1;" x1="138.511" x2="138.511" y1="1368.3633" y2="1388.3633"/><polygon fill="#181818" points="134.511,1378.3633,138.511,1388.3633,142.511,1378.3633,138.511,1382.3633" style="stroke:#181818;stroke-width:1;stroke-linejoin:miter;stroke-miterlimit:10;"/><line style="stroke:#181818;stroke-width:1;" x1="410.7554" x2="410.7554" y1="1115.9883" y2="1135.9883"/><polygon fill="#181818" points="406.7554,1125.9883,410.7554,1135.9883,414.7554,1125.9883,410.7554,1129.9883" style="stroke:#181818;stroke-width:1;stroke-linejoin:miter;stroke-miterlimit:10;"/><line style="stroke:#181818;stroke-width:1;" x1="410.7554" x2="410.7554" y1="1171.082" y2="1206.082"/><polygon fill="#181818" points="406.7554,1196.082,410.7554,1206.082,414.7554,1196.082,410.7554,1200.082" style="stroke:#181818;stroke-width:1;stroke-linejoin:miter;stroke-miterlimit:10;"/><line style="stroke:#181818;stroke-width:1;" x1="410.7554" x2="410.7554" y1="1241.1758" y2="1276.1758"/><polygon fill="#181818" points="406.7554,1266.1758,410.7554,1276.1758,414.7554,1266.1758,410.7554,1270.1758" style="stroke:#181818;stroke-width:1;stroke-linejoin:miter;stroke-miterlimit:10;"/><line style="stroke:#181818;stroke-width:1;" x1="206.9806" x2="138.511" y1="1058.8945" y2="1058.8945"/><line style="stroke:#181818;stroke-width:1;" x1="138.511" x2="138.511" y1="1058.8945" y2="1080.8945"/><polygon fill="#181818" points="134.511,1070.8945,138.511,1080.8945,142.511,1070.8945,138.511,1074.8945" style="stroke:#181818;stroke-width:1;stroke-linejoin:miter;stroke-miterlimit:10;"/><line style="stroke:#181818;stroke-width:1;" x1="342.2858" x2="410.7554" y1="1058.8945" y2="1058.8945"/><line style="stroke:#181818;stroke-width:1;" x1="410.7554" x2="410.7554" y1="1058.8945" y2="1080.8945"/><polygon fill="#181818" points="406.7554,1070.8945,410.7554,1080.8945,414.7554,1070.8945,410.7554,1074.8945" style="stroke:#181818;stroke-width:1;stroke-linejoin:miter;stroke-miterlimit:10;"/><line style="stroke:#181818;stroke-width:1;" x1="274.6332" x2="274.6332" y1="1026.8945" y2="1046.8945"/><polygon fill="#181818" points="270.6332,1036.8945,274.6332,1046.8945,278.6332,1036.8945,274.6332,1040.8945" style="stroke:#181818;stroke-width:1;stroke-linejoin:miter;stroke-miterlimit:10;"/><?plantuml-src ZLJ1RjD04BtxA-Q2b8W31Qa7t0Cg52eEg168ddAPU2V9KE-EsLsxfIS-WXz072gGSked-4_u4cOTnqwhLk9aP_DcvhqtVXivbWGdZ2kF5i4G74TksA2X07-__u1txB3aQ_HmhY2oG3335Vei2nViAjGoSA9egk3mSE_Gexj8XoyF51hHnopBFuUw_UbP84Z91KU4PT--lMb_2HY4ffjob6MUAiAO0UHdYqWUIYdsa1XhBC48DDHkYheKc9pEFasF4lvSSKO9woZg997EBrWSMd9Hj3S0Bs5olYjTYkzmsuAAlEMe7LvD8Qx9mIImdMgDjdxl56krzzUQO6-ueOOWa9-xOPPoKxVkjKpyo1bUxlJ1vPfr0V_3XKFF9ClVOAbWfT5WAHuM66Zk9X6lkb9Tng8KPQX6FuL8jXAusaAVMNRJkIkaqq4GkKhaHo44jdPSj9kAar7vSQMBqa7QKukY9CihB2HIUglxVIhIfIFFgtLQsMilxffoTSGEbNeyynWnXyE39-0G7g2hcBFQImuMLMs3Bk8N2ShAHK_m_60iLEGzfL9l6qjlYf40ghQE4ZAr71B1B4jxdqa8DKFJRbod6GiqxH_BXRvMNXfTtVtL3pwyq17RmPsekGkoK6hZBF2YuP5mbFLxtfjO-FQtuGGo72fnxQOX3e_E6k7R8GY5Fj6rDpXqpzywJOmV_m4KECL8b_Wj4KrPtNtr7PFTxyUbZeblTedtjE8GlHwjzTdUUlLgYD49DLBMsrWcj0QWJxDIBcFQiKNtO9oE3NTPsTUgjAnqfnpctLsYmYlVtbwn7Q-78KQfIxeBEi9fjf7zQq432NJ52_Ogek35dJi684IfiepAe15qohapu8D-TxHlQQ6CD8hEg77KNJ4V1qDwZnIYkTXvUmSxt1bBBDUOFj1gN4fFOIlc7m00?></g></svg>