<svg xmlns="http://www.w3.org/2000/svg" xmlns:xlink="http://www.w3.org/1999/xlink" contentStyleType="text/css" data-diagram-type="ACTIVITY" height="1028px" preserveAspectRatio="none" style="width:955px;height:1028px;background:#FFFFFF;" version="1.1" viewBox="0 0 955 1028" width="955px" zoomAndPan="magnify"><?plantuml 1.2026.4?><defs/><g><g class="title" data-source-line="1"><text fill="#000000" font-family="sans-serif" font-size="14" font-weight="700" lengthAdjust="spacing" textLength="341.2021" x="306.2886" y="34.5332">Diagrama de Atividades &#8212; Ciclo de Uso do Servi&#231;o</text></g><ellipse cx="621.2876" cy="63.6094" fill="#222222" rx="10" ry="10" style="stroke:#222222;stroke-width:1;"/><rect fill="#F1F1F1" height="35.0938" rx="12.5" ry="12.5" style="stroke:#181818;stroke-width:0.5;" width="232.1152" x="505.23" y="93.6094"/><text fill="#000000" font-family="sans-serif" font-size="12" lengthAdjust="spacing" textLength="212.1152" x="515.23" y="116.0664">Consultar ve&#237;culos dispon&#237;veis no mapa</text><polygon fill="#F1F1F1" points="539.3542,148.7031,703.2209,148.7031,715.2209,160.7031,703.2209,172.7031,539.3542,172.7031,527.3542,160.7031,539.3542,148.7031" style="stroke:#181818;stroke-width:0.5;stroke-linejoin:miter;stroke-miterlimit:10;"/><text fill="#000000" font-family="sans-serif" font-size="11" lengthAdjust="spacing" textLength="163.8667" x="539.3542" y="165.2041">Existe ve&#237;culo desejado pr&#243;ximo?</text><text fill="#000000" font-family="sans-serif" font-size="11" lengthAdjust="spacing" textLength="17.1069" x="510.2473" y="158.2861">sim</text><text fill="#000000" font-family="sans-serif" font-size="11" lengthAdjust="spacing" textLength="18.353" x="715.2209" y="158.2861">n&#227;o</text><rect fill="#F1F1F1" height="35.0938" rx="12.5" ry="12.5" style="stroke:#181818;stroke-width:0.5;" width="118.0566" x="352.8271" y="182.7031"/><text fill="#000000" font-family="sans-serif" font-size="12" lengthAdjust="spacing" textLength="98.0566" x="362.8271" y="205.1602">Selecionar ve&#237;culo</text><polygon fill="#F1F1F1" points="354.9944,237.7969,468.7166,237.7969,480.7166,249.7969,468.7166,261.7969,354.9944,261.7969,342.9944,249.7969,354.9944,237.7969" style="stroke:#181818;stroke-width:0.5;stroke-linejoin:miter;stroke-miterlimit:10;"/><text fill="#000000" font-family="sans-serif" font-size="11" lengthAdjust="spacing" textLength="113.7222" x="354.9944" y="254.2979">Deseja reservar antes?</text><text fill="#000000" font-family="sans-serif" font-size="11" lengthAdjust="spacing" textLength="17.1069" x="325.8875" y="247.3799">sim</text><text fill="#000000" font-family="sans-serif" font-size="11" lengthAdjust="spacing" textLength="139.4282" x="480.7166" y="247.3799">n&#227;o &#8212; desbloqueio imediato</text><rect fill="#F1F1F1" height="50.1875" rx="12.5" ry="12.5" style="stroke:#181818;stroke-width:0.5;" width="127.3848" x="175.0869" y="271.7969"/><text fill="#000000" font-family="sans-serif" font-size="12" lengthAdjust="spacing" textLength="90.0352" x="185.0869" y="294.2539">Reservar ve&#237;culo</text><text fill="#000000" font-family="sans-serif" font-size="12" lengthAdjust="spacing" textLength="107.3848" x="185.0869" y="309.3477">(prazo de at&#233; 5 min)</text><polygon fill="#F1F1F1" points="163.251,341.9844,314.3076,341.9844,326.3076,353.9844,314.3076,365.9844,163.251,365.9844,151.251,353.9844,163.251,341.9844" style="stroke:#181818;stroke-width:0.5;stroke-linejoin:miter;stroke-miterlimit:10;"/><text fill="#000000" font-family="sans-serif" font-size="11" lengthAdjust="spacing" textLength="151.0566" x="163.251" y="358.4854">Desbloqueou dentro do prazo?</text><text fill="#000000" font-family="sans-serif" font-size="11" lengthAdjust="spacing" textLength="17.1069" x="134.144" y="351.5674">sim</text><text fill="#000000" font-family="sans-serif" font-size="11" lengthAdjust="spacing" textLength="18.353" x="326.3076" y="351.5674">n&#227;o</text><rect fill="#F1F1F1" height="35.0938" rx="12.5" ry="12.5" style="stroke:#181818;stroke-width:0.5;" width="221.457" x="16" y="375.9844"/><text fill="#000000" font-family="sans-serif" font-size="12" lengthAdjust="spacing" textLength="201.457" x="26" y="398.4414">Ler QR Code e desbloquear o ve&#237;culo</text><rect fill="#F1F1F1" height="50.1875" rx="12.5" ry="12.5" style="stroke:#181818;stroke-width:0.5;" width="186.7461" x="257.457" y="375.9844"/><text fill="#000000" font-family="sans-serif" font-size="12" lengthAdjust="spacing" textLength="80.7012" x="267.457" y="398.4414">Reserva expira</text><text fill="#000000" font-family="sans-serif" font-size="12" lengthAdjust="spacing" textLength="166.7461" x="267.457" y="413.5352">Ve&#237;culo retorna a DISPON&#205;VEL</text><ellipse cx="350.8301" cy="457.1719" fill="none" rx="11" ry="11" style="stroke:#222222;stroke-width:1;"/><ellipse cx="350.8301" cy="457.1719" fill="#222222" rx="6" ry="6" style="stroke:#222222;stroke-width:1;"/><rect fill="#F1F1F1" height="35.0938" rx="12.5" ry="12.5" style="stroke:#181818;stroke-width:0.5;" width="221.457" x="474.2031" y="271.7969"/><text fill="#000000" font-family="sans-serif" font-size="12" lengthAdjust="spacing" textLength="201.457" x="484.2031" y="294.2539">Ler QR Code e desbloquear o ve&#237;culo</text><polygon fill="#F1F1F1" points="411.8555,478.1719,423.8555,490.1719,411.8555,502.1719,399.8555,490.1719,411.8555,478.1719" style="stroke:#181818;stroke-width:0.5;stroke-linejoin:miter;stroke-miterlimit:10;"/><rect fill="#F1F1F1" height="50.1875" rx="12.5" ry="12.5" style="stroke:#181818;stroke-width:0.5;" width="162.0488" x="330.8311" y="522.1719"/><text fill="#000000" font-family="sans-serif" font-size="12" lengthAdjust="spacing" textLength="74.0273" x="340.8311" y="544.6289">Iniciar viagem</text><text fill="#000000" font-family="sans-serif" font-size="12" lengthAdjust="spacing" textLength="142.0488" x="340.8311" y="559.7227">(ve&#237;culo passa a EM USO)</text><rect fill="#F1F1F1" height="35.0938" rx="12.5" ry="12.5" style="stroke:#181818;stroke-width:0.5;" width="108.0313" x="357.8398" y="636.3594"/><text fill="#000000" font-family="sans-serif" font-size="12" lengthAdjust="spacing" textLength="88.0313" x="367.8398" y="658.8164">Utilizar o ve&#237;culo</text><rect fill="#F1F1F1" height="50.1875" rx="12.5" ry="12.5" style="stroke:#181818;stroke-width:0.5;" width="142.0508" x="340.8301" y="691.4531"/><text fill="#000000" font-family="sans-serif" font-size="12" lengthAdjust="spacing" textLength="122.0508" x="350.8301" y="713.9102">Registrar posi&#231;&#227;o GPS</text><text fill="#000000" font-family="sans-serif" font-size="12" lengthAdjust="spacing" textLength="76.6992" x="350.8301" y="729.0039">(a cada 1 min)</text><polygon fill="#F1F1F1" points="411.8555,592.3594,423.8555,604.3594,411.8555,616.3594,399.8555,604.3594,411.8555,592.3594" style="stroke:#181818;stroke-width:0.5;stroke-linejoin:miter;stroke-miterlimit:10;"/><polygon fill="#F1F1F1" points="351.9302,761.6406,471.7808,761.6406,483.7808,773.6406,471.7808,785.6406,351.9302,785.6406,339.9302,773.6406,351.9302,761.6406" style="stroke:#181818;stroke-width:0.5;stroke-linejoin:miter;stroke-miterlimit:10;"/><text fill="#000000" font-family="sans-serif" font-size="11" lengthAdjust="spacing" textLength="119.8506" x="351.9302" y="778.1416">Viagem em andamento?</text><text fill="#000000" font-family="sans-serif" font-size="11" lengthAdjust="spacing" textLength="17.1069" x="483.7808" y="771.2236">sim</text><rect fill="#F1F1F1" height="35.0938" rx="12.5" ry="12.5" style="stroke:#181818;stroke-width:0.5;" width="181.4141" x="321.1484" y="805.6406"/><text fill="#000000" font-family="sans-serif" font-size="12" lengthAdjust="spacing" textLength="161.4141" x="331.1484" y="828.0977">Solicitar finaliza&#231;&#227;o da viagem</text><rect fill="#F1F1F1" height="50.1875" rx="12.5" ry="12.5" style="stroke:#181818;stroke-width:0.5;" width="176.0879" x="323.8115" y="860.7344"/><text fill="#000000" font-family="sans-serif" font-size="12" lengthAdjust="spacing" textLength="156.0879" x="333.8115" y="883.1914">Executar fluxo de finaliza&#231;&#227;o,</text><text fill="#000000" font-family="sans-serif" font-size="12" lengthAdjust="spacing" textLength="119.4141" x="333.8115" y="898.2852">tarifa&#231;&#227;o e pagamento</text><rect fill="#F1F1F1" height="35.0938" rx="12.5" ry="12.5" style="stroke:#181818;stroke-width:0.5;" width="222.1133" x="300.7988" y="930.9219"/><text fill="#000000" font-family="sans-serif" font-size="12" lengthAdjust="spacing" textLength="202.1133" x="310.7988" y="953.3789">Atualizar hist&#243;rico e estado do ve&#237;culo</text><ellipse cx="411.8555" cy="997.0156" fill="none" rx="11" ry="11" style="stroke:#222222;stroke-width:1;"/><ellipse cx="411.8555" cy="997.0156" fill="#222222" rx="6" ry="6" style="stroke:#222222;stroke-width:1;"/><rect fill="#F1F1F1" height="35.0938" rx="12.5" ry="12.5" style="stroke:#181818;stroke-width:0.5;" width="210.1191" x="725.6602" y="182.7031"/><text fill="#000000" font-family="sans-serif" font-size="12" lengthAdjust="spacing" textLength="190.1191" x="735.6602" y="205.1602">Informar indisponibilidade na regi&#227;o</text><ellipse cx="830.7197" cy="248.7969" fill="none" rx="11" ry="11" style="stroke:#222222;stroke-width:1;"/><ellipse cx="830.7197" cy="248.7969" fill="#222222" rx="6" ry="6" style="stroke:#222222;stroke-width:1;"/><line style="stroke:#181818;stroke-width:1;" x1="621.2876" x2="621.2876" y1="73.6094" y2="93.6094"/><polygon fill="#181818" points="617.2876,83.6094,621.2876,93.6094,625.2876,83.6094,621.2876,87.6094" style="stroke:#181818;stroke-width:1;stroke-linejoin:miter;stroke-miterlimit:10;"/><line style="stroke:#181818;stroke-width:1;" x1="350.8301" x2="350.8301" y1="426.1719" y2="446.1719"/><polygon fill="#181818" points="346.8301,436.1719,350.8301,446.1719,354.8301,436.1719,350.8301,440.1719" style="stroke:#181818;stroke-width:1;stroke-linejoin:miter;stroke-miterlimit:10;"/><line style="stroke:#181818;stroke-width:1;" x1="151.251" x2="126.7285" y1="353.9844" y2="353.9844"/><line style="stroke:#181818;stroke-width:1;" x1="126.7285" x2="126.7285" y1="353.9844" y2="375.9844"/><polygon fill="#181818" points="122.7285,365.9844,126.7285,375.9844,130.7285,365.9844,126.7285,369.9844" style="stroke:#181818;stroke-width:1;stroke-linejoin:miter;stroke-miterlimit:10;"/><line style="stroke:#181818;stroke-width:1;" x1="326.3076" x2="350.8301" y1="353.9844" y2="353.9844"/><line style="stroke:#181818;stroke-width:1;" x1="350.8301" x2="350.8301" y1="353.9844" y2="375.9844"/><polygon fill="#181818" points="346.8301,365.9844,350.8301,375.9844,354.8301,365.9844,350.8301,369.9844" style="stroke:#181818;stroke-width:1;stroke-linejoin:miter;stroke-miterlimit:10;"/><line style="stroke:#181818;stroke-width:1;" x1="126.7285" x2="126.7285" y1="411.0781" y2="490.1719"/><line style="stroke:#181818;stroke-width:1;" x1="126.7285" x2="399.8555" y1="490.1719" y2="490.1719"/><polygon fill="#181818" points="389.8555,486.1719,399.8555,490.1719,389.8555,494.1719,393.8555,490.1719" style="stroke:#181818;stroke-width:1;stroke-linejoin:miter;stroke-miterlimit:10;"/><line style="stroke:#181818;stroke-width:1;" x1="238.7793" x2="238.7793" y1="321.9844" y2="341.9844"/><polygon fill="#181818" points="234.7793,331.9844,238.7793,341.9844,242.7793,331.9844,238.7793,335.9844" style="stroke:#181818;stroke-width:1;stroke-linejoin:miter;stroke-miterlimit:10;"/><line style="stroke:#181818;stroke-width:1;" x1="342.9944" x2="238.7793" y1="249.7969" y2="249.7969"/><line style="stroke:#181818;stroke-width:1;" x1="238.7793" x2="238.7793" y1="249.7969" y2="271.7969"/><polygon fill="#181818" points="234.7793,261.7969,238.7793,271.7969,242.7793,261.7969,238.7793,265.7969" style="stroke:#181818;stroke-width:1;stroke-linejoin:miter;stroke-miterlimit:10;"/><line style="stroke:#181818;stroke-width:1;" x1="480.7166" x2="584.9316" y1="249.7969" y2="249.7969"/><line style="stroke:#181818;stroke-width:1;" x1="584.9316" x2="584.9316" y1="249.7969" y2="271.7969"/><polygon fill="#181818" points="580.9316,261.7969,584.9316,271.7969,588.9316,261.7969,584.9316,265.7969" style="stroke:#181818;stroke-width:1;stroke-linejoin:miter;stroke-miterlimit:10;"/><line style="stroke:#181818;stroke-width:1;" x1="584.9316" x2="584.9316" y1="306.8906" y2="490.1719"/><line style="stroke:#181818;stroke-width:1;" x1="584.9316" x2="423.8555" y1="490.1719" y2="490.1719"/><polygon fill="#181818" points="433.8555,486.1719,423.8555,490.1719,433.8555,494.1719,429.8555,490.1719" style="stroke:#181818;stroke-width:1;stroke-linejoin:miter;stroke-miterlimit:10;"/><line style="stroke:#181818;stroke-width:1;" x1="411.8555" x2="411.8555" y1="217.7969" y2="237.7969"/><polygon fill="#181818" points="407.8555,227.7969,411.8555,237.7969,415.8555,227.7969,411.8555,231.7969" style="stroke:#181818;stroke-width:1;stroke-linejoin:miter;stroke-miterlimit:10;"/><line style="stroke:#181818;stroke-width:1;" x1="411.8555" x2="411.8555" y1="502.1719" y2="522.1719"/><polygon fill="#181818" points="407.8555,512.1719,411.8555,522.1719,415.8555,512.1719,411.8555,516.1719" style="stroke:#181818;stroke-width:1;stroke-linejoin:miter;stroke-miterlimit:10;"/><line style="stroke:#181818;stroke-width:1;" x1="411.8555" x2="411.8555" y1="671.4531" y2="691.4531"/><polygon fill="#181818" points="407.8555,681.4531,411.8555,691.4531,415.8555,681.4531,411.8555,685.4531" style="stroke:#181818;stroke-width:1;stroke-linejoin:miter;stroke-miterlimit:10;"/><line style="stroke:#181818;stroke-width:1;" x1="411.8555" x2="411.8555" y1="616.3594" y2="636.3594"/><polygon fill="#181818" points="407.8555,626.3594,411.8555,636.3594,415.8555,626.3594,411.8555,630.3594" style="stroke:#181818;stroke-width:1;stroke-linejoin:miter;stroke-miterlimit:10;"/><line style="stroke:#181818;stroke-width:1;" x1="483.7808" x2="495.7808" y1="773.6406" y2="773.6406"/><polygon fill="#181818" points="491.7808,691.5,495.7808,681.5,499.7808,691.5,495.7808,687.5" style="stroke:#181818;stroke-width:1;stroke-linejoin:miter;stroke-miterlimit:10;"/><line style="stroke:#181818;stroke-width:1;" x1="495.7808" x2="495.7808" y1="604.3594" y2="773.6406"/><line style="stroke:#181818;stroke-width:1;" x1="495.7808" x2="423.8555" y1="604.3594" y2="604.3594"/><polygon fill="#181818" points="433.8555,600.3594,423.8555,604.3594,433.8555,608.3594,429.8555,604.3594" style="stroke:#181818;stroke-width:1;stroke-linejoin:miter;stroke-miterlimit:10;"/><line style="stroke:#181818;stroke-width:1;" x1="411.8555" x2="411.8555" y1="741.6406" y2="761.6406"/><polygon fill="#181818" points="407.8555,751.6406,411.8555,761.6406,415.8555,751.6406,411.8555,755.6406" style="stroke:#181818;stroke-width:1;stroke-linejoin:miter;stroke-miterlimit:10;"/><line style="stroke:#181818;stroke-width:1;" x1="411.8555" x2="411.8555" y1="572.3594" y2="592.3594"/><polygon fill="#181818" points="407.8555,582.3594,411.8555,592.3594,415.8555,582.3594,411.8555,586.3594" style="stroke:#181818;stroke-width:1;stroke-linejoin:miter;stroke-miterlimit:10;"/><line style="stroke:#181818;stroke-width:1;" x1="411.8555" x2="411.8555" y1="785.6406" y2="805.6406"/><polygon fill="#181818" points="407.8555,795.6406,411.8555,805.6406,415.8555,795.6406,411.8555,799.6406" style="stroke:#181818;stroke-width:1;stroke-linejoin:miter;stroke-miterlimit:10;"/><line style="stroke:#181818;stroke-width:1;" x1="411.8555" x2="411.8555" y1="840.7344" y2="860.7344"/><polygon fill="#181818" points="407.8555,850.7344,411.8555,860.7344,415.8555,850.7344,411.8555,854.7344" style="stroke:#181818;stroke-width:1;stroke-linejoin:miter;stroke-miterlimit:10;"/><line style="stroke:#181818;stroke-width:1;" x1="411.8555" x2="411.8555" y1="910.9219" y2="930.9219"/><polygon fill="#181818" points="407.8555,920.9219,411.8555,930.9219,415.8555,920.9219,411.8555,924.9219" style="stroke:#181818;stroke-width:1;stroke-linejoin:miter;stroke-miterlimit:10;"/><line style="stroke:#181818;stroke-width:1;" x1="411.8555" x2="411.8555" y1="966.0156" y2="986.0156"/><polygon fill="#181818" points="407.8555,976.0156,411.8555,986.0156,415.8555,976.0156,411.8555,980.0156" style="stroke:#181818;stroke-width:1;stroke-linejoin:miter;stroke-miterlimit:10;"/><line style="stroke:#181818;stroke-width:1;" x1="830.7197" x2="830.7197" y1="217.7969" y2="237.7969"/><polygon fill="#181818" points="826.7197,227.7969,830.7197,237.7969,834.7197,227.7969,830.7197,231.7969" style="stroke:#181818;stroke-width:1;stroke-linejoin:miter;stroke-miterlimit:10;"/><line style="stroke:#181818;stroke-width:1;" x1="527.3542" x2="411.8555" y1="160.7031" y2="160.7031"/><line style="stroke:#181818;stroke-width:1;" x1="411.8555" x2="411.8555" y1="160.7031" y2="182.7031"/><polygon fill="#181818" points="407.8555,172.7031,411.8555,182.7031,415.8555,172.7031,411.8555,176.7031" style="stroke:#181818;stroke-width:1;stroke-linejoin:miter;stroke-miterlimit:10;"/><line style="stroke:#181818;stroke-width:1;" x1="715.2209" x2="830.7197" y1="160.7031" y2="160.7031"/><line style="stroke:#181818;stroke-width:1;" x1="830.7197" x2="830.7197" y1="160.7031" y2="182.7031"/><polygon fill="#181818" points="826.7197,172.7031,830.7197,182.7031,834.7197,172.7031,830.7197,176.7031" style="stroke:#181818;stroke-width:1;stroke-linejoin:miter;stroke-miterlimit:10;"/><line style="stroke:#181818;stroke-width:1;" x1="621.2876" x2="621.2876" y1="128.7031" y2="148.7031"/><polygon fill="#181818" points="617.2876,138.7031,621.2876,148.7031,625.2876,138.7031,621.2876,142.7031" style="stroke:#181818;stroke-width:1;stroke-linejoin:miter;stroke-miterlimit:10;"/><?plantuml-src ZLEnZjD04Etz5LCc4WKKAKWAT4eYTDB17HSbLPevUvmCP-ykk-iGNSKFqF4758ZYgli4_ybz2RExjac00icIvVMRDs_UlFNiAu85uyvYZL0GN7W-S845ENZ-yWtcd5SwdA-Tl3Iio1wu_Q6ppDspCYXbeBIWoS1aSd9eKTs7mzSl1UhH-YoRphLoJIKVSA3sCMygxQ1WPxHg7m_4JfYWHeEpBECIHiiZEqy35aANZoWYZ6sVZbphDsFmUr8mSboFCu3fYYhAMQkJ3i854DWMiHgilEn10AWykJyPXEEs1_GCMpKo5X-Y2-ZRdp21cjKu4W_KTvN-r91k1AIyZLR5ehyRI8ihil3X5kRY6r0OArLBJtsYEq2fSWGZrNxNGt6d3-XesE9MRNfxB7bj5GB2ud9rS_s-_RfPNiswCkUrIOogu398_qqT5pseO0rSKy7ekvx_BNUWdbugpZbOAC6YMWmSTcZGkI1n-GxMg-jaeYL3w5EljUUA7_xXXCozapXO-MMqamW6uMzlLaAEa6E1yAfRIqy8d_SiuHvjeWYG1rM1jUmdR4NIbdOISwCh4Ho2MRB2823n2siQ8R1EbqVAcmYgccECmndwnLR9JowxMf9PTwbThBxm3QRHzZ97-sGv3o2Ior74l9mbDkuhEr-_s5fgMmi3gtHj-4xS2fSLL4ZsZWKvwwlJEdu1?></g></svg>